<svg width="12" height="8" viewBox="0 0 12 8" fill="none" xmlns="http://www.w3.org/2000/svg">
<path d="M6.67628 6.95634L6.6763 6.95632L10.976 2.43051C11.3413 2.04616 11.3414 1.42795 10.976 1.04364C10.604 0.652124 9.99522 0.652112 9.62327 1.04365C9.62327 1.04365 9.62326 1.04365 9.62326 1.04365L5.99993 4.85755L2.37672 1.04376L2.37669 1.04372C2.00464 0.652281 1.39593 0.652214 1.02393 1.04372L6.67628 6.95634ZM6.67628 6.95634C6.49189 7.15039 6.24695 7.25 5.99991 7.25C5.753 7.25 5.5082 7.15057 5.32371 6.95648L5.32367 6.95644M6.67628 6.95634L5.32367 6.95644M5.32367 6.95644L1.0239 2.43058C1.0239 2.43058 1.0239 2.43058 1.0239 2.43058M5.32367 6.95644L1.0239 2.43058M1.0239 2.43058C0.658731 2.04622 0.658671 1.42807 1.0239 1.04376L1.0239 2.43058Z" fill="#8F99CC" stroke="#8F99CC" stroke-width="0.5"/>
</svg>
