<svg width="464" height="260" viewBox="0 0 464 260" fill="none" xmlns="http://www.w3.org/2000/svg">
<g filter="url(#filter0_dii)">
<rect x="159.881" y="2.02441" width="252" height="284" rx="24.24" transform="rotate(30 159.881 2.02441)" fill="url(#paint0_linear)"/>
<rect x="160.247" y="3.39044" width="250" height="282" rx="23.24" transform="rotate(30 160.247 3.39044)" stroke="url(#paint1_linear)" stroke-opacity="0.8" stroke-width="2"/>
</g>
<path d="M105.37 157.596C106.78 158.41 107.726 159.337 108.209 160.378C108.705 161.426 108.611 162.541 107.929 163.722C107.475 164.51 106.902 165.077 106.211 165.423C105.527 165.756 104.773 165.888 103.95 165.819C103.146 165.745 102.305 165.471 101.426 164.998L101.765 163.618C102.787 164.225 103.606 164.918 104.223 165.698C104.847 166.465 105.223 167.266 105.35 168.101C105.498 168.932 105.348 169.734 104.9 170.509C104.482 171.233 103.993 171.772 103.433 172.126C102.893 172.475 102.309 172.679 101.681 172.74C101.053 172.801 100.416 172.747 99.7691 172.576C99.1295 172.393 98.5049 172.126 97.8952 171.774L93.5703 169.277L101.578 155.407L105.37 157.596ZM102.303 163.7C102.976 164.089 103.575 164.18 104.1 163.975C104.645 163.765 105.067 163.399 105.368 162.879C105.735 162.243 105.806 161.666 105.58 161.147C105.355 160.627 104.906 160.173 104.233 159.784L102.575 158.827L100.397 162.6L102.303 163.7ZM98.988 169.661C99.4579 169.932 99.9201 170.115 100.374 170.208C100.836 170.288 101.262 170.254 101.652 170.107C102.049 169.947 102.373 169.651 102.622 169.219C102.901 168.736 102.984 168.285 102.871 167.864C102.758 167.443 102.532 167.058 102.191 166.709C101.851 166.36 101.458 166.057 101.014 165.801L99.1654 164.734L96.9874 168.506L98.988 169.661ZM109.214 167.563L111.348 168.795L106.695 176.855L104.561 175.623L109.214 167.563ZM110.791 164.612C110.982 164.282 111.266 164.082 111.645 164.013C112.037 163.951 112.385 164.008 112.69 164.184C112.994 164.36 113.205 164.626 113.322 164.981C113.438 165.336 113.401 165.679 113.211 166.009C113.02 166.34 112.742 166.543 112.376 166.62C112.017 166.683 111.685 166.627 111.381 166.451C111.076 166.275 110.852 166.002 110.71 165.633C110.581 165.27 110.608 164.93 110.791 164.612ZM116.531 167.062L118.665 168.294L116.619 171.838L118.714 173.048L117.746 174.725L115.651 173.515L111.966 179.897L109.832 178.665L113.517 172.283L112.126 171.48L113.094 169.803L114.485 170.606L116.531 167.062ZM122.684 185.095C122.16 185.182 121.586 185.164 120.962 185.041C120.359 184.913 119.797 184.698 119.276 184.398C118.387 183.884 117.705 183.262 117.23 182.53C116.762 181.786 116.517 180.992 116.495 180.15C116.494 179.302 116.746 178.44 117.252 177.564C117.758 176.687 118.391 176.045 119.151 175.638C119.924 175.237 120.73 175.059 121.569 175.103C122.427 175.141 123.218 175.369 123.942 175.787C124.628 176.183 125.177 176.627 125.587 177.118C126.006 177.596 126.307 178.101 126.492 178.631L124.641 179.417C124.533 179.134 124.355 178.828 124.105 178.498C123.875 178.162 123.551 177.873 123.132 177.631C122.713 177.389 122.263 177.273 121.783 177.284C121.302 177.294 120.851 177.432 120.427 177.695C120.012 177.946 119.664 178.313 119.386 178.796C119.122 179.253 118.988 179.735 118.984 180.24C118.979 180.746 119.096 181.219 119.332 181.661C119.588 182.097 119.964 182.458 120.46 182.744C120.79 182.934 121.114 183.062 121.432 183.127C121.757 183.18 122.076 183.186 122.387 183.145L122.684 185.095ZM125.581 182.271C126.05 181.458 126.662 180.838 127.417 180.41C128.192 179.977 129.029 179.774 129.928 179.802C130.834 179.817 131.725 180.077 132.601 180.583C133.503 181.104 134.174 181.745 134.615 182.508C135.075 183.265 135.293 184.076 135.267 184.942C135.261 185.802 135.024 186.639 134.554 187.452C134.085 188.265 133.476 188.895 132.726 189.343C131.996 189.785 131.185 190.003 130.292 189.995C129.398 189.988 128.501 189.723 127.599 189.203C126.723 188.697 126.04 188.074 125.553 187.335C125.085 186.591 124.841 185.781 124.821 184.906C124.814 184.038 125.067 183.16 125.581 182.271ZM127.723 183.533C127.451 184.003 127.304 184.493 127.279 185.004C127.263 185.503 127.366 185.969 127.59 186.403C127.813 186.837 128.141 187.179 128.573 187.428C129.043 187.699 129.515 187.82 129.99 187.789C130.478 187.766 130.927 187.619 131.338 187.347C131.768 187.071 132.119 186.698 132.39 186.228C132.669 185.745 132.817 185.255 132.834 184.756C132.87 184.253 132.777 183.784 132.553 183.35C132.342 182.923 132.002 182.574 131.532 182.303C131.087 182.046 130.618 181.936 130.123 181.972C129.648 182.002 129.199 182.15 128.775 182.413C128.352 182.677 128.001 183.05 127.723 183.533ZM138.521 184.484L140.655 185.716L136.002 193.775L133.868 192.543L138.521 184.484ZM140.098 181.533C140.288 181.202 140.573 181.003 140.952 180.933C141.343 180.871 141.691 180.928 141.996 181.104C142.301 181.28 142.512 181.546 142.629 181.901C142.745 182.257 142.708 182.599 142.518 182.93C142.327 183.26 142.049 183.463 141.683 183.54C141.324 183.604 140.992 183.548 140.687 183.372C140.382 183.196 140.159 182.923 140.017 182.553C139.888 182.19 139.914 181.85 140.098 181.533ZM144.935 188.186L144.105 190.019L144.18 189.758C144.769 189.353 145.439 189.146 146.188 189.139C146.945 189.119 147.705 189.328 148.467 189.768C149.229 190.208 149.729 190.794 149.968 191.524C150.207 192.255 150.123 192.986 149.718 193.717L146.264 199.7L144.13 198.468L147.144 193.247C147.366 192.833 147.439 192.444 147.362 192.078C147.293 191.699 147.027 191.368 146.564 191.083C146.133 190.834 145.668 190.744 145.171 190.813C144.682 190.869 144.203 191.067 143.736 191.407C143.289 191.741 142.897 192.2 142.559 192.785L140.491 196.367L138.357 195.135L143.01 187.075L144.935 188.186ZM166.535 192.91C167.59 193.518 168.389 194.217 168.933 195.005C169.477 195.793 169.755 196.631 169.768 197.519C169.793 198.414 169.534 199.332 168.991 200.272C168.676 200.818 168.272 201.313 167.778 201.756C167.298 202.207 166.745 202.549 166.12 202.78C165.508 203.02 164.82 203.097 164.056 203.011C163.305 202.933 162.492 202.641 161.615 202.135L159.615 200.98L156.832 205.801L154.602 204.514L162.61 190.644L166.535 192.91ZM162.847 200.002C163.33 200.28 163.784 200.432 164.21 200.458C164.635 200.483 165.01 200.421 165.335 200.269C165.672 200.125 165.959 199.935 166.197 199.7C166.447 199.472 166.634 199.25 166.759 199.034C166.884 198.818 166.985 198.555 167.063 198.244C167.148 197.92 167.171 197.587 167.133 197.243C167.102 196.886 166.971 196.54 166.742 196.204C166.519 195.856 166.161 195.538 165.665 195.252L163.608 194.064L160.847 198.847L162.847 200.002ZM171.817 203.707L170.688 206.103L170.799 205.736C171.293 205.378 171.836 205.141 172.428 205.025C173.033 204.917 173.599 204.888 174.129 204.94C174.67 204.999 175.075 205.105 175.342 205.259L174.014 207.338C173.434 206.935 172.838 206.735 172.227 206.738C171.628 206.748 171.07 206.908 170.552 207.219C170.041 207.517 169.643 207.913 169.357 208.409L167.355 211.876L165.24 210.655L169.893 202.596L171.817 203.707ZM176.745 206.552L178.879 207.784L174.226 215.844L172.092 214.612L176.745 206.552ZM178.322 203.601C178.513 203.271 178.797 203.071 179.176 203.002C179.567 202.94 179.916 202.997 180.22 203.173C180.525 203.349 180.736 203.615 180.853 203.97C180.969 204.325 180.932 204.668 180.742 204.998C180.551 205.329 180.273 205.532 179.907 205.609C179.548 205.672 179.216 205.616 178.911 205.44C178.607 205.264 178.383 204.991 178.241 204.622C178.112 204.259 178.139 203.919 178.322 203.601ZM183.679 220.31C183.155 220.397 182.581 220.379 181.957 220.256C181.354 220.128 180.792 219.914 180.271 219.613C179.382 219.1 178.7 218.477 178.225 217.746C177.757 217.001 177.512 216.208 177.49 215.366C177.489 214.518 177.741 213.656 178.247 212.779C178.753 211.903 179.386 211.261 180.146 210.853C180.919 210.453 181.725 210.274 182.564 210.318C183.422 210.356 184.213 210.585 184.937 211.003C185.623 211.399 186.172 211.842 186.582 212.333C187.001 212.812 187.302 213.316 187.487 213.846L185.636 214.632C185.528 214.35 185.35 214.043 185.1 213.713C184.87 213.377 184.546 213.088 184.127 212.846C183.708 212.604 183.258 212.489 182.778 212.499C182.297 212.51 181.846 212.647 181.422 212.911C181.007 213.162 180.659 213.529 180.381 214.011C180.117 214.469 179.983 214.95 179.978 215.456C179.974 215.961 180.091 216.435 180.327 216.876C180.583 217.312 180.959 217.673 181.455 217.959C181.785 218.15 182.109 218.278 182.427 218.343C182.752 218.395 183.071 218.401 183.382 218.361L183.679 220.31ZM188.594 224.418C187.641 223.868 186.935 223.215 186.474 222.458C186.014 221.701 185.793 220.896 185.811 220.043C185.829 219.189 186.081 218.344 186.565 217.505C187.027 216.705 187.648 216.099 188.428 215.685C189.216 215.26 190.063 215.054 190.969 215.069C191.895 215.079 192.777 215.325 193.615 215.809C194.72 216.447 195.441 217.296 195.779 218.354C196.136 219.407 196.098 220.588 195.665 221.896L187.903 220.336L188.1 218.849L194.232 219.976L193.632 219.96C193.725 219.506 193.694 219.047 193.537 218.584C193.388 218.109 193.035 217.71 192.476 217.387C192.031 217.13 191.575 217.011 191.107 217.029C190.64 217.047 190.194 217.188 189.771 217.451C189.368 217.71 189.02 218.093 188.726 218.601C188.418 219.135 188.259 219.66 188.247 220.179C188.243 220.685 188.363 221.152 188.607 221.58C188.858 221.996 189.218 222.34 189.688 222.611C190.018 222.802 190.363 222.924 190.721 222.979C191.092 223.04 191.472 223.057 191.861 223.027L191.92 225.17C191.347 225.195 190.758 225.143 190.155 225.015C189.572 224.881 189.051 224.682 188.594 224.418Z" fill="#F0F3FF"/>
<g filter="url(#filter1_di)">
<mask id="path-4-inside-1" fill="white">
<path d="M81.165 186.363C81.7173 185.407 82.9405 185.079 83.8971 185.631L257.102 285.631C258.059 286.184 258.387 287.407 257.834 288.363C257.282 289.32 256.059 289.648 255.102 289.095L81.8971 189.095C80.9405 188.543 80.6128 187.32 81.165 186.363Z"/>
</mask>
<path d="M81.8971 189.095L255.102 289.095L259.102 282.167L85.8971 182.167L81.8971 189.095ZM257.102 285.631L83.8971 185.631L79.8971 192.56L253.102 292.56L257.102 285.631ZM83.8971 185.631C84.8537 186.184 85.1814 187.407 84.6291 188.363L77.7009 184.363C76.0441 187.233 77.0273 190.903 79.8971 192.56L83.8971 185.631ZM254.37 286.363C254.922 285.407 256.146 285.079 257.102 285.631L253.102 292.56C255.972 294.216 259.641 293.233 261.298 290.363L254.37 286.363ZM255.102 289.095C254.146 288.543 253.818 287.32 254.37 286.363L261.298 290.363C262.955 287.494 261.972 283.824 259.102 282.167L255.102 289.095ZM85.8971 182.167C83.0273 180.51 79.3578 181.494 77.7009 184.363L84.6291 188.363C84.0769 189.32 82.8537 189.648 81.8971 189.095L85.8971 182.167Z" fill="#6871A3" mask="url(#path-4-inside-1)"/>
</g>
<g filter="url(#filter2_di)">
<mask id="path-6-inside-2" fill="white">
<path d="M75.165 196.756C75.7173 195.799 76.9405 195.471 77.8971 196.024L251.102 296.024C252.059 296.576 252.387 297.799 251.834 298.756C251.282 299.712 250.059 300.04 249.102 299.488L75.8971 199.488C74.9405 198.935 74.6128 197.712 75.165 196.756Z"/>
</mask>
<path d="M75.8971 199.488L249.102 299.488L253.102 292.56L79.8971 192.56L75.8971 199.488ZM251.102 296.024L77.8971 196.024L73.8971 202.952L247.102 302.952L251.102 296.024ZM77.8971 196.024C78.8537 196.576 79.1814 197.799 78.6291 198.756L71.7009 194.756C70.0441 197.625 71.0273 201.295 73.8971 202.952L77.8971 196.024ZM248.37 296.756C248.922 295.799 250.146 295.471 251.102 296.024L247.102 302.952C249.972 304.609 253.641 303.625 255.298 300.756L248.37 296.756ZM249.102 299.488C248.146 298.935 247.818 297.712 248.37 296.756L255.298 300.756C256.955 297.886 255.972 294.216 253.102 292.56L249.102 299.488ZM79.8971 192.56C77.0273 190.903 73.3578 191.886 71.7009 194.756L78.6291 198.756C78.0769 199.712 76.8537 200.04 75.8971 199.488L79.8971 192.56Z" fill="#6871A3" mask="url(#path-6-inside-2)"/>
</g>
<g filter="url(#filter3_di)">
<mask id="path-8-inside-3" fill="white">
<path d="M69.165 207.148C69.7173 206.191 70.9405 205.864 71.8971 206.416L199.203 279.916C200.159 280.468 200.487 281.691 199.935 282.648C199.383 283.605 198.159 283.932 197.203 283.38L69.8971 209.88C68.9405 209.328 68.6128 208.105 69.165 207.148Z"/>
</mask>
<path d="M69.8971 209.88L197.203 283.38L201.203 276.452L73.8971 202.952L69.8971 209.88ZM199.203 279.916L71.8971 206.416L67.8971 213.344L195.203 286.844L199.203 279.916ZM71.8971 206.416C72.8537 206.968 73.1814 208.191 72.6291 209.148L65.7009 205.148C64.0441 208.018 65.0273 211.687 67.8971 213.344L71.8971 206.416ZM196.471 280.648C197.023 279.691 198.246 279.364 199.203 279.916L195.203 286.844C198.073 288.501 201.742 287.518 203.399 284.648L196.471 280.648ZM197.203 283.38C196.246 282.828 195.918 281.605 196.471 280.648L203.399 284.648C205.056 281.778 204.073 278.109 201.203 276.452L197.203 283.38ZM73.8971 202.952C71.0273 201.295 67.3578 202.278 65.7009 205.148L72.6291 209.148C72.0769 210.105 70.8537 210.432 69.8971 209.88L73.8971 202.952Z" fill="#6871A3" mask="url(#path-8-inside-3)"/>
</g>
<g filter="url(#filter4_dd)">
<path d="M65.5684 231.33C66.3419 230.636 67.5562 231.337 67.3409 232.354L66.5728 235.987C66.5262 236.208 66.551 236.439 66.6435 236.646C66.7361 236.853 66.8917 237.025 67.0881 237.139L70.3145 239.002C71.2175 239.523 70.9272 240.891 69.8919 240.999L66.1917 241.382C65.9659 241.405 65.7534 241.499 65.5848 241.65C65.4161 241.802 65.3 242.003 65.253 242.224L64.4848 245.858C64.2706 246.875 62.8761 247.019 62.4501 246.068L60.9314 242.672C60.8388 242.465 60.6829 242.292 60.4862 242.178C60.2895 242.065 60.0621 242.016 59.8364 242.04L56.1363 242.422C55.1 242.53 54.529 241.25 55.3015 240.556L58.064 238.074C58.2325 237.922 58.3484 237.721 58.3952 237.5C58.442 237.278 58.4171 237.047 58.3243 236.84L56.806 233.445C56.382 232.495 57.4225 231.56 58.3246 232.081L61.55 233.943C61.7467 234.056 61.9741 234.105 62.1998 234.082C62.4254 234.059 62.6377 233.965 62.8063 233.814L65.5688 231.332L65.5684 231.33Z" fill="url(#paint2_linear)"/>
</g>
<g filter="url(#filter5_dd)">
<path d="M86.3526 243.33C87.126 242.636 88.3404 243.337 88.1251 244.354L87.357 247.987C87.3104 248.208 87.3351 248.439 87.4277 248.646C87.5203 248.853 87.6759 249.025 87.8723 249.139L91.0987 251.002C92.0017 251.523 91.7114 252.891 90.6761 252.999L86.9759 253.382C86.7501 253.405 86.5376 253.499 86.369 253.65C86.2003 253.802 86.0842 254.003 86.0372 254.224L85.269 257.858C85.0547 258.875 83.6602 259.019 83.2343 258.068L81.7156 254.672C81.6229 254.465 81.4671 254.292 81.2704 254.178C81.0737 254.065 80.8463 254.016 80.6206 254.04L76.9205 254.422C75.8842 254.53 75.3132 253.25 76.0857 252.556L78.8482 250.074C79.0167 249.922 79.1326 249.721 79.1794 249.5C79.2261 249.278 79.2013 249.047 79.1085 248.84L77.5902 245.445C77.1661 244.495 78.2067 243.56 79.1088 244.081L82.3342 245.943C82.5309 246.056 82.7583 246.105 82.984 246.082C83.2096 246.059 83.4219 245.965 83.5905 245.814L86.353 243.332L86.3526 243.33Z" fill="url(#paint3_linear)"/>
</g>
<g filter="url(#filter6_dd)">
<path d="M107.138 255.33C107.911 254.636 109.126 255.337 108.91 256.354L108.142 259.987C108.096 260.208 108.12 260.439 108.213 260.646C108.305 260.853 108.461 261.025 108.657 261.139L111.884 263.002C112.787 263.523 112.497 264.891 111.461 264.999L107.761 265.382C107.535 265.405 107.323 265.499 107.154 265.65C106.985 265.802 106.869 266.003 106.822 266.224L106.054 269.858C105.84 270.875 104.445 271.019 104.019 270.068L102.501 266.672C102.408 266.465 102.252 266.292 102.056 266.178C101.859 266.065 101.631 266.016 101.406 266.04L97.7056 266.422C96.6693 266.53 96.0983 265.25 96.8709 264.556L99.6334 262.074C99.8018 261.922 99.9178 261.721 99.9645 261.5C100.011 261.278 99.9865 261.047 99.8937 260.84L98.3753 257.445C97.9513 256.495 98.9918 255.56 99.8939 256.081L103.119 257.943C103.316 258.056 103.543 258.105 103.769 258.082C103.995 258.059 104.207 257.965 104.376 257.814L107.138 255.332L107.138 255.33Z" fill="url(#paint4_linear)"/>
</g>
<g filter="url(#filter7_d)">
<path d="M127.922 267.33C128.695 266.636 129.91 267.337 129.694 268.354L128.926 271.987C128.88 272.208 128.904 272.439 128.997 272.646C129.09 272.853 129.245 273.025 129.442 273.139L132.668 275.002C133.571 275.523 133.281 276.891 132.245 276.999L128.545 277.382C128.319 277.405 128.107 277.499 127.938 277.65C127.77 277.802 127.654 278.003 127.607 278.224L126.838 281.858C126.624 282.875 125.23 283.019 124.804 282.068L123.285 278.672C123.192 278.465 123.036 278.292 122.84 278.178C122.643 278.065 122.416 278.016 122.19 278.04L118.49 278.422C117.453 278.53 116.883 277.25 117.655 276.556L120.418 274.074C120.586 273.922 120.702 273.721 120.749 273.5C120.795 273.278 120.771 273.047 120.678 272.84L119.16 269.445C118.735 268.495 119.776 267.56 120.678 268.081L123.904 269.943C124.1 270.056 124.328 270.105 124.553 270.082C124.779 270.059 124.991 269.965 125.16 269.814L127.922 267.332L127.922 267.33Z" fill="url(#paint5_linear)"/>
</g>
<g filter="url(#filter8_d)">
<path d="M148.707 279.33C149.481 278.636 150.695 279.337 150.48 280.354L149.711 283.987C149.665 284.208 149.69 284.439 149.782 284.646C149.875 284.853 150.03 285.025 150.227 285.139L153.453 287.002C154.356 287.523 154.066 288.891 153.031 288.999L149.33 289.382C149.105 289.405 148.892 289.499 148.723 289.65C148.555 289.802 148.439 290.003 148.392 290.224L147.624 293.858C147.409 294.875 146.015 295.019 145.589 294.068L144.07 290.672C143.977 290.465 143.822 290.292 143.625 290.178C143.428 290.065 143.201 290.016 142.975 290.04L139.275 290.422C138.239 290.53 137.668 289.25 138.44 288.556L141.203 286.074C141.371 285.922 141.487 285.721 141.534 285.5C141.581 285.278 141.556 285.047 141.463 284.84L139.945 281.445C139.521 280.495 140.561 279.56 141.463 280.081L144.689 281.943C144.885 282.056 145.113 282.105 145.338 282.082C145.564 282.059 145.776 281.965 145.945 281.814L148.707 279.332L148.707 279.33Z" fill="url(#paint6_linear)"/>
</g>
<defs>
<filter id="filter0_dii" x="0.749023" y="0.892822" width="462.502" height="474.214" filterUnits="userSpaceOnUse" color-interpolation-filters="sRGB">
<feFlood flood-opacity="0" result="BackgroundImageFix"/>
<feColorMatrix in="SourceAlpha" type="matrix" values="0 0 0 0 0 0 0 0 0 0 0 0 0 0 0 0 0 0 127 0"/>
<feOffset dx="34" dy="50"/>
<feGaussianBlur stdDeviation="30"/>
<feColorMatrix type="matrix" values="0 0 0 0 0.129412 0 0 0 0 0.145098 0 0 0 0 0.235294 0 0 0 0.24 0"/>
<feBlend mode="multiply" in2="BackgroundImageFix" result="effect1_dropShadow"/>
<feBlend mode="normal" in="SourceGraphic" in2="effect1_dropShadow" result="shape"/>
<feColorMatrix in="SourceAlpha" type="matrix" values="0 0 0 0 0 0 0 0 0 0 0 0 0 0 0 0 0 0 127 0" result="hardAlpha"/>
<feOffset dx="-1" dy="-1"/>
<feGaussianBlur stdDeviation="2"/>
<feComposite in2="hardAlpha" operator="arithmetic" k2="-1" k3="1"/>
<feColorMatrix type="matrix" values="0 0 0 0 0.324479 0 0 0 0 0.360489 0 0 0 0 0.533333 0 0 0 0.12 0"/>
<feBlend mode="screen" in2="shape" result="effect2_innerShadow"/>
<feColorMatrix in="SourceAlpha" type="matrix" values="0 0 0 0 0 0 0 0 0 0 0 0 0 0 0 0 0 0 127 0" result="hardAlpha"/>
<feOffset dx="1" dy="1"/>
<feGaussianBlur stdDeviation="0.5"/>
<feComposite in2="hardAlpha" operator="arithmetic" k2="-1" k3="1"/>
<feColorMatrix type="matrix" values="0 0 0 0 0.147813 0 0 0 0 0.191927 0 0 0 0 0.4125 0 0 0 0.05 0"/>
<feBlend mode="multiply" in2="effect2_innerShadow" result="effect3_innerShadow"/>
</filter>
<filter id="filter1_di" x="80.8965" y="185.363" width="179.206" height="106.001" filterUnits="userSpaceOnUse" color-interpolation-filters="sRGB">
<feFlood flood-opacity="0" result="BackgroundImageFix"/>
<feColorMatrix in="SourceAlpha" type="matrix" values="0 0 0 0 0 0 0 0 0 0 0 0 0 0 0 0 0 0 127 0"/>
<feOffset dx="1" dy="1"/>
<feGaussianBlur stdDeviation="0.5"/>
<feColorMatrix type="matrix" values="0 0 0 0 0.35155 0 0 0 0 0.378565 0 0 0 0 0.554167 0 0 0 0.81 0"/>
<feBlend mode="normal" in2="BackgroundImageFix" result="effect1_dropShadow"/>
<feBlend mode="normal" in="SourceGraphic" in2="effect1_dropShadow" result="shape"/>
<feColorMatrix in="SourceAlpha" type="matrix" values="0 0 0 0 0 0 0 0 0 0 0 0 0 0 0 0 0 0 127 0" result="hardAlpha"/>
<feOffset dx="1" dy="1"/>
<feGaussianBlur stdDeviation="0.5"/>
<feComposite in2="hardAlpha" operator="arithmetic" k2="-1" k3="1"/>
<feColorMatrix type="matrix" values="0 0 0 0 0.203194 0 0 0 0 0.222271 0 0 0 0 0.320833 0 0 0 1 0"/>
<feBlend mode="normal" in2="shape" result="effect2_innerShadow"/>
</filter>
<filter id="filter2_di" x="74.8965" y="195.755" width="179.206" height="106.001" filterUnits="userSpaceOnUse" color-interpolation-filters="sRGB">
<feFlood flood-opacity="0" result="BackgroundImageFix"/>
<feColorMatrix in="SourceAlpha" type="matrix" values="0 0 0 0 0 0 0 0 0 0 0 0 0 0 0 0 0 0 127 0"/>
<feOffset dx="1" dy="1"/>
<feGaussianBlur stdDeviation="0.5"/>
<feColorMatrix type="matrix" values="0 0 0 0 0.35155 0 0 0 0 0.378565 0 0 0 0 0.554167 0 0 0 0.81 0"/>
<feBlend mode="normal" in2="BackgroundImageFix" result="effect1_dropShadow"/>
<feBlend mode="normal" in="SourceGraphic" in2="effect1_dropShadow" result="shape"/>
<feColorMatrix in="SourceAlpha" type="matrix" values="0 0 0 0 0 0 0 0 0 0 0 0 0 0 0 0 0 0 127 0" result="hardAlpha"/>
<feOffset dx="1" dy="1"/>
<feGaussianBlur stdDeviation="0.5"/>
<feComposite in2="hardAlpha" operator="arithmetic" k2="-1" k3="1"/>
<feColorMatrix type="matrix" values="0 0 0 0 0.203194 0 0 0 0 0.222271 0 0 0 0 0.320833 0 0 0 1 0"/>
<feBlend mode="normal" in2="shape" result="effect2_innerShadow"/>
</filter>
<filter id="filter3_di" x="68.8965" y="206.148" width="133.306" height="79.5007" filterUnits="userSpaceOnUse" color-interpolation-filters="sRGB">
<feFlood flood-opacity="0" result="BackgroundImageFix"/>
<feColorMatrix in="SourceAlpha" type="matrix" values="0 0 0 0 0 0 0 0 0 0 0 0 0 0 0 0 0 0 127 0"/>
<feOffset dx="1" dy="1"/>
<feGaussianBlur stdDeviation="0.5"/>
<feColorMatrix type="matrix" values="0 0 0 0 0.35155 0 0 0 0 0.378565 0 0 0 0 0.554167 0 0 0 0.81 0"/>
<feBlend mode="normal" in2="BackgroundImageFix" result="effect1_dropShadow"/>
<feBlend mode="normal" in="SourceGraphic" in2="effect1_dropShadow" result="shape"/>
<feColorMatrix in="SourceAlpha" type="matrix" values="0 0 0 0 0 0 0 0 0 0 0 0 0 0 0 0 0 0 127 0" result="hardAlpha"/>
<feOffset dx="1" dy="1"/>
<feGaussianBlur stdDeviation="0.5"/>
<feComposite in2="hardAlpha" operator="arithmetic" k2="-1" k3="1"/>
<feColorMatrix type="matrix" values="0 0 0 0 0.203194 0 0 0 0 0.222271 0 0 0 0 0.320833 0 0 0 1 0"/>
<feBlend mode="normal" in2="shape" result="effect2_innerShadow"/>
</filter>
<filter id="filter4_dd" x="38.9443" y="203.052" width="47.9105" height="75.6551" filterUnits="userSpaceOnUse" color-interpolation-filters="sRGB">
<feFlood flood-opacity="0" result="BackgroundImageFix"/>
<feColorMatrix in="SourceAlpha" type="matrix" values="0 0 0 0 0 0 0 0 0 0 0 0 0 0 0 0 0 0 127 0"/>
<feOffset dy="-12"/>
<feGaussianBlur stdDeviation="8"/>
<feColorMatrix type="matrix" values="0 0 0 0 0.7 0 0 0 0 0.303333 0 0 0 0 0.303333 0 0 0 0.2 0"/>
<feBlend mode="normal" in2="BackgroundImageFix" result="effect1_dropShadow"/>
<feColorMatrix in="SourceAlpha" type="matrix" values="0 0 0 0 0 0 0 0 0 0 0 0 0 0 0 0 0 0 127 0"/>
<feOffset dy="16"/>
<feGaussianBlur stdDeviation="8"/>
<feColorMatrix type="matrix" values="0 0 0 0 0.13875 0 0 0 0 0.168501 0 0 0 0 0.308333 0 0 0 0.24 0"/>
<feBlend mode="normal" in2="effect1_dropShadow" result="effect2_dropShadow"/>
<feBlend mode="normal" in="SourceGraphic" in2="effect2_dropShadow" result="shape"/>
</filter>
<filter id="filter5_dd" x="59.7285" y="215.052" width="47.9105" height="75.6551" filterUnits="userSpaceOnUse" color-interpolation-filters="sRGB">
<feFlood flood-opacity="0" result="BackgroundImageFix"/>
<feColorMatrix in="SourceAlpha" type="matrix" values="0 0 0 0 0 0 0 0 0 0 0 0 0 0 0 0 0 0 127 0"/>
<feOffset dy="-12"/>
<feGaussianBlur stdDeviation="8"/>
<feColorMatrix type="matrix" values="0 0 0 0 0.7 0 0 0 0 0.303333 0 0 0 0 0.303333 0 0 0 0.2 0"/>
<feBlend mode="normal" in2="BackgroundImageFix" result="effect1_dropShadow"/>
<feColorMatrix in="SourceAlpha" type="matrix" values="0 0 0 0 0 0 0 0 0 0 0 0 0 0 0 0 0 0 127 0"/>
<feOffset dy="16"/>
<feGaussianBlur stdDeviation="8"/>
<feColorMatrix type="matrix" values="0 0 0 0 0.13875 0 0 0 0 0.168501 0 0 0 0 0.308333 0 0 0 0.24 0"/>
<feBlend mode="normal" in2="effect1_dropShadow" result="effect2_dropShadow"/>
<feBlend mode="normal" in="SourceGraphic" in2="effect2_dropShadow" result="shape"/>
</filter>
<filter id="filter6_dd" x="80.5137" y="227.052" width="47.9105" height="75.6551" filterUnits="userSpaceOnUse" color-interpolation-filters="sRGB">
<feFlood flood-opacity="0" result="BackgroundImageFix"/>
<feColorMatrix in="SourceAlpha" type="matrix" values="0 0 0 0 0 0 0 0 0 0 0 0 0 0 0 0 0 0 127 0"/>
<feOffset dy="-12"/>
<feGaussianBlur stdDeviation="8"/>
<feColorMatrix type="matrix" values="0 0 0 0 0.7 0 0 0 0 0.303333 0 0 0 0 0.303333 0 0 0 0.2 0"/>
<feBlend mode="normal" in2="BackgroundImageFix" result="effect1_dropShadow"/>
<feColorMatrix in="SourceAlpha" type="matrix" values="0 0 0 0 0 0 0 0 0 0 0 0 0 0 0 0 0 0 127 0"/>
<feOffset dy="16"/>
<feGaussianBlur stdDeviation="8"/>
<feColorMatrix type="matrix" values="0 0 0 0 0.13875 0 0 0 0 0.168501 0 0 0 0 0.308333 0 0 0 0.24 0"/>
<feBlend mode="normal" in2="effect1_dropShadow" result="effect2_dropShadow"/>
<feBlend mode="normal" in="SourceGraphic" in2="effect2_dropShadow" result="shape"/>
</filter>
<filter id="filter7_d" x="101.298" y="239.052" width="47.9105" height="47.6551" filterUnits="userSpaceOnUse" color-interpolation-filters="sRGB">
<feFlood flood-opacity="0" result="BackgroundImageFix"/>
<feColorMatrix in="SourceAlpha" type="matrix" values="0 0 0 0 0 0 0 0 0 0 0 0 0 0 0 0 0 0 127 0"/>
<feOffset dy="-12"/>
<feGaussianBlur stdDeviation="8"/>
<feColorMatrix type="matrix" values="0 0 0 0 0.7 0 0 0 0 0.303333 0 0 0 0 0.303333 0 0 0 0.2 0"/>
<feBlend mode="normal" in2="BackgroundImageFix" result="effect1_dropShadow"/>
<feBlend mode="normal" in="SourceGraphic" in2="effect1_dropShadow" result="shape"/>
</filter>
<filter id="filter8_d" x="122.083" y="251.052" width="47.9105" height="47.6551" filterUnits="userSpaceOnUse" color-interpolation-filters="sRGB">
<feFlood flood-opacity="0" result="BackgroundImageFix"/>
<feColorMatrix in="SourceAlpha" type="matrix" values="0 0 0 0 0 0 0 0 0 0 0 0 0 0 0 0 0 0 127 0"/>
<feOffset dy="-12"/>
<feGaussianBlur stdDeviation="8"/>
<feColorMatrix type="matrix" values="0 0 0 0 0.7 0 0 0 0 0.303333 0 0 0 0 0.303333 0 0 0 0.2 0"/>
<feBlend mode="normal" in2="BackgroundImageFix" result="effect1_dropShadow"/>
<feBlend mode="normal" in="SourceGraphic" in2="effect1_dropShadow" result="shape"/>
</filter>
<linearGradient id="paint0_linear" x1="249.86" y1="-30.4124" x2="407.705" y2="266.956" gradientUnits="userSpaceOnUse">
<stop stop-color="#4F5780"/>
<stop offset="1" stop-color="#404669"/>
</linearGradient>
<linearGradient id="paint1_linear" x1="264.854" y1="17.3058" x2="313.312" y2="296.187" gradientUnits="userSpaceOnUse">
<stop stop-color="#5F6791" stop-opacity="0.57"/>
<stop offset="1" stop-color="#272C43" stop-opacity="0.45"/>
</linearGradient>
<linearGradient id="paint2_linear" x1="59.8362" y1="227.206" x2="74.0128" y2="238.364" gradientUnits="userSpaceOnUse">
<stop stop-color="#FF856A"/>
<stop offset="1" stop-color="#FFBF84"/>
</linearGradient>
<linearGradient id="paint3_linear" x1="80.6204" y1="239.206" x2="94.797" y2="250.364" gradientUnits="userSpaceOnUse">
<stop stop-color="#FF856A"/>
<stop offset="1" stop-color="#FFBF84"/>
</linearGradient>
<linearGradient id="paint4_linear" x1="101.406" y1="251.206" x2="115.582" y2="262.364" gradientUnits="userSpaceOnUse">
<stop stop-color="#FF856A"/>
<stop offset="1" stop-color="#FFBF84"/>
</linearGradient>
<linearGradient id="paint5_linear" x1="122.19" y1="263.206" x2="136.366" y2="274.364" gradientUnits="userSpaceOnUse">
<stop stop-color="#FF856A"/>
<stop offset="1" stop-color="#FFBF84"/>
</linearGradient>
<linearGradient id="paint6_linear" x1="142.975" y1="275.206" x2="157.151" y2="286.364" gradientUnits="userSpaceOnUse">
<stop stop-color="#FF856A"/>
<stop offset="1" stop-color="#FFBF84"/>
</linearGradient>
</defs>
</svg>
