<svg width="16" height="15" viewBox="0 0 16 15" fill="none" xmlns="http://www.w3.org/2000/svg">
<path fill-rule="evenodd" clip-rule="evenodd" d="M3.90556 5.00354V14.5623H0.690081V5.00354H3.90556ZM4.11702 2.04716C4.11702 2.96446 3.41911 3.69846 2.2978 3.69846H2.29774H2.27685C1.19777 3.69846 0.5 2.96446 0.5 2.04716C0.5 1.10923 1.21916 0.39559 2.31908 0.39559C3.41911 0.39559 4.09613 1.10923 4.11702 2.04716ZM8.90023 14.5623H5.68487C5.68487 14.5623 5.72706 5.90047 5.68487 5.00354H8.90032V6.35688C9.32764 5.70554 10.0924 4.77924 11.7981 4.77924C13.9137 4.77924 15.5 6.14542 15.5 9.08142V14.5623H12.2848V9.44857C12.2848 8.16357 11.8194 7.28701 10.6558 7.28701C9.76756 7.28701 9.23848 7.87817 9.00603 8.44897C8.92113 8.65319 8.90023 8.93858 8.90023 9.22426V14.5623ZM8.90032 6.35688V6.3898H8.87884C8.8859 6.37891 8.89306 6.36793 8.90032 6.35688Z" fill="#F0F3FF"/>
</svg>
