<svg width="22" height="21" viewBox="0 0 22 21" fill="none" xmlns="http://www.w3.org/2000/svg">
<path d="M9.59193 1.01863C10.0358 -0.339543 11.9638 -0.339543 12.4062 1.01863L13.9894 5.87324C14.0862 6.16889 14.2742 6.42651 14.5267 6.60925C14.7791 6.792 15.0831 6.89053 15.3951 6.89076H20.5177C21.9514 6.89076 22.5463 8.71935 21.3877 9.55991L17.2447 12.5594C16.9917 12.7423 16.8033 13.0003 16.7066 13.2965C16.6098 13.5927 16.6096 13.9118 16.7061 14.2081L18.2893 19.0627C18.7332 20.4209 17.1722 21.5519 16.0106 20.7114L11.8676 17.7119C11.6149 17.529 11.3106 17.4306 10.9983 17.4306C10.686 17.4306 10.3818 17.529 10.129 17.7119L5.98602 20.7114C4.82598 21.5519 3.26643 20.4209 3.70884 19.0627L5.29207 14.2081C5.3885 13.9118 5.38833 13.5927 5.29157 13.2965C5.19482 13.0003 5.00645 12.7423 4.75347 12.5594L0.611935 9.56139C-0.54663 8.72083 0.0496688 6.89224 1.48197 6.89224H6.60303C6.91531 6.89232 7.21961 6.79393 7.47236 6.61116C7.72512 6.42839 7.91338 6.17061 8.01018 5.87471L9.59341 1.0201L9.59193 1.01863Z" fill="url(#paint0_linear)"/>
<defs>
<linearGradient id="paint0_linear" x1="-0.0696125" y1="0.0479344" x2="24.4833" y2="3.58911" gradientUnits="userSpaceOnUse">
<stop stop-color="#FF856A"/>
<stop offset="1" stop-color="#FFBF84"/>
</linearGradient>
</defs>
</svg>
