<svg width="16" height="16" viewBox="0 0 16 16" fill="none" xmlns="http://www.w3.org/2000/svg">
<path d="M6.97595 0.74082C7.29878 -0.24694 8.70095 -0.24694 9.02271 0.74082L10.1741 4.27145C10.2445 4.48647 10.3812 4.67382 10.5648 4.80673C10.7485 4.93964 10.9695 5.0113 11.1964 5.01146H14.9219C15.9647 5.01146 16.3973 6.34135 15.5547 6.95266L12.5416 9.1341C12.3576 9.26712 12.2206 9.45479 12.1502 9.67019C12.0799 9.88559 12.0797 10.1177 12.1499 10.3331L13.3013 13.8638C13.6241 14.8515 12.4888 15.6741 11.6441 15.0628L8.631 12.8814C8.44721 12.7484 8.22591 12.6768 7.99879 12.6768C7.77167 12.6768 7.55037 12.7484 7.36657 12.8814L4.35347 15.0628C3.5098 15.6741 2.37558 14.8515 2.69734 13.8638L3.84877 10.3331C3.91891 10.1177 3.91878 9.88559 3.84842 9.67019C3.77805 9.45479 3.64105 9.26712 3.45707 9.1341L0.445044 6.95374C-0.397549 6.34242 0.0361228 5.01254 1.0778 5.01254H4.80221C5.02932 5.0126 5.25062 4.94104 5.43445 4.80812C5.61827 4.67519 5.75518 4.48771 5.82559 4.27252L6.97702 0.741893L6.97595 0.74082Z" fill="url(#paint0_linear)"/>
<defs>
<linearGradient id="paint0_linear" x1="-0.0506273" y1="0.0348614" x2="17.806" y2="2.61026" gradientUnits="userSpaceOnUse">
<stop stop-color="#FF856A"/>
<stop offset="1" stop-color="#FFBF84"/>
</linearGradient>
</defs>
</svg>
