<svg width="196" height="77" viewBox="0 0 196 77" fill="none" xmlns="http://www.w3.org/2000/svg">
<g filter="url(#filter0_dd)">
<path fill-rule="evenodd" clip-rule="evenodd" d="M42.0437 44.1574H35.281V43.6618H35.6296C36.0781 43.6618 36.343 43.4477 36.343 42.9013V32.1921C36.343 31.6467 36.0781 31.4322 35.6296 31.4322H35.2657V30.937H42.0437V35.4827H41.5973V35.4309C41.5973 32.7385 40.7765 31.5131 39.2765 31.5131H38.1644V37.0016H38.448C39.2918 37.0016 39.6894 36.1903 39.6894 34.4888V34.44H40.1379V40.158H39.6894V40.1253C39.6894 38.4556 39.3081 37.5951 38.448 37.5951H38.1644V43.5813H39.2102C40.6919 43.5813 41.5973 42.1428 41.5973 39.677V39.6289H42.0437V44.1574Z" fill="#F0F3FF"/>
<path fill-rule="evenodd" clip-rule="evenodd" d="M34.8345 44.1574H30.8735V43.6618H31.2048C31.6513 43.6618 31.9334 43.4477 31.9334 42.9013V37.7124H29.0327V42.9013C29.0327 43.4477 29.3139 43.6618 29.7624 43.6618H30.111V44.1574H26.1327V43.6618H26.4803C26.9298 43.6618 27.2103 43.4477 27.2103 42.9013V32.1921C27.2103 31.6467 26.9298 31.4322 26.4803 31.4322H26.1327V30.937H30.111V31.4322H29.7624C29.3139 31.4322 29.0327 31.6467 29.0327 32.1921V37.0016H31.9334V32.1921C31.9334 31.6467 31.6513 31.4322 31.2048 31.4322H30.8735V30.937H34.8345V31.4322H34.486C34.0385 31.4322 33.756 31.6467 33.756 32.1921V42.9013C33.756 43.4477 34.0385 43.6618 34.486 43.6618H34.8345V44.1574Z" fill="#F0F3FF"/>
<path fill-rule="evenodd" clip-rule="evenodd" d="M25.9176 35.5135H25.4701V35.4643C25.4701 33.3316 24.6598 31.5131 23.713 31.5131H23.3163V42.9013C23.3163 43.4477 23.5958 43.6618 24.0453 43.6618H24.4589V44.1574H20.3821V43.6618H20.7641C21.2106 43.6618 21.4928 43.4477 21.4928 42.9013V31.5131H21.1442C20.1975 31.5131 19.3871 33.2174 19.3871 35.4643V35.5135H18.9396V30.937H25.9176V35.5135Z" fill="#F0F3FF"/>
<path fill-rule="evenodd" clip-rule="evenodd" d="M75.779 44.1574H69.0995V43.6618H69.5642C70.0117 43.6618 70.2942 43.4633 70.2942 42.9159V32.1754C70.2942 31.6263 70.0117 31.4322 69.5642 31.4322H69.1994V30.937H73.1451V31.4322H72.8291C72.3806 31.4322 72.1004 31.6263 72.1004 32.1754V43.5813H73.0767C74.864 43.5813 75.3305 41.5456 75.3305 39.6625V39.6127H75.779V44.1574Z" fill="#F0F3FF"/>
<path fill-rule="evenodd" clip-rule="evenodd" d="M68.8691 44.1574H62.1886L62.4528 43.6618H62.6534C63.1019 43.6618 63.3824 43.4633 63.3824 42.9159V32.1754C63.3824 31.6263 63.1019 31.4322 62.6534 31.4322H62.2905V30.937H66.2343V31.4322H65.9182C65.4707 31.4322 65.1886 31.6263 65.1886 32.1754V43.5813H66.1679C67.9531 43.5813 68.4206 41.564 68.4206 39.6443V39.5945H68.8691V44.1574Z" fill="#F0F3FF"/>
<path fill-rule="evenodd" clip-rule="evenodd" d="M56.8855 31.4322H56.7521C56.1152 31.4322 55.787 31.5495 55.5593 32.6375L53.1396 44.2563H52.3933L50.8859 36.6551H50.8697L49.3283 44.2563H48.5831L46.2122 32.3408C46.0607 31.5803 45.8405 31.4322 45.1675 31.4322H45.1177V30.937H48.7148V31.4322H48.6484C48.1318 31.4322 48.0021 31.6128 48.0021 31.9597C48.0021 32.0403 48.0004 32.1623 48.0194 32.2571L49.5271 40.3215H49.5597L50.5363 35.0199L50.0234 32.3408C49.894 31.6802 49.7429 31.4322 49.2131 31.4322H49.1284V30.937H52.6748V31.4322H52.6095C51.9479 31.4322 51.8134 31.6541 51.8134 32.1084C51.8134 32.2314 51.8344 32.3685 51.8642 32.5213L53.371 40.2235H53.4055L54.8314 32.5067C54.8507 32.3946 54.8632 32.29 54.8632 32.1921C54.8632 31.664 54.6874 31.4322 53.9845 31.4322H53.8856V30.937H56.8855V31.4322Z" fill="#F0F3FF"/>
<path fill-rule="evenodd" clip-rule="evenodd" d="M62.5037 44.1574H58.7415V43.6618H58.8404C59.5271 43.6618 59.7354 43.4805 59.7354 43.0991C59.7354 42.9927 59.714 42.8484 59.6862 42.7028L59.3712 40.9512H57.1179L56.8018 42.7028C56.774 42.863 56.752 42.9829 56.752 43.0991C56.752 43.5104 56.9122 43.6618 57.5989 43.6618H57.6639V44.1574H54.8313V43.6618H54.9773C55.5593 43.6618 55.8916 43.5266 56.0393 42.7526L58.3438 30.8052H59.187L61.5605 42.7028C61.7008 43.4209 62.0724 43.6618 62.3885 43.6618H62.5037V44.1574ZM59.2387 40.3397L58.2432 34.4888H58.2113L57.2175 40.3397H59.2387Z" fill="#F0F3FF"/>
<path fill-rule="evenodd" clip-rule="evenodd" d="M122.665 35.5135H122.218V35.4643C122.218 33.3316 121.41 31.5131 120.462 31.5131H120.065V42.9013C120.065 43.4477 120.345 43.6618 120.795 43.6618H121.206V44.1574H117.131V43.6618H117.512C117.96 43.6618 118.242 43.4477 118.242 42.9013V31.5131H117.893C116.945 31.5131 116.137 33.2174 116.137 35.4643V35.5135H115.689V30.937H122.665V35.5135Z" fill="#F0F3FF"/>
<path fill-rule="evenodd" clip-rule="evenodd" d="M115.109 44.1574H108.346V43.6618H108.695C109.143 43.6618 109.407 43.4477 109.407 42.9013V32.1921C109.407 31.6467 109.143 31.4322 108.695 31.4322H108.33V30.937H115.109V35.4827H114.661V35.4309C114.661 32.7385 113.84 31.5131 112.341 31.5131H111.231V37.0016H111.512C112.357 37.0016 112.756 36.1903 112.756 34.4888V34.44H113.205V40.158H112.756V40.1253C112.756 38.4556 112.375 37.5951 111.512 37.5951H111.231V43.5813H112.275C113.756 43.5813 114.661 42.1428 114.661 39.677V39.6289H115.109V44.1574Z" fill="#F0F3FF"/>
<path fill-rule="evenodd" clip-rule="evenodd" d="M107.883 44.1574H101.122V43.6618H101.47C101.916 43.6618 102.18 43.4477 102.18 42.9013V32.1921C102.18 31.6467 101.916 31.4322 101.47 31.4322H101.105V30.937H107.883V35.4827H107.435V35.4309C107.435 32.7385 106.614 31.5131 105.114 31.5131H104.005V37.0016H104.288C105.13 37.0016 105.529 36.1903 105.529 34.4888V34.44H105.975V40.158H105.529V40.1253C105.529 38.4556 105.15 37.5951 104.287 37.5951H104.005V43.5813H105.048C106.531 43.5813 107.435 42.1428 107.435 39.677V39.6289H107.883V44.1574Z" fill="#F0F3FF"/>
<path fill-rule="evenodd" clip-rule="evenodd" d="M92.6207 35.5135H92.1701V35.4643C92.1701 33.3316 91.3629 31.5131 90.414 31.5131H90.0164V42.9013C90.0164 43.4477 90.2979 43.6618 90.7464 43.6618H91.1593V44.1574H87.0838V43.6618H87.4652C87.9117 43.6618 88.1929 43.4477 88.1929 42.9013V31.5131H87.8453C86.8975 31.5131 86.0882 33.2174 86.0882 35.4643V35.5135H85.6417V30.937H92.6207V35.5135Z" fill="#F0F3FF"/>
<path fill-rule="evenodd" clip-rule="evenodd" d="M85.6244 40.951C85.6244 43.29 84.2031 44.2561 82.5418 44.2561C81.3359 44.2561 80.7837 43.8605 80.2058 43.4632L79.8897 44.1572H79.5421V39.6125H79.9886V39.745C79.9886 42.935 81.599 43.6616 82.4093 43.6616C83.6387 43.6616 84.182 42.9561 84.182 41.5638C84.182 40.0418 83.2247 38.9338 81.844 37.8928C80.5957 36.9517 79.4412 35.7944 79.4412 33.8625C79.4423 31.8727 80.6732 30.8369 82.1424 30.8369C83.3697 30.8369 83.9361 31.3342 84.2647 31.6127L84.596 30.9673H84.9283V35.5306H84.4808V35.3978C84.4808 32.9195 83.7345 31.432 82.2596 31.432C81.3243 31.432 80.8345 32.0878 80.8345 33.1346C80.8345 34.3771 81.5702 35.0842 82.9405 36.1431C84.4557 37.3145 85.6244 38.5486 85.6244 40.951Z" fill="#F0F3FF"/>
<path fill-rule="evenodd" clip-rule="evenodd" d="M101.004 42.355C101.004 43.4644 100.585 44.2563 99.497 44.2563C98.4109 44.2563 97.9498 43.4507 97.8723 41.8095L97.7567 39.3476C97.6944 38.0464 97.1971 37.6961 96.4461 37.6961H95.9671V42.9013C95.9671 43.4477 96.1802 43.6618 96.6288 43.6618H97.0925V44.1574H93.0488V43.6618H93.4309C93.8774 43.6618 94.1599 43.4477 94.1599 42.9013V32.1921C94.1599 31.6467 93.8774 31.4322 93.4309 31.4322H93.0488V30.937H96.6785C98.8699 30.937 100.241 32.0576 100.241 34.1422C100.241 36.3238 98.7192 37.1497 97.3746 37.4146V37.4464C98.4769 37.5636 99.4823 38.3806 99.5457 39.6289L99.6958 42.5202C99.7236 43.0954 99.7953 43.2665 100.061 43.2665C100.39 43.2665 100.457 43.0175 100.457 42.1591V41.6791H101.004V42.355ZM98.336 34.1758C98.336 32.1084 97.5179 31.5131 96.3973 31.5131H95.9671V37.0833H96.4624C97.6332 37.0833 98.336 36.2923 98.336 34.1758Z" fill="#F0F3FF"/>
<path fill-rule="evenodd" clip-rule="evenodd" d="M174.962 44.1574H168.284L168.548 43.6618H168.748C169.195 43.6618 169.477 43.4633 169.477 42.9159V32.1764C169.477 31.629 169.195 31.4322 168.748 31.4322H168.383V30.937H172.326V31.4322H172.011C171.565 31.4322 171.283 31.629 171.283 32.1764V43.5813H172.261C174.049 43.5813 174.515 41.5639 174.515 39.6625V39.6127H174.962V44.1574Z" fill="#F0F3FF"/>
<path fill-rule="evenodd" clip-rule="evenodd" d="M177.268 43.3484C177.268 43.8457 176.898 44.2565 176.502 44.2565C176.107 44.2565 175.741 43.8457 175.741 43.3484C175.741 42.8518 176.107 42.4561 176.502 42.4561C176.898 42.4561 177.268 42.8518 177.268 43.3484Z" fill="#F0F3FF"/>
<path fill-rule="evenodd" clip-rule="evenodd" d="M161.605 31.4322H161.255C160.844 31.4322 160.51 31.7446 160.51 32.3906V44.2075H159.863L155.721 33.7947H155.687V42.7028C155.687 43.3488 156.016 43.6618 156.433 43.6618H156.764V44.1574H153.964V43.6618H154.346C154.76 43.6618 155.091 43.3488 155.091 42.7028V32.2571C155.091 31.7934 154.911 31.4322 154.445 31.4322H153.964V30.937H156.517L159.881 39.4485H159.914V32.3906C159.914 31.7415 159.583 31.4322 159.166 31.4322H158.819V30.937H161.605V31.4322Z" fill="#F0F3FF"/>
<path fill-rule="evenodd" clip-rule="evenodd" d="M146.375 31.4322H145.676C145.262 31.4322 145.014 31.7781 145.014 32.3906V41.1998C145.014 42.9552 144.425 44.2563 142.527 44.2563C140.509 44.2563 139.328 43.0205 139.328 41.1998V32.1921C139.328 31.6467 139.064 31.4322 138.619 31.4322H138.252V30.937H142.132V31.4322H141.881C141.432 31.4322 141.169 31.6467 141.169 32.1921L141.17 41.3152C141.17 42.8074 141.757 43.6618 142.76 43.6618C143.778 43.6618 144.4 42.9358 144.4 41.3152V32.3906C144.4 31.7781 144.168 31.4322 143.755 31.4322H143.374V30.937H146.375V31.4322Z" fill="#F0F3FF"/>
<path fill-rule="evenodd" clip-rule="evenodd" d="M131.39 31.4322H131.059C130.611 31.4322 130.327 31.6467 130.327 32.1921V41.4148C130.327 43.4832 129.027 44.2563 127.364 44.2563C126.171 44.2563 124.978 43.2837 124.978 41.4148C124.978 40.4094 125.605 39.9766 126.1 39.9766C126.623 39.9766 126.998 40.3434 126.998 40.9684C126.998 41.7655 126.531 42.1016 125.921 42.191C125.921 42.8709 126.447 43.6618 127.347 43.6618C128.21 43.6618 128.506 43.1855 128.506 41.7597V32.1921C128.506 31.6467 128.243 31.4322 127.794 31.4322H127.445V30.937H131.39V31.4322Z" fill="#F0F3FF"/>
<path fill-rule="evenodd" clip-rule="evenodd" d="M168.597 44.1574H164.835V43.6618H164.935C165.622 43.6618 165.83 43.4805 165.83 43.0991C165.83 42.9927 165.807 42.8484 165.781 42.7028L165.466 40.9512H163.212L162.896 42.7028C162.868 42.863 162.847 42.9829 162.847 43.0991C162.847 43.5104 163.008 43.6618 163.693 43.6618H163.76V44.1574H160.925V43.6618H161.072C161.651 43.6618 161.986 43.5266 162.134 42.7526L164.439 30.8052H165.283L167.654 42.7028C167.798 43.4209 168.168 43.6618 168.482 43.6618H168.597V44.1574ZM165.334 40.3397L164.34 34.4888H164.307L163.311 40.3397H165.334Z" fill="#F0F3FF"/>
<path fill-rule="evenodd" clip-rule="evenodd" d="M153.93 42.355C153.93 43.4644 153.509 44.2563 152.424 44.2563C151.337 44.2563 150.875 43.4507 150.799 41.8095L150.682 39.3476C150.622 38.04 150.122 37.6961 149.375 37.6961H148.892V42.9013C148.892 43.4477 149.109 43.6618 149.555 43.6618H150.021V44.1574H145.975V43.6618H146.357C146.805 43.6618 147.086 43.4477 147.086 42.9013V32.1921C147.086 31.6467 146.805 31.4322 146.357 31.4322H145.975V30.937H149.604C151.797 30.937 153.167 32.0576 153.167 34.1422C153.167 36.3238 151.647 37.1497 150.299 37.4146V37.4464C151.405 37.5636 152.407 38.3739 152.471 39.6289L152.623 42.5202C152.65 43.0984 152.722 43.2665 152.986 43.2665C153.317 43.2665 153.383 43.0175 153.383 42.1591V41.6791H153.93V42.355ZM151.26 34.1758C151.26 32.1084 150.443 31.5131 149.322 31.5131H148.892V37.0833H149.389C150.56 37.0833 151.26 36.2923 151.26 34.1758Z" fill="#F0F3FF"/>
<path fill-rule="evenodd" clip-rule="evenodd" d="M138.284 37.5143C138.284 41.2697 137.051 44.2561 134.788 44.2561C132.578 44.2561 131.34 41.2697 131.34 37.5143C131.341 33.7559 132.527 30.8369 134.788 30.8369C137.023 30.8369 138.284 33.7559 138.284 37.5143ZM136.229 40.6542V34.4059C136.229 32.1227 135.721 31.432 134.788 31.432C133.855 31.432 133.38 32.0878 133.38 34.4398V40.6352C133.38 42.8418 133.804 43.6616 134.788 43.6616C135.754 43.6616 136.229 42.789 136.229 40.6542Z" fill="#F0F3FF"/>
</g>
<defs>
<filter id="filter0_dd" x="0" y="0" width="196" height="76.8837" filterUnits="userSpaceOnUse" color-interpolation-filters="sRGB">
<feFlood flood-opacity="0" result="BackgroundImageFix"/>
<feColorMatrix in="SourceAlpha" type="matrix" values="0 0 0 0 0 0 0 0 0 0 0 0 0 0 0 0 0 0 127 0"/>
<feOffset dy="-12"/>
<feGaussianBlur stdDeviation="9"/>
<feColorMatrix type="matrix" values="0 0 0 0 0.313726 0 0 0 0 0.345098 0 0 0 0 0.498039 0 0 0 0.8 0"/>
<feBlend mode="normal" in2="BackgroundImageFix" result="effect1_dropShadow"/>
<feColorMatrix in="SourceAlpha" type="matrix" values="0 0 0 0 0 0 0 0 0 0 0 0 0 0 0 0 0 0 127 0"/>
<feOffset dy="16"/>
<feGaussianBlur stdDeviation="8"/>
<feColorMatrix type="matrix" values="0 0 0 0 0.13875 0 0 0 0 0.168501 0 0 0 0 0.308333 0 0 0 0.24 0"/>
<feBlend mode="normal" in2="effect1_dropShadow" result="effect2_dropShadow"/>
<feBlend mode="normal" in="SourceGraphic" in2="effect2_dropShadow" result="shape"/>
</filter>
</defs>
</svg>
