<svg width="163" height="94" viewBox="0 0 163 94" fill="none" xmlns="http://www.w3.org/2000/svg">
<g filter="url(#filter0_dd)">
<path d="M89.6009 30.197C89.6009 30.4504 89.2896 30.563 88.6104 30.563C88.3132 30.563 87.8887 30.6333 87.6765 30.7178C87.4501 30.7882 86.8558 30.9148 86.3463 30.9852C85.8369 31.0556 85.1719 31.1823 84.8606 31.2526C83.87 31.4919 82.7663 31.703 81.8324 31.8156C80.8843 31.9423 80.6579 32.1112 80.7145 32.6741C80.757 32.9838 80.8277 33.0401 81.5069 33.0964C82.4408 33.1808 83.0493 33.7157 83.4455 34.8135C83.7002 35.5313 83.7144 36.052 83.7285 48.2827V61.02L84.153 61.1889C84.3936 61.2875 84.804 61.3719 85.0728 61.386C85.3417 61.386 85.7945 61.4564 86.0633 61.5408C87.3369 61.949 92.9546 62.1319 94.8366 61.8364C96.8176 61.5267 98.4591 60.8371 100.001 59.6548C101.006 58.8948 102.747 56.8681 102.761 56.4459C102.761 56.3192 102.86 56.1362 102.973 56.0377C103.086 55.9392 103.185 55.7562 103.185 55.6295C103.185 55.5029 103.256 55.3199 103.327 55.2495C103.709 54.8695 104.374 51.3087 104.36 49.7746C104.346 48.5783 104.006 46.3686 103.78 45.9463C103.681 45.7774 103.61 45.5522 103.61 45.4397C103.61 45.0315 102.973 43.807 102.308 42.9344C102.082 42.6529 101.912 42.3574 101.912 42.3011C101.898 42.0336 99.6477 40.2743 99.3223 40.2743C99.209 40.2743 99.0392 40.1758 98.9402 40.0632C98.8411 39.9506 98.6289 39.8521 98.4591 39.8521C98.3034 39.838 98.0063 39.7536 97.8082 39.641C97.5534 39.5002 96.9167 39.4439 95.4733 39.4299C93.5064 39.4299 92.9546 39.5143 91.6386 40.0773C91.3839 40.1758 90.9594 40.3025 90.6764 40.3447C90.2236 40.4432 90.167 40.4151 90.082 40.0491C89.983 39.6832 90.2236 33.3638 90.4075 31.0134L90.4924 30H90.0396C89.7566 30 89.6009 30.0704 89.6009 30.197ZM93.0961 41.7522C93.3649 41.8647 93.6762 41.9633 93.7894 41.9633C94.1008 41.9633 95.2045 42.7796 95.6148 43.3285C96.1384 44.0041 96.8176 45.3271 96.8176 45.6508C96.8176 45.8056 96.8884 46.0589 96.9874 46.2278C97.5676 47.2553 97.5535 53.6591 96.9874 54.7288C96.8884 54.8977 96.8176 55.2073 96.8176 55.4325C96.8176 55.6436 96.7186 55.9533 96.6054 56.094C96.4922 56.2488 96.3931 56.474 96.3931 56.6007C96.3931 56.7273 96.2375 57.1214 96.0394 57.4592C95.8554 57.797 95.629 58.2052 95.5582 58.36C95.3318 58.8526 94.5111 59.6548 93.747 60.1052C93.0536 60.5274 92.9546 60.5556 91.7659 60.5134L90.5207 60.4711L90.4358 58.5711C90.0537 50.619 89.9264 42.4418 90.1811 42.1885C90.266 42.0899 92.0914 41.5833 92.4027 41.5551C92.5018 41.541 92.8131 41.6396 93.0961 41.7522ZM18 31.4778C18 32.0549 18.283 32.2519 19.132 32.2519C20.1792 32.2519 21.4244 33.1245 21.8631 34.1942C21.9763 34.4757 22.1744 35.3201 22.3159 36.0661C22.514 37.2483 22.5564 38.5713 22.5423 46.27C22.5423 54.3488 22.514 55.2495 22.2593 56.6007C22.1178 57.417 21.9055 58.2333 21.7923 58.4304C21.1414 59.6126 20.5754 60.0067 19.3018 60.1756C18.3255 60.3023 18 60.5134 18 60.9919C18 61.2734 18.0849 61.4001 18.3255 61.4564C18.4953 61.4986 22.1744 61.5127 26.4902 61.4986L34.3437 61.4564L34.3861 61.0623C34.4569 60.4571 34.2163 60.3023 33.0985 60.1897C32.5466 60.1334 31.924 59.9926 31.7259 59.8659C31.1882 59.5282 30.5938 58.9652 30.5938 58.7681C30.5938 58.6837 30.5089 58.5289 30.3957 58.4444C30.2825 58.3459 30.1693 58.0503 30.1269 57.7548C30.0844 57.4733 29.9854 56.9103 29.9146 56.5162C29.8297 56.1221 29.7165 53.8984 29.6599 51.5902C29.575 47.7619 29.5892 47.3679 29.8014 47.1849C29.9712 47.0441 30.3391 47.016 31.3438 47.0723C33.5371 47.199 34.3154 47.4101 35.0229 48.0153C35.6314 48.5501 36.537 50.1405 36.537 50.6753C36.537 51.365 37.7256 51.7169 37.8813 51.0835C37.9237 50.9005 37.9379 48.6064 37.9237 45.9745L37.8813 41.1892L37.386 41.147C36.8342 41.0907 36.537 41.3721 36.537 41.9633C36.537 42.1603 36.4379 42.4559 36.3247 42.6107C36.2115 42.7514 36.1125 42.9626 36.1125 43.0751C36.1125 43.3003 35.3059 44.3418 34.9097 44.6374C34.0324 45.2848 33.7635 45.3411 31.6693 45.3411C30.4382 45.3411 29.6033 45.2848 29.575 45.2004C29.5043 44.9893 29.7165 33.5045 29.8014 33.2934C29.9146 32.9979 36.7917 33.0119 37.1879 33.3075C37.3294 33.4201 37.5558 33.5186 37.6832 33.5186C37.9379 33.5186 39.169 34.2927 39.6076 34.729C39.9472 35.0668 40.7114 36.052 40.8246 36.3335C40.8812 36.4461 41.0793 36.8261 41.2774 37.1639C41.4755 37.5017 41.6311 37.8676 41.6311 37.9661C41.6311 38.0647 41.7302 38.318 41.8434 38.5432C41.9566 38.7543 42.084 39.1062 42.1264 39.3173C42.2255 39.8099 42.7207 39.9506 43.315 39.6551L43.7537 39.4158V30.9852H18V31.4778ZM50.5176 39.0921C50.4751 39.1343 49.9657 39.2469 49.3997 39.3595C45.2112 40.1195 42.4094 42.8077 41.0934 47.3116C40.768 48.4516 40.6831 52.9273 40.9944 53.6732C41.1076 53.9688 41.2066 54.3628 41.2066 54.5599C41.2066 54.8836 41.433 55.5029 41.8575 56.3614C41.9707 56.5866 42.0556 56.8259 42.0556 56.8962C42.0556 57.1777 43.7395 59.2185 44.4754 59.8378C45.1829 60.4289 46.414 61.1045 47.5743 61.5267C49.3289 62.1601 53.8995 62.1601 55.64 61.5127C58.9512 60.3023 60.7483 58.557 62.2058 55.151C62.3331 54.8554 62.4322 54.4754 62.4322 54.3065C62.4464 54.1377 62.5313 53.8421 62.6445 53.645C62.8001 53.3776 62.8426 52.6458 62.8426 50.4079C62.8426 48.1701 62.8001 47.4382 62.6445 47.1708C62.5313 46.9738 62.4464 46.6782 62.4322 46.5093C62.4322 46.1997 62.1916 45.5663 61.7813 44.7359C61.6681 44.5107 61.5832 44.2715 61.5832 44.2011C61.5832 43.8492 59.7861 41.7522 58.9937 41.1751C57.805 40.3025 55.923 39.4299 55.2297 39.4299C55.0174 39.4299 54.5221 39.3313 54.1401 39.2188C53.475 39.0217 50.6874 38.9091 50.5176 39.0921ZM52.3571 40.5699C53.7722 40.9077 55.2721 43.1033 55.6542 45.4115C55.7108 45.7915 55.824 46.4249 55.9089 46.8189C56.0928 47.7338 56.0928 54.2221 55.9089 55.0525C55.8381 55.4044 55.7249 55.9955 55.6542 56.3896C55.3995 57.8252 54.791 59.1059 53.9986 59.88C53.2911 60.5837 52.6118 60.7526 51.3525 60.5978C50.7723 60.5134 50.56 60.3867 50.0082 59.8378C49.6403 59.4719 49.2299 58.9511 49.1025 58.6696C48.4233 57.2763 48.1403 56.4459 47.9847 55.4747C47.9139 55.0525 47.8007 54.3769 47.73 53.9969C47.546 53.0821 47.5601 47.6212 47.73 46.6078C47.8007 46.1856 47.8998 45.4819 47.9564 45.0596C47.9988 44.6374 48.1262 44.1589 48.2252 44.0041C48.3384 43.8492 48.4233 43.5678 48.4233 43.3566C48.4233 43.1455 48.5224 42.9063 48.6356 42.8077C48.7488 42.7092 48.8478 42.5122 48.8478 42.3714C48.8478 41.9633 50.1355 40.781 50.7723 40.598C51.5223 40.401 51.6072 40.3869 52.3571 40.5699Z" fill="#648FFF"/>
<path d="M72.327 39.0896C72.2143 39.16 71.665 39.2869 71.1298 39.3715C69.9045 39.5689 68.7919 39.7804 67.9609 39.9778C67.6088 40.0624 66.9751 40.1752 66.5525 40.2175C66.13 40.2738 65.6371 40.3866 65.4681 40.4853C65.2991 40.584 64.8484 40.6545 64.4822 40.6545C63.609 40.6545 63.271 40.8801 63.3414 41.4299C63.3837 41.8247 63.4259 41.8529 64.0738 41.8952C64.947 41.9516 65.6934 42.5014 65.9751 43.2769C66.2709 44.1228 66.4258 48.7754 66.3272 53.7522C66.2427 57.6012 66.2004 58.2497 65.9751 58.7573C65.6089 59.6032 65.0456 60.0685 64.2709 60.1813C63.4963 60.294 63.271 60.5055 63.3414 61.0554L63.3837 61.4501H69.989C76.1296 61.4501 76.6085 61.436 76.7493 61.1964C76.862 61.0272 76.862 60.8862 76.7493 60.717C76.5662 60.435 76.1296 60.294 74.9747 60.1813C73.51 60.0262 73.1157 59.3494 72.8621 56.5156C72.665 54.2598 72.6368 47.7744 72.8058 46.5055C72.9748 45.3635 73.0452 45.2648 73.9466 44.8277C74.6086 44.5176 74.9184 44.4612 75.9606 44.4612C76.7775 44.4612 77.3267 44.5317 77.5943 44.6727C77.8056 44.7854 78.0873 44.8841 78.214 44.8841C78.3267 44.8841 78.538 44.9687 78.6506 45.0815C78.7774 45.1802 79.045 45.3071 79.2562 45.3635C79.5802 45.434 79.6506 45.3776 79.9182 44.8418C80.0872 44.5035 80.214 44.1369 80.214 44.01C80.214 43.8831 80.3125 43.7139 80.4252 43.6152C80.5379 43.5166 80.6365 43.3051 80.6365 43.1359C80.6365 42.9667 80.7351 42.6988 80.8477 42.5437C80.9604 42.4028 81.059 42.1631 81.059 42.0362C81.059 41.9093 81.1435 41.6273 81.2562 41.4017C81.8195 40.2316 81.9322 39.9637 81.8758 39.7381C81.7491 39.1037 79.0732 38.7371 77.8479 39.1882C76.0169 39.8509 74.8621 40.7391 73.848 42.29C73.5241 42.7834 73.172 43.1923 73.0734 43.1923C72.9466 43.1923 72.8903 42.6706 72.8621 41.1198C72.834 39.9073 72.7636 39.0332 72.6791 39.0191C72.6086 38.9909 72.4396 39.0332 72.327 39.0896ZM115.818 39.0332C115.776 39.0755 115.269 39.2023 114.705 39.3151C113.663 39.4984 112.86 39.7381 112.466 39.9637C112.353 40.0342 112.156 40.1329 112.044 40.1752C111.931 40.2175 111.776 40.2879 111.692 40.3161C110.846 40.6545 108.424 42.8116 108.086 43.5448C108.016 43.6998 107.833 44.01 107.678 44.2497C107.523 44.4753 107.368 44.7713 107.311 44.8841C107.269 44.9969 107.142 45.2648 107.03 45.4763C106.917 45.6737 106.833 45.9556 106.833 46.1107C106.833 46.2517 106.734 46.4914 106.621 46.6324C106.509 46.7875 106.41 47.1117 106.41 47.3373C106.41 47.577 106.311 48.0845 106.199 48.4652C105.945 49.2829 105.917 51.9899 106.142 52.8499C106.227 53.1601 106.34 53.7099 106.396 54.0906C106.452 54.4572 106.579 54.8378 106.664 54.9224C106.762 55.0211 106.833 55.2326 106.833 55.4018C106.833 55.571 106.931 55.7825 107.044 55.8811C107.156 55.9798 107.255 56.1631 107.255 56.3041C107.255 56.4451 107.354 56.6284 107.466 56.7271C107.579 56.8258 107.678 56.9667 107.678 57.0372C107.678 57.2346 108.466 58.2215 109.227 58.9829C110.058 59.8147 111.227 60.7029 111.762 60.9003C111.875 60.9426 112.17 61.0554 112.396 61.1541C113.917 61.8026 114.973 61.9859 117.114 62C118.733 62 120.255 61.8167 120.916 61.5488C121.114 61.4642 121.621 61.2669 122.043 61.0977C123.1 60.6606 124.184 59.9557 125.085 59.0957C125.93 58.292 126.071 57.8127 125.522 57.5589C125.24 57.432 125.071 57.4884 124.395 57.9114C123.959 58.1933 123.494 58.4189 123.353 58.4189C123.212 58.433 122.945 58.5176 122.747 58.6304C122.494 58.7714 121.888 58.8278 120.635 58.8419C118.832 58.8419 118.226 58.7291 116.903 58.1087C115.705 57.573 114.156 55.9657 113.663 54.7532C112.987 53.1319 112.748 52.1168 112.748 50.8197V49.5367L119.48 49.5085L126.198 49.4662L126.24 48.578C126.268 48.0563 126.184 47.3655 126.057 46.9285C125.944 46.5196 125.846 45.9979 125.846 45.7724C125.846 45.5468 125.747 45.2366 125.635 45.0815C125.522 44.9405 125.423 44.715 125.423 44.5881C125.423 44.4612 125.268 44.0805 125.071 43.7421C124.874 43.4038 124.677 43.0231 124.621 42.9103C124.452 42.5296 123.677 41.585 123.184 41.148C122.916 40.9083 122.607 40.6122 122.48 40.4712C122.367 40.3443 122.156 40.2316 122.043 40.2316C121.916 40.2316 121.747 40.1611 121.649 40.0624C121.438 39.8509 120.635 39.5548 119.508 39.2869C118.55 39.0614 115.973 38.8781 115.818 39.0332ZM118.057 41.1198C118.579 41.6273 118.874 42.2618 119.086 43.3051C119.156 43.6293 119.283 44.0241 119.367 44.1651C119.522 44.4753 119.564 47.6616 119.41 47.7462C119.339 47.7885 117.846 47.8308 116.058 47.859L112.818 47.9154L112.776 47.154C112.748 46.7452 112.804 46.2094 112.889 45.9556C112.973 45.716 113.1 45.2366 113.17 44.8841C113.227 44.5317 113.368 44.0241 113.452 43.7562C113.551 43.4884 113.663 43.1923 113.691 43.1218C113.72 43.0372 113.86 42.7834 114.015 42.5578C114.17 42.3182 114.353 42.008 114.424 41.8529C114.579 41.5004 115.48 40.7532 115.889 40.6263C116.058 40.5699 116.508 40.5417 116.874 40.5699C117.438 40.6122 117.649 40.6968 118.057 41.1198ZM134.93 39.1741C134.62 39.2869 134.184 39.3715 133.944 39.3856C133.719 39.3856 133.395 39.4843 133.254 39.5971C133.099 39.7099 132.831 39.8086 132.662 39.8086C132.479 39.8086 132.296 39.8791 132.254 39.9496C132.198 40.0342 131.944 40.1893 131.677 40.302C131.141 40.5276 129.409 42.1067 129.212 42.5578C129.142 42.7129 129.029 42.9385 128.958 43.0513C128.325 44.1792 128.311 44.2215 128.311 46.0825C128.311 47.5911 128.367 47.9859 128.564 48.2678C128.691 48.4511 128.803 48.6908 128.803 48.8036C128.803 49.3534 131.24 51.6515 131.832 51.6515C131.93 51.6515 132.085 51.7502 132.184 51.863C132.282 51.9758 132.493 52.0745 132.662 52.0745C132.817 52.0745 133.085 52.1732 133.226 52.286C133.381 52.3988 133.634 52.4974 133.803 52.4974C133.972 52.4974 134.226 52.5961 134.381 52.7089C134.522 52.8217 134.747 52.9204 134.86 52.9204C135.465 52.9345 137.761 54.3162 138.24 54.9647C138.817 55.7402 139.043 56.854 138.747 57.4461C138.62 57.6999 138.521 57.9819 138.521 58.0946C138.521 58.4471 137.803 59.2507 137.099 59.6878C136.451 60.0826 136.31 60.1108 135.071 60.1108C133.944 60.1108 133.62 60.0544 133.043 59.7724C132.127 59.3353 131.184 58.5599 130.691 57.8127C130.465 57.4884 130.254 57.1923 130.212 57.15C130.099 57.0372 129.789 56.5297 129.705 56.3041C129.55 55.8952 129.254 55.2467 129.001 54.711C128.789 54.3021 128.663 54.1893 128.367 54.1893C128.156 54.1893 127.93 54.2739 127.86 54.3726C127.705 54.5559 127.86 60.5337 128.015 60.7875C128.057 60.858 128.268 60.9567 128.48 60.999C128.705 61.0272 129.071 61.1259 129.296 61.2105C130.846 61.7462 132.578 61.9718 135.353 61.9718C136.437 61.9859 137.775 61.9154 138.31 61.8449C139.31 61.6898 140.451 61.3233 140.69 61.0836C140.775 61.0131 140.916 60.9567 141.014 60.9567C141.845 60.9567 144.437 58.0805 144.437 57.15C144.437 56.7412 144.592 56.4451 144.803 56.4451C144.958 56.4451 145 56.0926 145 54.6828C145 53.2165 144.958 52.9204 144.789 52.9204C144.676 52.9204 144.535 52.7512 144.493 52.5256C144.31 51.7925 143.845 51.0876 143.056 50.3685C142.62 49.9738 142.141 49.5931 141.986 49.5226C141.69 49.3957 141.521 49.3111 140.986 49.001C140.69 48.8177 140.662 48.8036 139.719 48.4511C139.183 48.2537 138.775 48.0845 137.789 47.6475C137.536 47.5347 137.226 47.4078 137.113 47.3655C136.536 47.1399 135.465 46.4068 134.944 45.8992C134.55 45.5045 134.268 45.0674 134.113 44.5599C133.888 43.8267 133.888 43.7703 134.155 42.9103C134.465 41.9234 134.662 41.6555 135.479 41.0634C135.986 40.6827 136.127 40.6545 137.254 40.6545C138.099 40.6545 138.55 40.7109 138.747 40.866C138.888 40.9788 139.127 41.0775 139.254 41.0775C139.395 41.0775 139.902 41.4722 140.395 41.9516C141.254 42.7975 141.535 43.2769 142.507 45.4763C142.761 46.0543 143.141 46.1812 143.465 45.7865C143.62 45.6032 143.648 44.9969 143.62 42.9949C143.578 40.8237 143.535 40.4007 143.324 40.2034C143.042 39.8932 141.887 39.5548 140.564 39.3715C140.028 39.301 139.395 39.1741 139.169 39.1037C138.578 38.9063 135.606 38.9627 134.93 39.1741Z" fill="#648FFF"/>
</g>
<defs>
<filter id="filter0_dd" x="0" y="0" width="163" height="94" filterUnits="userSpaceOnUse" color-interpolation-filters="sRGB">
<feFlood flood-opacity="0" result="BackgroundImageFix"/>
<feColorMatrix in="SourceAlpha" type="matrix" values="0 0 0 0 0 0 0 0 0 0 0 0 0 0 0 0 0 0 127 0"/>
<feOffset dy="-12"/>
<feGaussianBlur stdDeviation="9"/>
<feColorMatrix type="matrix" values="0 0 0 0 0.313726 0 0 0 0 0.345098 0 0 0 0 0.498039 0 0 0 0.8 0"/>
<feBlend mode="normal" in2="BackgroundImageFix" result="effect1_dropShadow"/>
<feColorMatrix in="SourceAlpha" type="matrix" values="0 0 0 0 0 0 0 0 0 0 0 0 0 0 0 0 0 0 127 0"/>
<feOffset dy="16"/>
<feGaussianBlur stdDeviation="8"/>
<feColorMatrix type="matrix" values="0 0 0 0 0.13875 0 0 0 0 0.168501 0 0 0 0 0.308333 0 0 0 0.24 0"/>
<feBlend mode="normal" in2="effect1_dropShadow" result="effect2_dropShadow"/>
<feBlend mode="normal" in="SourceGraphic" in2="effect2_dropShadow" result="shape"/>
</filter>
</defs>
</svg>
