<svg width="155" height="106" viewBox="0 0 155 106" fill="none" xmlns="http://www.w3.org/2000/svg">
<g filter="url(#filter0_dd)">
<path d="M25.155 32.256L18.995 33.04L18.883 31.92L31.539 30.184H36.075V68.936H40.443V70H19.275V68.936H25.155V32.256ZM59.08 56.896C59.08 53.3493 58.7627 50.8667 58.128 49.448C57.5307 48.0293 56.1494 47.32 53.984 47.32C51.8187 47.32 49.448 48.1227 46.872 49.728L45.92 49.28V31.416L46.816 30.744C49.0934 31.08 52.5467 31.4907 57.176 31.976C61.8054 32.424 64.4747 32.648 65.184 32.648C65.9307 32.648 66.4534 32.48 66.752 32.144C67.088 31.7707 67.368 31.1547 67.592 30.296L68.432 30.408C67.872 36.12 67.144 39.5173 66.248 40.6C65.7627 41.16 65.1467 41.44 64.4 41.44C63.6534 41.44 62.0854 41.1227 59.696 40.488L47.488 37.296L47.208 48.16C49.9334 46.704 52.752 45.976 55.664 45.976C58.576 45.976 61.0027 46.312 62.944 46.984C64.8854 47.6187 66.3787 48.5147 67.424 49.672C69.4027 51.8747 70.392 54.544 70.392 57.68C70.392 61.6747 68.9547 64.8293 66.08 67.144C63.2427 69.4213 59.3227 70.56 54.32 70.56C51.632 70.56 49.1494 70 46.872 68.88C45.64 68.2453 44.632 67.3493 43.848 66.192C43.1014 64.9973 42.728 63.6347 42.728 62.104C42.728 60.536 43.1574 59.248 44.016 58.24C44.912 57.232 46.1254 56.728 47.656 56.728C49.224 56.728 50.4374 57.12 51.296 57.904C52.192 58.6507 52.64 59.64 52.64 60.872C52.64 62.0667 52.472 63.0933 52.136 63.952H50.288C50.064 64.5493 49.952 65.2587 49.952 66.08C49.952 66.864 50.2694 67.6293 50.904 68.376C51.5387 69.0853 52.472 69.44 53.704 69.44C54.936 69.44 55.8694 69.2533 56.504 68.88C57.1387 68.4693 57.624 67.984 57.96 67.424C58.296 66.864 58.5574 65.9867 58.744 64.792C58.968 63.0747 59.08 60.4427 59.08 56.896ZM90.3302 70.56C84.9169 70.56 80.7916 68.7307 77.9542 65.072C75.1542 61.4133 73.7542 56.2987 73.7542 49.728C73.7542 43.1573 75.2662 38.2667 78.2902 35.056C81.3142 31.808 85.4396 30.184 90.6662 30.184C95.9302 30.184 100.056 31.7893 103.042 35C106.066 38.2107 107.578 43.3253 107.578 50.344C107.578 57.3627 106.066 62.496 103.042 65.744C100.018 68.9547 95.7809 70.56 90.3302 70.56ZM85.2342 48.272V53.256C85.2342 56.8773 85.2529 59.4347 85.2902 60.928C85.3649 62.4213 85.5702 63.9707 85.9062 65.576C86.2422 67.1813 86.7836 68.2267 87.5302 68.712C88.2769 69.16 89.1542 69.384 90.1622 69.384C91.1702 69.384 91.9169 69.328 92.4022 69.216C92.9249 69.104 93.3729 68.88 93.7462 68.544C94.1569 68.1707 94.4929 67.816 94.7542 67.48C95.0156 67.1067 95.2209 66.5467 95.3702 65.8C95.5569 65.0533 95.7062 64.3627 95.8182 63.728C95.9302 63.0933 96.0049 62.16 96.0422 60.928C96.1169 58.5387 96.1542 56.1307 96.1542 53.704V48.776C96.1542 41.4587 95.8742 36.736 95.3142 34.608C94.7916 32.4427 93.2609 31.36 90.7222 31.36C88.1836 31.36 86.6342 32.4613 86.0742 34.664C85.5142 36.8667 85.2342 41.4027 85.2342 48.272ZM136.814 53.144H124.998V64.848H122.87V53.144H111.39V51.296H122.87V40.32H124.998V51.296H136.814V53.144Z" fill="#F0F3FF"/>
</g>
<path d="M13.36 85.28C15.2133 85.28 16.6333 85.7333 17.62 86.64C18.62 87.5333 19.12 88.7333 19.12 90.24C19.12 91.08 18.94 91.9067 18.58 92.72C18.2333 93.5333 17.64 94.18 16.8 94.66L20.22 100H16.84L13.74 95.32H11.8V100H8.9V85.28H13.36ZM13.86 92.52C14.4467 92.52 14.9 92.4 15.22 92.16C15.5533 91.9067 15.7867 91.6133 15.92 91.28C16.0533 90.9333 16.12 90.62 16.12 90.34C16.12 90.18 16.0933 89.98 16.04 89.74C16 89.4867 15.9067 89.2333 15.76 88.98C15.6133 88.7267 15.3867 88.5133 15.08 88.34C14.7867 88.1667 14.3867 88.08 13.88 88.08H11.8V92.52H13.86ZM25.6603 100.24C24.5936 100.24 23.687 100.04 22.9403 99.64C22.207 99.24 21.647 98.6867 21.2603 97.98C20.8736 97.2733 20.6803 96.46 20.6803 95.54C20.6803 94.66 20.907 93.8667 21.3603 93.16C21.8136 92.4533 22.4203 91.8933 23.1803 91.48C23.9403 91.0533 24.787 90.84 25.7203 90.84C26.9736 90.84 28.0003 91.2067 28.8003 91.94C29.6136 92.66 30.1403 93.7067 30.3803 95.08L23.9803 97.12C24.407 97.6133 24.987 97.86 25.7203 97.86C26.027 97.86 26.3203 97.8067 26.6003 97.7C26.8936 97.5933 27.1803 97.4533 27.4603 97.28L28.7003 99.36C28.2336 99.6267 27.727 99.84 27.1803 100C26.647 100.16 26.1403 100.24 25.6603 100.24ZM23.4403 95.38C23.4403 95.4467 23.4403 95.5067 23.4403 95.56L27.2803 94.26C27.1603 93.9267 26.967 93.64 26.7003 93.4C26.4336 93.1467 26.0336 93.02 25.5003 93.02C24.8736 93.02 24.3736 93.2333 24.0003 93.66C23.627 94.0867 23.4403 94.66 23.4403 95.38ZM34.855 100.18C34.135 100.18 33.4617 100.053 32.835 99.8C32.2217 99.5467 31.7017 99.1933 31.275 98.74L32.435 97.2C32.8617 97.5867 33.255 97.8667 33.615 98.04C33.9883 98.2 34.3217 98.28 34.615 98.28C34.9617 98.28 35.2483 98.2267 35.475 98.12C35.7017 98.0133 35.815 97.84 35.815 97.6C35.815 97.3733 35.7217 97.1933 35.535 97.06C35.3617 96.9267 35.135 96.82 34.855 96.74C34.575 96.6467 34.275 96.5533 33.955 96.46C33.155 96.2067 32.575 95.84 32.215 95.36C31.8683 94.8667 31.695 94.3333 31.695 93.76C31.695 93.32 31.8083 92.88 32.035 92.44C32.275 91.9867 32.6483 91.6133 33.155 91.32C33.675 91.0133 34.3417 90.86 35.155 90.86C35.8883 90.86 36.5083 90.9333 37.015 91.08C37.5217 91.2267 38.0017 91.4667 38.455 91.8L37.395 93.44C37.1417 93.24 36.855 93.0733 36.535 92.94C36.2283 92.7933 35.9417 92.7133 35.675 92.7C35.315 92.6867 35.035 92.7533 34.835 92.9C34.635 93.0333 34.535 93.1933 34.535 93.38C34.5217 93.6333 34.615 93.8333 34.815 93.98C35.0283 94.1267 35.295 94.24 35.615 94.32C35.935 94.4 36.2483 94.4933 36.555 94.6C37.1817 94.8133 37.6817 95.12 38.055 95.52C38.4283 95.9067 38.615 96.4267 38.615 97.08C38.615 97.6133 38.475 98.12 38.195 98.6C37.9283 99.0667 37.515 99.4467 36.955 99.74C36.4083 100.033 35.7083 100.18 34.855 100.18ZM39.8803 95.52C39.8803 94.6267 40.087 93.8267 40.5003 93.12C40.927 92.4133 41.5203 91.86 42.2803 91.46C43.0403 91.0467 43.9136 90.84 44.9003 90.84C45.9003 90.84 46.767 91.0467 47.5003 91.46C48.2336 91.86 48.7936 92.4133 49.1803 93.12C49.5803 93.8267 49.7803 94.6267 49.7803 95.52C49.7803 96.4133 49.5803 97.22 49.1803 97.94C48.7936 98.6467 48.2336 99.2067 47.5003 99.62C46.767 100.033 45.887 100.24 44.8603 100.24C43.9003 100.24 43.0403 100.053 42.2803 99.68C41.5336 99.3067 40.947 98.7667 40.5203 98.06C40.0936 97.3533 39.8803 96.5067 39.8803 95.52ZM42.7003 95.54C42.7003 96.2333 42.9003 96.8133 43.3003 97.28C43.7003 97.7333 44.207 97.96 44.8203 97.96C45.4736 97.96 45.9936 97.7333 46.3803 97.28C46.767 96.8133 46.9603 96.2333 46.9603 95.54C46.9603 94.8467 46.767 94.2733 46.3803 93.82C45.9936 93.3533 45.4736 93.12 44.8203 93.12C44.207 93.12 43.7003 93.3533 43.3003 93.82C42.9003 94.2733 42.7003 94.8467 42.7003 95.54ZM54.4061 100.42C53.6194 100.42 52.9594 100.18 52.4261 99.7C51.8928 99.2067 51.6128 98.5733 51.5861 97.8V91.26H54.3861V96.76C54.4128 97.1467 54.5128 97.46 54.6861 97.7C54.8594 97.9267 55.1528 98.04 55.5661 98.04C56.1928 98.04 56.6861 97.74 57.0461 97.14C57.4061 96.5267 57.5861 95.7533 57.5861 94.82V91.26H60.3861V100H57.8461L57.6461 98.6C57.3528 99.1467 56.9328 99.5867 56.3861 99.92C55.8394 100.253 55.1794 100.42 54.4061 100.42ZM65.3858 91.26L65.6058 93.26C65.8591 92.7533 66.2058 92.32 66.6458 91.96C67.0858 91.5867 67.5191 91.3067 67.9458 91.12C68.3724 90.92 68.6991 90.82 68.9258 90.82L68.7858 93.62C68.1324 93.54 67.5724 93.6467 67.1058 93.94C66.6391 94.2333 66.2791 94.62 66.0258 95.1C65.7724 95.58 65.6458 96.0733 65.6458 96.58V100H62.8658V91.26H65.3858ZM77.6983 99.22C77.3116 99.5267 76.8249 99.7733 76.2383 99.96C75.6649 100.147 75.0983 100.24 74.5383 100.24C73.0449 100.24 71.8449 99.8333 70.9383 99.02C70.0449 98.2067 69.5983 97.0733 69.5983 95.62C69.5983 94.6467 69.8183 93.82 70.2583 93.14C70.6983 92.4467 71.2716 91.92 71.9783 91.56C72.6983 91.2 73.4516 91.02 74.2383 91.02C75.0249 91.02 75.7049 91.1267 76.2783 91.34C76.8649 91.5533 77.3649 91.8333 77.7783 92.18L76.4183 93.98C76.2316 93.8333 75.9716 93.6867 75.6383 93.54C75.3183 93.38 74.9383 93.3 74.4983 93.3C73.9249 93.3 73.4316 93.52 73.0183 93.96C72.6049 94.3867 72.3983 94.94 72.3983 95.62C72.3983 96.2733 72.6116 96.8267 73.0383 97.28C73.4783 97.7333 74.0583 97.96 74.7783 97.96C75.3916 97.96 75.8983 97.7933 76.2983 97.46L77.6983 99.22ZM83.7486 100.24C82.6819 100.24 81.7753 100.04 81.0286 99.64C80.2953 99.24 79.7353 98.6867 79.3486 97.98C78.9619 97.2733 78.7686 96.46 78.7686 95.54C78.7686 94.66 78.9953 93.8667 79.4486 93.16C79.9019 92.4533 80.5086 91.8933 81.2686 91.48C82.0286 91.0533 82.8753 90.84 83.8086 90.84C85.0619 90.84 86.0886 91.2067 86.8886 91.94C87.7019 92.66 88.2286 93.7067 88.4686 95.08L82.0686 97.12C82.4953 97.6133 83.0753 97.86 83.8086 97.86C84.1153 97.86 84.4086 97.8067 84.6886 97.7C84.9819 97.5933 85.2686 97.4533 85.5486 97.28L86.7886 99.36C86.3219 99.6267 85.8153 99.84 85.2686 100C84.7353 100.16 84.2286 100.24 83.7486 100.24ZM81.5286 95.38C81.5286 95.4467 81.5286 95.5067 81.5286 95.56L85.3686 94.26C85.2486 93.9267 85.0553 93.64 84.7886 93.4C84.5219 93.1467 84.1219 93.02 83.5886 93.02C82.9619 93.02 82.4619 93.2333 82.0886 93.66C81.7153 94.0867 81.5286 94.66 81.5286 95.38ZM92.9433 100.18C92.2233 100.18 91.55 100.053 90.9233 99.8C90.31 99.5467 89.79 99.1933 89.3633 98.74L90.5233 97.2C90.95 97.5867 91.3433 97.8667 91.7033 98.04C92.0766 98.2 92.41 98.28 92.7033 98.28C93.05 98.28 93.3366 98.2267 93.5633 98.12C93.79 98.0133 93.9033 97.84 93.9033 97.6C93.9033 97.3733 93.81 97.1933 93.6233 97.06C93.45 96.9267 93.2233 96.82 92.9433 96.74C92.6633 96.6467 92.3633 96.5533 92.0433 96.46C91.2433 96.2067 90.6633 95.84 90.3033 95.36C89.9566 94.8667 89.7833 94.3333 89.7833 93.76C89.7833 93.32 89.8966 92.88 90.1233 92.44C90.3633 91.9867 90.7366 91.6133 91.2433 91.32C91.7633 91.0133 92.43 90.86 93.2433 90.86C93.9766 90.86 94.5966 90.9333 95.1033 91.08C95.61 91.2267 96.09 91.4667 96.5433 91.8L95.4833 93.44C95.23 93.24 94.9433 93.0733 94.6233 92.94C94.3166 92.7933 94.03 92.7133 93.7633 92.7C93.4033 92.6867 93.1233 92.7533 92.9233 92.9C92.7233 93.0333 92.6233 93.1933 92.6233 93.38C92.61 93.6333 92.7033 93.8333 92.9033 93.98C93.1166 94.1267 93.3833 94.24 93.7033 94.32C94.0233 94.4 94.3366 94.4933 94.6433 94.6C95.27 94.8133 95.77 95.12 96.1433 95.52C96.5166 95.9067 96.7033 96.4267 96.7033 97.08C96.7033 97.6133 96.5633 98.12 96.2833 98.6C96.0166 99.0667 95.6033 99.4467 95.0433 99.74C94.4966 100.033 93.7966 100.18 92.9433 100.18ZM107.293 91.26L107.493 92.64C107.826 92.0667 108.253 91.62 108.773 91.3C109.306 90.98 109.933 90.82 110.653 90.82C111.359 90.82 111.946 90.9667 112.413 91.26C112.893 91.54 113.206 91.9667 113.353 92.54C113.713 92.02 114.146 91.6067 114.653 91.3C115.173 90.98 115.713 90.82 116.273 90.82C117.139 90.82 117.826 91.0667 118.333 91.56C118.853 92.04 119.119 92.6667 119.133 93.44V100H116.353V94.6C116.339 94.2133 116.279 93.9 116.173 93.66C116.066 93.4067 115.819 93.2667 115.433 93.24C114.979 93.24 114.593 93.4 114.273 93.72C113.966 94.0267 113.733 94.4267 113.573 94.92C113.426 95.4 113.353 95.9 113.353 96.42V100H110.553V94.6C110.539 94.2133 110.466 93.9 110.333 93.66C110.213 93.4067 109.959 93.2667 109.573 93.24C109.133 93.24 108.759 93.4 108.452 93.72C108.159 94.0267 107.933 94.42 107.773 94.9C107.626 95.38 107.553 95.8733 107.553 96.38V100H104.753V91.26H107.293ZM120.938 95.52C120.938 94.6267 121.145 93.8267 121.558 93.12C121.985 92.4133 122.578 91.86 123.338 91.46C124.098 91.0467 124.971 90.84 125.958 90.84C126.958 90.84 127.825 91.0467 128.558 91.46C129.291 91.86 129.851 92.4133 130.238 93.12C130.638 93.8267 130.838 94.6267 130.838 95.52C130.838 96.4133 130.638 97.22 130.238 97.94C129.851 98.6467 129.291 99.2067 128.558 99.62C127.825 100.033 126.945 100.24 125.918 100.24C124.958 100.24 124.098 100.053 123.338 99.68C122.591 99.3067 122.005 98.7667 121.578 98.06C121.151 97.3533 120.938 96.5067 120.938 95.52ZM123.758 95.54C123.758 96.2333 123.958 96.8133 124.358 97.28C124.758 97.7333 125.265 97.96 125.878 97.96C126.531 97.96 127.051 97.7333 127.438 97.28C127.825 96.8133 128.018 96.2333 128.018 95.54C128.018 94.8467 127.825 94.2733 127.438 93.82C127.051 93.3533 126.531 93.12 125.878 93.12C125.265 93.12 124.758 93.3533 124.358 93.82C123.958 94.2733 123.758 94.8467 123.758 95.54ZM135.164 91.26L135.384 93.26C135.637 92.7533 135.984 92.32 136.424 91.96C136.864 91.5867 137.297 91.3067 137.724 91.12C138.151 90.92 138.477 90.82 138.704 90.82L138.564 93.62C137.911 93.54 137.351 93.6467 136.884 93.94C136.417 94.2333 136.057 94.62 135.804 95.1C135.551 95.58 135.424 96.0733 135.424 96.58V100H132.644V91.26H135.164ZM144.356 100.24C143.29 100.24 142.383 100.04 141.636 99.64C140.903 99.24 140.343 98.6867 139.956 97.98C139.57 97.2733 139.376 96.46 139.376 95.54C139.376 94.66 139.603 93.8667 140.056 93.16C140.51 92.4533 141.116 91.8933 141.876 91.48C142.636 91.0533 143.483 90.84 144.416 90.84C145.67 90.84 146.696 91.2067 147.496 91.94C148.31 92.66 148.836 93.7067 149.076 95.08L142.676 97.12C143.103 97.6133 143.683 97.86 144.416 97.86C144.723 97.86 145.016 97.8067 145.296 97.7C145.59 97.5933 145.876 97.4533 146.156 97.28L147.396 99.36C146.93 99.6267 146.423 99.84 145.876 100C145.343 100.16 144.836 100.24 144.356 100.24ZM142.136 95.38C142.136 95.4467 142.136 95.5067 142.136 95.56L145.976 94.26C145.856 93.9267 145.663 93.64 145.396 93.4C145.13 93.1467 144.73 93.02 144.196 93.02C143.57 93.02 143.07 93.2333 142.696 93.66C142.323 94.0867 142.136 94.66 142.136 95.38Z" fill="#8F99CC"/>
<defs>
<filter id="filter0_dd" x="0.882965" y="0.184082" width="153.931" height="102.376" filterUnits="userSpaceOnUse" color-interpolation-filters="sRGB">
<feFlood flood-opacity="0" result="BackgroundImageFix"/>
<feColorMatrix in="SourceAlpha" type="matrix" values="0 0 0 0 0 0 0 0 0 0 0 0 0 0 0 0 0 0 127 0"/>
<feOffset dy="-12"/>
<feGaussianBlur stdDeviation="9"/>
<feColorMatrix type="matrix" values="0 0 0 0 0.313726 0 0 0 0 0.345098 0 0 0 0 0.498039 0 0 0 0.8 0"/>
<feBlend mode="normal" in2="BackgroundImageFix" result="effect1_dropShadow"/>
<feColorMatrix in="SourceAlpha" type="matrix" values="0 0 0 0 0 0 0 0 0 0 0 0 0 0 0 0 0 0 127 0"/>
<feOffset dy="16"/>
<feGaussianBlur stdDeviation="8"/>
<feColorMatrix type="matrix" values="0 0 0 0 0.13875 0 0 0 0 0.168501 0 0 0 0 0.308333 0 0 0 0.24 0"/>
<feBlend mode="normal" in2="effect1_dropShadow" result="effect2_dropShadow"/>
<feBlend mode="normal" in="SourceGraphic" in2="effect2_dropShadow" result="shape"/>
</filter>
</defs>
</svg>
