<svg width="22" height="20" viewBox="0 0 22 20" fill="none" xmlns="http://www.w3.org/2000/svg">
<path fill-rule="evenodd" clip-rule="evenodd" d="M1.375 0C1.01033 0 0.660591 0.140361 0.402728 0.390205C0.144866 0.640048 0 0.978909 0 1.33224C0 1.68557 0.144866 2.02444 0.402728 2.27428C0.660591 2.52412 1.01033 2.66448 1.375 2.66448V13.3224C1.375 14.0291 1.66473 14.7068 2.18046 15.2065C2.69618 15.7062 3.39565 15.9869 4.125 15.9869H7.68075L5.90288 17.7095C5.77155 17.8324 5.6668 17.9794 5.59474 18.1419C5.52267 18.3045 5.48474 18.4793 5.48316 18.6562C5.48157 18.8331 5.51636 19.0085 5.58549 19.1722C5.65463 19.336 5.75673 19.4847 5.88583 19.6098C6.01493 19.7349 6.16846 19.8338 6.33744 19.9008C6.50642 19.9678 6.68748 20.0015 6.87005 20C7.05262 19.9984 7.23305 19.9617 7.40081 19.8918C7.56856 19.822 7.72029 19.7205 7.84712 19.5933L11 16.5385L14.1529 19.5933C14.4122 19.836 14.7595 19.9702 15.1201 19.9672C15.4806 19.9642 15.8254 19.8241 16.0804 19.5771C16.3353 19.33 16.4799 18.9959 16.4831 18.6466C16.4862 18.2973 16.3476 17.9608 16.0971 17.7095L14.3192 15.9869H17.875C18.6043 15.9869 19.3038 15.7062 19.8195 15.2065C20.3353 14.7068 20.625 14.0291 20.625 13.3224V2.66448C20.9897 2.66448 21.3394 2.52412 21.5973 2.27428C21.8551 2.02444 22 1.68557 22 1.33224C22 0.978909 21.8551 0.640048 21.5973 0.390205C21.3394 0.140361 20.9897 0 20.625 0H1.375ZM17.4721 6.27086C17.7226 6.0196 17.8612 5.68307 17.8581 5.33376C17.8549 4.98445 17.7103 4.65031 17.4554 4.4033C17.2004 4.15629 16.8556 4.01618 16.4951 4.01315C16.1345 4.01011 15.7872 4.14439 15.5279 4.38707L11 8.77415L9.22213 7.05156C8.96427 6.8018 8.6146 6.66149 8.25 6.66149C7.8854 6.66149 7.53573 6.8018 7.27788 7.05156L4.52788 9.71604C4.39655 9.83894 4.2918 9.98594 4.21974 10.1485C4.14767 10.311 4.10974 10.4858 4.10816 10.6627C4.10657 10.8396 4.14136 11.0151 4.21049 11.1788C4.27963 11.3425 4.38173 11.4913 4.51083 11.6163C4.63993 11.7414 4.79346 11.8404 4.96244 11.9073C5.13142 11.9743 5.31248 12.008 5.49505 12.0065C5.67762 12.005 5.85805 11.9682 6.02581 11.8984C6.19356 11.8286 6.34529 11.7271 6.47212 11.5998L8.25 9.87724L10.0279 11.5998C10.2857 11.8496 10.6354 11.9899 11 11.9899C11.3646 11.9899 11.7143 11.8496 11.9721 11.5998L17.4721 6.27086Z" fill="url(#paint0_linear)"/>
<defs>
<linearGradient id="paint0_linear" x1="0" y1="0" x2="9.41781" y2="20.7192" gradientUnits="userSpaceOnUse">
<stop stop-color="#9299C2"/>
<stop offset="1" stop-color="#D2D6EF"/>
</linearGradient>
</defs>
</svg>
