<svg width="21" height="20" viewBox="0 0 21 20" fill="none" xmlns="http://www.w3.org/2000/svg">
<path d="M10.4945 0.101106C10.3389 0.0343977 10.1714 0 10.002 0C9.83274 0 9.66519 0.0343977 9.50957 0.101106L0.76006 3.8509C0.534585 3.94695 0.342324 4.10717 0.207186 4.31162C0.0720492 4.51608 0 4.75575 0 5.00083C0 5.24592 0.0720492 5.48559 0.207186 5.69004C0.342324 5.8945 0.534585 6.05472 0.76006 6.15077L4.06488 7.56444C4.18754 7.42569 4.33954 7.31596 4.50985 7.24321L9.50957 5.10083C9.66087 5.0334 9.82406 4.99671 9.98966 4.9929C10.1553 4.98909 10.32 5.01823 10.4742 5.07863C10.6284 5.13903 10.7691 5.22948 10.8881 5.34473C11.0071 5.45999 11.1019 5.59773 11.1672 5.74997C11.2325 5.90222 11.2668 6.06591 11.2683 6.23155C11.2697 6.39718 11.2383 6.56145 11.1757 6.71481C11.1131 6.86817 11.0206 7.00757 10.9037 7.12488C10.7868 7.2422 10.6477 7.33511 10.4945 7.3982L7.08596 8.86062L9.51082 9.89931C9.66627 9.96585 9.83359 10.0002 10.0027 10.0002C10.1718 10.0002 10.3391 9.96585 10.4945 9.89931L19.244 6.14952C19.4688 6.05311 19.6603 5.89289 19.7949 5.68872C19.9294 5.48454 20.0012 5.24537 20.0012 5.00083C20.0012 4.7563 19.9294 4.51713 19.7949 4.31295C19.6603 4.10877 19.4688 3.94856 19.244 3.85215L10.4945 0.102356V0.101106Z" fill="url(#paint0_linear)"/>
<path d="M1.64002 9.24686L3.75241 10.1506V15.2778C3.31962 15.1794 2.88138 15.1067 2.43998 15.0603C2.15518 15.0304 1.88929 14.9035 1.68679 14.701C1.4843 14.4985 1.35747 14.2326 1.32754 13.9478C1.16316 12.3741 1.26884 10.7838 1.64002 9.24561V9.24686Z" fill="url(#paint1_linear)"/>
<path d="M9.12708 18.2164C8.28215 17.3874 7.312 16.6965 6.25224 16.1691V11.2231L8.52462 12.198C8.99146 12.3982 9.4941 12.5014 10.002 12.5014C10.51 12.5014 11.0126 12.3982 11.4795 12.198L18.3641 9.24695C18.7374 10.7848 18.8431 12.3755 18.6766 13.9492C18.6466 14.234 18.5198 14.4999 18.3173 14.7024C18.1148 14.9049 17.8489 15.0317 17.5641 15.0616C15.0424 15.3266 12.6851 16.4388 10.877 18.2164C10.6433 18.4455 10.3292 18.5738 10.002 18.5738C9.67486 18.5738 9.36073 18.4455 9.12708 18.2164Z" fill="url(#paint2_linear)"/>
<path d="M5.00232 20C5.33382 20 5.65175 19.8684 5.88615 19.6339C6.12056 19.3995 6.25225 19.0816 6.25225 18.7501V16.169C5.45729 15.7741 4.61808 15.4753 3.75239 15.2791V18.7501C3.75239 19.0816 3.88408 19.3995 4.11848 19.6339C4.35289 19.8684 4.67082 20 5.00232 20Z" fill="url(#paint3_linear)"/>
<defs>
<linearGradient id="paint0_linear" x1="0" y1="0" x2="2.94111" y2="11.7649" gradientUnits="userSpaceOnUse">
<stop stop-color="#9299C2"/>
<stop offset="1" stop-color="#D2D6EF"/>
</linearGradient>
<linearGradient id="paint1_linear" x1="1.25237" y1="9.24561" x2="4.95706" y2="12.3164" gradientUnits="userSpaceOnUse">
<stop stop-color="#9299C2"/>
<stop offset="1" stop-color="#D2D6EF"/>
</linearGradient>
<linearGradient id="paint2_linear" x1="6.25224" y1="9.24695" x2="10.0701" y2="19.4812" gradientUnits="userSpaceOnUse">
<stop stop-color="#9299C2"/>
<stop offset="1" stop-color="#D2D6EF"/>
</linearGradient>
<linearGradient id="paint3_linear" x1="3.75239" y1="15.2791" x2="6.69816" y2="18.3987" gradientUnits="userSpaceOnUse">
<stop stop-color="#9299C2"/>
<stop offset="1" stop-color="#D2D6EF"/>
</linearGradient>
</defs>
</svg>
