<svg width="23" height="22" viewBox="0 0 23 22" fill="none" xmlns="http://www.w3.org/2000/svg">
<path fill-rule="evenodd" clip-rule="evenodd" d="M12.3893 6.2651C12.5625 5.77109 12.6534 5.24733 12.6534 4.71427C12.6534 3.46397 12.1535 2.26487 11.2636 1.38078C10.3737 0.49668 9.1668 0 7.90832 0C6.64985 0 5.44292 0.49668 4.55305 1.38078C3.66317 2.26487 3.16325 3.46397 3.16325 4.71427C3.16325 5.96457 3.66317 7.16366 4.55305 8.04776C5.44292 8.93185 6.64985 9.42853 7.90832 9.42853C8.21808 9.42853 8.52471 9.39844 8.82427 9.33989C8.82518 7.88337 9.88108 6.46618 11.5888 6.32928L12.3893 6.2651Z" fill="url(#paint0_linear)"/>
<path fill-rule="evenodd" clip-rule="evenodd" d="M14.2564 15.8258C14.0702 15.6068 13.8702 15.3967 13.6569 15.1967C13.5438 15.0907 13.4276 14.9881 13.3086 14.8892L13.2202 15.2599C13.0964 15.7791 13.6611 16.1894 14.1166 15.9112L14.2564 15.8258ZM15.4963 17.8807L15.3676 17.9593C13.0903 19.3503 10.2666 17.2987 10.8857 14.7031L11.1477 13.6049C10.1622 13.2096 9.09264 13 8 13C5.87827 13 3.84344 13.7902 2.34315 15.1967C0.842855 16.6032 0 18.5109 0 20.5V22H16V20.5C16 19.597 15.8263 18.7109 15.4963 17.8807Z" fill="url(#paint1_linear)"/>
<path d="M16.446 5.33198C16.651 4.83921 17.349 4.83921 17.554 5.33198L18.7108 8.11325C18.7972 8.32099 18.9926 8.46293 19.2168 8.48091L22.2194 8.72163C22.7514 8.76428 22.9671 9.42818 22.5618 9.77538L20.2742 11.735C20.1033 11.8814 20.0287 12.1111 20.0809 12.3299L20.7798 15.2599C20.9036 15.7791 20.3389 16.1894 19.8834 15.9112L17.3128 14.3411C17.1207 14.2238 16.8793 14.2238 16.6872 14.3411L14.1166 15.9112C13.6611 16.1894 13.0964 15.7791 13.2202 15.2599L13.9191 12.3299C13.9713 12.1111 13.8967 11.8814 13.7258 11.735L11.4382 9.77538C11.0329 9.42818 11.2486 8.76428 11.7806 8.72163L14.7832 8.48091C15.0074 8.46293 15.2028 8.32099 15.2892 8.11325L16.446 5.33198Z" fill="url(#paint2_linear)"/>
<defs>
<linearGradient id="paint0_linear" x1="3.16325" y1="0" x2="7.85906" y2="9.45301" gradientUnits="userSpaceOnUse">
<stop stop-color="#9299C2"/>
<stop offset="1" stop-color="#D2D6EF"/>
</linearGradient>
<linearGradient id="paint1_linear" x1="2.94613e-08" y1="12.5714" x2="3.22615" y2="23.3955" gradientUnits="userSpaceOnUse">
<stop stop-color="#9299C2"/>
<stop offset="1" stop-color="#D2D6EF"/>
</linearGradient>
<linearGradient id="paint2_linear" x1="11.2277" y1="4.9624" x2="16.5971" y2="16.1936" gradientUnits="userSpaceOnUse">
<stop stop-color="#9299C2"/>
<stop offset="1" stop-color="#D2D6EF"/>
</linearGradient>
</defs>
</svg>
