<svg width="22" height="22" viewBox="0 0 22 22" fill="none" xmlns="http://www.w3.org/2000/svg">
<path fill-rule="evenodd" clip-rule="evenodd" d="M2.75 0C2.02065 0 1.32118 0.289731 0.805456 0.805456C0.289731 1.32118 0 2.02065 0 2.75V17.875C0 18.969 0.434597 20.0182 1.20818 20.7918C1.98177 21.5654 3.03098 22 4.125 22C5.21902 22 6.26823 21.5654 7.04182 20.7918C7.8154 20.0182 8.25 18.969 8.25 17.875V2.75C8.25 2.02065 7.96027 1.32118 7.44454 0.805456C6.92882 0.289731 6.22935 0 5.5 0H2.75ZM4.125 19.25C4.48967 19.25 4.83941 19.1051 5.09727 18.8473C5.35513 18.5894 5.5 18.2397 5.5 17.875C5.5 17.5103 5.35513 17.1606 5.09727 16.9027C4.83941 16.6449 4.48967 16.5 4.125 16.5C3.76033 16.5 3.41059 16.6449 3.15273 16.9027C2.89487 17.1606 2.75 17.5103 2.75 17.875C2.75 18.2397 2.89487 18.5894 3.15273 18.8473C3.41059 19.1051 3.76033 19.25 4.125 19.25ZM11 16.8341L17.7375 10.0966C18.253 9.58092 18.5427 8.88158 18.5427 8.15238C18.5427 7.42317 18.253 6.72383 17.7375 6.20812L15.7919 4.2625C15.2762 3.74695 14.5768 3.45734 13.8476 3.45734C13.1184 3.45734 12.4191 3.74695 11.9034 4.2625L11 5.16587V16.8341ZM19.25 22H9.72262L17.9726 13.75H19.25C19.9793 13.75 20.6788 14.0397 21.1945 14.5555C21.7103 15.0712 22 15.7707 22 16.5V19.25C22 19.9793 21.7103 20.6788 21.1945 21.1945C20.6788 21.7103 19.9793 22 19.25 22Z" fill="url(#paint0_linear)"/>
<defs>
<linearGradient id="paint0_linear" x1="0" y1="0" x2="11" y2="22" gradientUnits="userSpaceOnUse">
<stop stop-color="#9299C2"/>
<stop offset="1" stop-color="#D2D6EF"/>
</linearGradient>
</defs>
</svg>
