<svg width="22" height="17" viewBox="0 0 22 17" fill="none" xmlns="http://www.w3.org/2000/svg">
<path d="M9.77767 3.64286C9.77767 4.609 9.39136 5.53558 8.70373 6.21875C8.01609 6.90192 7.08346 7.28571 6.111 7.28571C5.13854 7.28571 4.20591 6.90192 3.51828 6.21875C2.83064 5.53558 2.44434 4.609 2.44434 3.64286C2.44434 2.67671 2.83064 1.75014 3.51828 1.06697C4.20591 0.3838 5.13854 0 6.111 0C7.08346 0 8.01609 0.3838 8.70373 1.06697C9.39136 1.75014 9.77767 2.67671 9.77767 3.64286Z" fill="url(#paint0_linear)"/>
<path d="M19.5555 3.64286C19.5555 4.12124 19.4607 4.59495 19.2764 5.03692C19.0921 5.47889 18.822 5.88048 18.4816 6.21875C18.1411 6.55702 17.7369 6.82535 17.292 7.00842C16.8471 7.19149 16.3703 7.28571 15.8888 7.28571C15.4073 7.28571 14.9305 7.19149 14.4857 7.00842C14.0408 6.82535 13.6366 6.55702 13.2961 6.21875C12.9556 5.88048 12.6855 5.47889 12.5013 5.03692C12.317 4.59495 12.2222 4.12124 12.2222 3.64286C12.2222 2.67671 12.6085 1.75014 13.2961 1.06697C13.9837 0.3838 14.9164 0 15.8888 0C16.8613 0 17.7939 0.3838 18.4816 1.06697C19.1692 1.75014 19.5555 2.67671 19.5555 3.64286Z" fill="url(#paint1_linear)"/>
<path d="M14.581 17C14.6373 16.603 14.6666 16.1986 14.6666 15.7858C14.6694 13.8779 14.0234 12.0251 12.8333 10.5279C13.7622 9.99502 14.8161 9.71448 15.8888 9.71448C16.9615 9.71447 18.0153 9.995 18.9443 10.5279C19.8733 11.0607 20.6448 11.8271 21.1811 12.7501C21.7175 13.673 21.9999 14.72 21.9999 15.7858V17H14.581Z" fill="url(#paint2_linear)"/>
<path d="M6.11111 9.71436C7.73188 9.71436 9.28626 10.354 10.4323 11.4926C11.5784 12.6312 12.2222 14.1755 12.2222 15.7858V17.0001H0V15.7858C0 14.1755 0.643847 12.6312 1.7899 11.4926C2.93596 10.354 4.49034 9.71436 6.11111 9.71436Z" fill="url(#paint3_linear)"/>
<defs>
<linearGradient id="paint0_linear" x1="2.44434" y1="0" x2="6.07293" y2="7.30463" gradientUnits="userSpaceOnUse">
<stop stop-color="#9299C2"/>
<stop offset="1" stop-color="#D2D6EF"/>
</linearGradient>
<linearGradient id="paint1_linear" x1="12.2222" y1="0" x2="15.8508" y2="7.30463" gradientUnits="userSpaceOnUse">
<stop stop-color="#9299C2"/>
<stop offset="1" stop-color="#D2D6EF"/>
</linearGradient>
<linearGradient id="paint2_linear" x1="12.8333" y1="9.71448" x2="15.9587" y2="17.5794" gradientUnits="userSpaceOnUse">
<stop stop-color="#9299C2"/>
<stop offset="1" stop-color="#D2D6EF"/>
</linearGradient>
<linearGradient id="paint3_linear" x1="0" y1="9.71436" x2="2.49294" y2="18.0785" gradientUnits="userSpaceOnUse">
<stop stop-color="#9299C2"/>
<stop offset="1" stop-color="#D2D6EF"/>
</linearGradient>
</defs>
</svg>
