<svg width="152" height="48" viewBox="0 0 152 48" fill="none" xmlns="http://www.w3.org/2000/svg">
<g filter="url(#filter0_ii)">
<path d="M24.1474 0.559165C22.8178 -0.186388 21.179 -0.186388 19.8494 0.559165L19.0204 1.0232L2.14899 10.4725C0.81942 11.2181 0 12.5947 0 14.0843V33.9157C0 35.4068 0.81942 36.7834 2.15058 37.5275L2.93812 37.9683L19.851 47.4408C21.1806 48.1864 22.8194 48.1864 24.149 47.4408L41.0885 37.954C41.0899 37.9532 41.0914 37.9528 41.093 37.9528C41.0945 37.9528 41.0961 37.9524 41.0975 37.9517L41.8526 37.529C43.1822 36.7834 44 35.4068 44 33.9172V14.0843C44 12.5947 43.1806 11.2165 41.851 10.4725L24.9764 1.0232L24.1474 0.559165ZM38.1812 34.5623L23.3328 42.8778C22.507 43.3403 21.4899 43.3403 20.6641 42.8778L5.81565 34.5623C4.98986 34.0998 4.4813 33.2444 4.4813 32.3194V15.6821C4.4813 14.7572 4.98986 13.9018 5.81565 13.4393L20.6641 5.12374C21.4899 4.66125 22.507 4.66125 23.3328 5.12374L38.1812 13.4393C39.007 13.9018 39.5155 14.7572 39.5155 15.6821V32.321C39.5171 33.2459 39.0086 34.0998 38.1812 34.5623Z" fill="url(#paint0_linear)"/>
<path d="M7.21863 18.132V29.8706C7.21863 31.3601 8.03805 32.7383 9.36761 33.4823C10.4121 34.067 11.6999 33.312 11.6999 32.115V29.7344C11.6999 28.8234 12.2005 27.9819 13.0151 27.5256L20.6849 23.2302C21.4979 22.7754 22.0001 21.9324 22.0001 21.0214C22.0001 19.4331 20.2912 18.4314 18.9054 19.2074L14.7665 21.5248C13.394 22.2934 11.7015 21.3013 11.7015 19.7283C11.7015 18.8033 12.2101 17.9479 13.0359 17.4854L20.6657 13.2101C21.4915 12.7476 22.5086 12.7476 23.3344 13.2101L29.2044 16.4989C30.5898 17.2751 32.2986 16.2738 32.2986 14.6857C32.2986 13.7747 31.798 12.9332 30.985 12.4769L24.1491 8.64706C22.8195 7.9015 21.1807 7.9015 19.8495 8.64706L9.36761 14.5202C8.03805 15.2642 7.21863 16.6409 7.21863 18.132Z" fill="url(#paint1_linear)"/>
<path d="M21.9904 36.9955V38.5809C21.9904 39.4533 22.9629 39.9978 23.7424 39.5616L35.0198 33.243C35.7978 32.8068 35.7978 31.7163 35.0198 31.2816L33.6042 30.4881C32.7911 30.0318 31.7884 30.0334 30.9753 30.4881L23.304 34.7867C22.491 35.243 21.9904 36.0844 21.9904 36.9955Z" fill="url(#paint2_linear)"/>
<path d="M33.6042 27.9778L35.0199 28.7713C35.7978 29.2075 36.7703 28.6615 36.7703 27.7906V25.7519C36.7703 24.8409 36.2697 23.9994 35.4567 23.5431L34.041 22.7496C33.2631 22.3134 32.2906 22.8594 32.2906 23.7303V25.769C32.289 26.6816 32.7912 27.523 33.6042 27.9778Z" fill="url(#paint3_linear)"/>
<path d="M56 8.2959H65.8662V10.2656H58.3642V16.3087H65.296V18.2508H58.3642V26.4785H56V8.2959Z" fill="#B4C0FF"/>
<path d="M69.2357 8.2959H71.6V24.5069H79.4278V26.4766H69.2357V8.2959Z" fill="#B4C0FF"/>
<path d="M91.5511 17.9531H84.4305V24.5069H92.3676V26.4766H82.0663V8.2959H91.9603V10.2656H84.4305V16.011H91.5511V17.9531Z" fill="#B4C0FF"/>
<path d="M105.468 26.4766L103.13 22.4583C102.178 20.9204 101.58 19.9228 101.01 18.8699H100.956C100.44 19.9228 99.9232 20.8928 98.9715 22.4839L96.7702 26.4766H94.0523L99.651 17.2788L94.2689 8.2959H97.0146L99.4344 12.5586C100.114 13.7456 100.63 14.6624 101.119 15.6344H101.201C101.717 14.5559 102.178 13.7199 102.86 12.5586L105.359 8.2959H108.077L102.504 17.1427L108.212 26.4766H105.468Z" fill="#B4C0FF"/>
<path d="M120.444 17.9531H113.324V24.5069H121.261V26.4766H110.96V8.2959H120.854V10.2656H113.324V16.011H120.444V17.9531Z" fill="#B4C0FF"/>
<path d="M123.57 25.0746C123.57 24.0769 124.249 23.375 125.201 23.375C126.152 23.375 126.804 24.0769 126.804 25.0746C126.804 26.0446 126.178 26.7741 125.173 26.7741C124.221 26.7741 123.57 26.0466 123.57 25.0746Z" fill="#B4C0FF"/>
<path d="M132.212 8.2959V26.4766H129.848V8.2959H132.212Z" fill="#B4C0FF"/>
<path d="M152 17.1978C152 23.4558 148.168 26.7741 143.493 26.7741C138.655 26.7741 135.256 23.0516 135.256 17.5487C135.256 11.7757 138.872 8 143.763 8C148.766 8 152 11.8033 152 17.1978ZM137.785 17.4955C137.785 21.3797 139.905 24.8596 143.628 24.8596C147.379 24.8596 149.499 21.4349 149.499 17.3062C149.499 13.6922 147.595 9.91448 143.656 9.91448C139.742 9.91448 137.785 13.5029 137.785 17.4955Z" fill="#B4C0FF"/>
<path d="M60.9311 37.6715C60.6232 37.8253 60.0053 37.9771 59.2126 37.9771C57.3808 37.9791 56 36.8296 56 34.712C56 32.6911 57.3808 31.3228 59.3974 31.3228C60.2079 31.3228 60.7185 31.4943 60.9411 31.6106L60.7384 32.2908C60.4205 32.137 59.9656 32.0227 59.4252 32.0227C57.9013 32.0227 56.8881 32.9908 56.8881 34.6844C56.8881 36.2637 57.804 37.2791 59.3874 37.2791C59.898 37.2791 60.4205 37.1746 60.7583 37.011L60.9311 37.6715Z" fill="#B4C0FF"/>
<path d="M61.9245 34.6943C61.9245 34.1481 61.9145 33.6789 61.8867 33.249H62.6298L62.6596 34.158H62.6973C62.9099 33.5349 63.4205 33.1426 63.9907 33.1426C64.088 33.1426 64.1556 33.1524 64.2311 33.1722V33.9667C64.1437 33.947 64.0582 33.9372 63.941 33.9372C63.343 33.9372 62.9178 34.3867 62.8026 35.0196C62.7827 35.134 62.7649 35.268 62.7649 35.412V37.8824H61.9245V34.6943Z" fill="#B4C0FF"/>
<path d="M65.6298 33.2471L66.653 35.9857C66.7583 36.2913 66.8755 36.6561 66.953 36.9341H66.9728C67.0602 36.6561 67.1556 36.3012 67.2728 35.966L68.1986 33.2471H69.0967L67.8232 36.5516C67.2152 38.1407 66.8 38.955 66.2218 39.4538C65.8066 39.8186 65.3914 39.9606 65.1788 40L64.9662 39.2922C65.1788 39.2251 65.4589 39.0911 65.7092 38.8801C65.9417 38.6987 66.2298 38.3734 66.4225 37.9416C66.4602 37.8548 66.49 37.7878 66.49 37.7405C66.49 37.6932 66.4702 37.6261 66.4324 37.5197L64.7059 33.249H65.6298V33.2471Z" fill="#B4C0FF"/>
<path d="M69.8656 34.7613C69.8656 34.1678 69.8458 33.6887 69.8279 33.249H70.5908L70.6285 34.0436H70.6484C70.9961 33.4778 71.5464 33.1426 72.3074 33.1426C73.4358 33.1426 74.2862 34.0909 74.2862 35.4987C74.2862 37.1648 73.263 37.9889 72.1623 37.9889C71.5444 37.9889 71.004 37.7208 70.7239 37.2614H70.704V39.7792H69.8636V34.7613H69.8656ZM70.704 35.9956C70.704 36.1198 70.7239 36.2341 70.7418 36.3406C70.8968 36.9242 71.4074 37.3264 72.0153 37.3264C72.9133 37.3264 73.4338 36.5989 73.4338 35.5362C73.4338 34.6075 72.9411 33.8129 72.0451 33.8129C71.467 33.8129 70.9266 34.225 70.7617 34.856C70.7319 34.9604 70.704 35.0866 70.704 35.201V35.9956Z" fill="#B4C0FF"/>
<path d="M76.3762 31.916V33.2469H77.592V33.8877H76.3762V36.3877C76.3762 36.9615 76.5411 37.2888 77.0139 37.2888C77.2364 37.2888 77.3993 37.2592 77.5066 37.2316L77.5444 37.8645C77.3815 37.9315 77.1192 37.9789 76.7914 37.9789C76.396 37.9789 76.0781 37.8546 75.8735 37.624C75.6331 37.3755 75.5457 36.9635 75.5457 36.4173V33.8896H74.8225V33.2489H75.5457V32.1388L76.3762 31.916Z" fill="#B4C0FF"/>
<path d="M82.7159 35.5263C82.7159 37.2397 81.5199 37.9869 80.3894 37.9869C79.1258 37.9869 78.1503 37.0681 78.1503 35.6032C78.1503 34.0515 79.1735 33.1426 80.4669 33.1426C81.8099 33.1426 82.7159 34.1087 82.7159 35.5263ZM79.0106 35.5756C79.0106 36.591 79.5987 37.356 80.4291 37.356C81.2397 37.356 81.8477 36.5989 81.8477 35.5559C81.8477 34.7712 81.4523 33.7755 80.449 33.7755C79.4457 33.7735 79.0106 34.6943 79.0106 35.5756Z" fill="#B4C0FF"/>
<path d="M91.3424 35.0472C91.2948 34.1462 91.2372 33.0657 91.2471 32.2613H91.2173C90.9948 33.0184 90.7246 33.8228 90.3968 34.712L89.2484 37.843H88.6107L87.5597 34.7692C87.2517 33.8603 86.9895 33.0263 86.8067 32.2613H86.7868C86.767 33.0657 86.7193 34.1481 86.6617 35.1142L86.4868 37.8825H85.6862L86.1391 31.4272H87.21L88.3206 34.5484C88.5908 35.343 88.8133 36.0528 88.9762 36.7231H89.004C89.1689 36.0725 89.3994 35.3627 89.6895 34.5484L90.8477 31.4272H91.9186L92.3239 37.8825H91.5034L91.3424 35.0472Z" fill="#B4C0FF"/>
<path d="M96.2338 37.8824L96.1663 37.2988H96.1384C95.8782 37.6636 95.3755 37.9889 94.71 37.9889C93.7643 37.9889 93.2815 37.3284 93.2815 36.658C93.2815 35.5381 94.2848 34.925 96.0888 34.9348V34.8382C96.0888 34.4557 95.9835 33.7656 95.0279 33.7656C94.5928 33.7656 94.1398 33.8997 93.812 34.1107L93.6192 33.5547C94.0047 33.3062 94.5649 33.1426 95.153 33.1426C96.5815 33.1426 96.9292 34.1107 96.9292 35.0393V36.7724C96.9292 37.1746 96.949 37.567 97.0067 37.8824H96.2338ZM96.1086 35.5165C95.1828 35.4967 94.1298 35.6604 94.1298 36.5595C94.1298 37.1056 94.4974 37.3639 94.9305 37.3639C95.5384 37.3639 95.9239 36.9814 96.059 36.589C96.0868 36.5023 96.1067 36.4076 96.1067 36.3209V35.5165H96.1086Z" fill="#B4C0FF"/>
<path d="M98.2979 34.6943C98.2979 34.1481 98.288 33.6789 98.2582 33.249H99.0012L99.029 34.158H99.0688C99.2814 33.5349 99.792 33.1426 100.362 33.1426C100.46 33.1426 100.527 33.1524 100.603 33.1722V33.9667C100.515 33.947 100.428 33.9372 100.312 33.9372C99.7145 33.9372 99.2893 34.3867 99.1741 35.0196C99.1542 35.134 99.1363 35.268 99.1363 35.412V37.8824H98.2979V34.6943Z" fill="#B4C0FF"/>
<path d="M102.331 35.3723H102.351C102.466 35.2087 102.631 35.0076 102.766 34.8459L104.137 33.2469H105.16L103.356 35.1535L105.413 37.8823H104.38L102.768 35.6602L102.333 36.1393V37.8823H101.493V31.084H102.333V35.3723H102.331Z" fill="#B4C0FF"/>
<path d="M106.489 35.7176C106.509 36.8572 107.242 37.3264 108.091 37.3264C108.699 37.3264 109.066 37.2219 109.384 37.0879L109.529 37.6912C109.229 37.8253 108.719 37.9791 107.975 37.9791C106.537 37.9791 105.679 37.0405 105.679 35.6426C105.679 34.2447 106.509 33.1426 107.87 33.1426C109.394 33.1426 109.799 34.4734 109.799 35.3252C109.799 35.4967 109.779 35.6308 109.771 35.7176H106.489ZM108.979 35.1142C108.989 34.5779 108.756 33.7439 107.801 33.7439C106.942 33.7439 106.565 34.5287 106.497 35.1142H108.979Z" fill="#B4C0FF"/>
<path d="M111.873 31.916V33.2469H113.089V33.8877H111.873V36.3877C111.873 36.9615 112.038 37.2888 112.511 37.2888C112.734 37.2888 112.897 37.2592 113.004 37.2316L113.042 37.8645C112.879 37.9315 112.617 37.9789 112.289 37.9789C111.893 37.9789 111.575 37.8546 111.371 37.624C111.13 37.3755 111.043 36.9635 111.043 36.4173V33.8896H110.32V33.2489H111.043V32.1388L111.873 31.916Z" fill="#B4C0FF"/>
<path d="M114.989 31.9454C114.999 32.2332 114.786 32.462 114.448 32.462C114.148 32.462 113.938 32.2313 113.938 31.9454C113.938 31.6496 114.16 31.4189 114.468 31.4189C114.786 31.4189 114.989 31.6477 114.989 31.9454ZM114.043 37.882V33.2467H114.891V37.882H114.043Z" fill="#B4C0FF"/>
<path d="M116.302 34.503C116.302 34.0239 116.292 33.6315 116.262 33.249H117.015L117.063 34.016H117.083C117.315 33.5763 117.854 33.1445 118.627 33.1445C119.272 33.1445 120.276 33.527 120.276 35.1182V37.8864H119.427V35.2148C119.427 34.4675 119.147 33.8445 118.346 33.8445C117.786 33.8445 117.353 34.2368 117.208 34.7061C117.17 34.8106 117.15 34.9545 117.15 35.0984V37.8844H116.302V34.503Z" fill="#B4C0FF"/>
<path d="M125.679 33.2471C125.66 33.5822 125.64 33.9549 125.64 34.5207V37.2121C125.64 38.2748 125.427 38.9254 124.974 39.3276C124.521 39.7496 123.866 39.8837 123.275 39.8837C122.715 39.8837 122.097 39.7496 121.722 39.5012L121.934 38.8604C122.242 39.0516 122.725 39.2251 123.305 39.2251C124.174 39.2251 124.811 38.7756 124.811 37.6064V37.0898H124.791C124.531 37.5216 124.028 37.8647 123.305 37.8647C122.147 37.8647 121.319 36.8887 121.319 35.6052C121.319 34.0357 122.352 33.1445 123.423 33.1445C124.233 33.1445 124.676 33.5665 124.879 33.949H124.899L124.938 33.249H125.679V33.2471ZM124.801 35.0768C124.801 34.9328 124.791 34.8086 124.754 34.6943C124.599 34.2053 124.183 33.8031 123.568 33.8031C122.757 33.8031 122.179 34.4833 122.179 35.5559C122.179 36.4648 122.642 37.2219 123.56 37.2219C124.08 37.2219 124.553 36.8966 124.738 36.3603C124.785 36.2164 124.805 36.0547 124.805 35.9108V35.0768H124.801Z" fill="#B4C0FF"/>
<path d="M133.195 37.882C133.012 37.7006 132.838 37.5172 132.587 37.2491C132.027 37.7657 131.401 37.9865 130.686 37.9865C129.422 37.9865 128.689 37.1446 128.689 36.1765C128.689 35.2952 129.22 34.6918 129.963 34.2896V34.2601C129.625 33.8381 129.422 33.3689 129.422 32.9095C129.422 32.1247 129.993 31.3203 131.071 31.3203C131.882 31.3203 132.51 31.8566 132.51 32.6906C132.51 33.3708 132.114 33.9071 131.081 34.4138V34.4434C131.632 35.0763 132.25 35.7841 132.663 36.2435C132.963 35.794 133.165 35.171 133.291 34.3567H134.063C133.889 35.3721 133.61 36.1765 133.128 36.7404C133.475 37.1052 133.813 37.4679 134.199 37.88H133.195V37.882ZM132.172 36.7719C131.787 36.35 131.061 35.5653 130.338 34.7411C129.991 34.962 129.498 35.374 129.498 36.0523C129.498 36.7897 130.048 37.3556 130.829 37.3556C131.391 37.3556 131.864 37.1071 132.172 36.7719ZM130.195 32.8345C130.195 33.2939 130.408 33.6488 130.688 33.9939C131.344 33.6212 131.769 33.2762 131.769 32.73C131.769 32.3377 131.546 31.896 131.016 31.896C130.473 31.898 130.195 32.3377 130.195 32.8345Z" fill="#B4C0FF"/>
<path d="M137.006 31.5041C137.411 31.4371 137.942 31.3799 138.617 31.3799C139.448 31.3799 140.056 31.5711 140.441 31.9162C140.799 32.2218 141.011 32.691 141.011 33.2668C141.011 33.8504 140.837 34.3098 140.509 34.6449C140.066 35.1142 139.34 35.3528 138.522 35.3528C138.272 35.3528 138.039 35.3429 137.846 35.2956V37.8804H137.008V31.5041H137.006ZM137.846 34.6173C138.029 34.6647 138.262 34.6844 138.542 34.6844C139.555 34.6844 140.173 34.1954 140.173 33.3062C140.173 32.4544 139.565 32.0424 138.639 32.0424C138.272 32.0424 137.993 32.0719 137.848 32.1094V34.6173H137.846Z" fill="#B4C0FF"/>
<path d="M142.14 31.514C142.565 31.4272 143.173 31.3799 143.751 31.3799C144.649 31.3799 145.227 31.5435 145.632 31.9063C145.96 32.1942 146.143 32.6339 146.143 33.1327C146.143 33.9844 145.603 34.5503 144.917 34.779V34.8086C145.42 34.9801 145.718 35.4415 145.873 36.1119C146.085 37.0129 146.24 37.634 146.375 37.8844H145.507C145.402 37.703 145.257 37.147 145.072 36.3425C144.879 35.4514 144.532 35.1162 143.769 35.0886H142.978V37.8844H142.14V31.514ZM142.978 34.4537H143.836C144.734 34.4537 145.303 33.9647 145.303 33.2273C145.303 32.3933 144.695 32.0305 143.807 32.0207C143.401 32.0207 143.111 32.0581 142.976 32.0976V34.4537H142.978Z" fill="#B4C0FF"/>
</g>
<defs>
<filter id="filter0_ii" x="-1" y="-1" width="154" height="50" filterUnits="userSpaceOnUse" color-interpolation-filters="sRGB">
<feFlood flood-opacity="0" result="BackgroundImageFix"/>
<feBlend mode="normal" in="SourceGraphic" in2="BackgroundImageFix" result="shape"/>
<feColorMatrix in="SourceAlpha" type="matrix" values="0 0 0 0 0 0 0 0 0 0 0 0 0 0 0 0 0 0 127 0" result="hardAlpha"/>
<feOffset dx="-1" dy="-1"/>
<feGaussianBlur stdDeviation="0.5"/>
<feComposite in2="hardAlpha" operator="arithmetic" k2="-1" k3="1"/>
<feColorMatrix type="matrix" values="0 0 0 0 0.399375 0 0 0 0 0.445312 0 0 0 0 0.675 0 0 0 0.4 0"/>
<feBlend mode="normal" in2="shape" result="effect1_innerShadow"/>
<feColorMatrix in="SourceAlpha" type="matrix" values="0 0 0 0 0 0 0 0 0 0 0 0 0 0 0 0 0 0 127 0" result="hardAlpha"/>
<feOffset dx="1" dy="1"/>
<feGaussianBlur stdDeviation="1"/>
<feComposite in2="hardAlpha" operator="arithmetic" k2="-1" k3="1"/>
<feColorMatrix type="matrix" values="0 0 0 0 1 0 0 0 0 1 0 0 0 0 1 0 0 0 0.32 0"/>
<feBlend mode="normal" in2="effect1_innerShadow" result="effect2_innerShadow"/>
</filter>
<linearGradient id="paint0_linear" x1="22" y1="7.16497e-07" x2="22" y2="48" gradientUnits="userSpaceOnUse">
<stop stop-color="#648FFF"/>
<stop offset="1" stop-color="#3B60E4"/>
</linearGradient>
<linearGradient id="paint1_linear" x1="19.7586" y1="8.08789" x2="19.7586" y2="34.7878" gradientUnits="userSpaceOnUse">
<stop stop-color="#648FFF"/>
<stop offset="1" stop-color="#3B60E4"/>
</linearGradient>
<linearGradient id="paint2_linear" x1="28.7969" y1="30.1465" x2="28.7969" y2="39.7152" gradientUnits="userSpaceOnUse">
<stop stop-color="#648FFF"/>
<stop offset="1" stop-color="#3B60E4"/>
</linearGradient>
<linearGradient id="paint3_linear" x1="34.5304" y1="22.5962" x2="34.5304" y2="28.9247" gradientUnits="userSpaceOnUse">
<stop stop-color="#648FFF"/>
<stop offset="1" stop-color="#3B60E4"/>
</linearGradient>
</defs>
</svg>
