<svg width="34" height="33" viewBox="0 0 34 33" fill="none" xmlns="http://www.w3.org/2000/svg">
<g filter="url(#filter0_i)">
<path fill-rule="evenodd" clip-rule="evenodd" d="M7.60084 10.568V32.1594H0.42424V10.568H7.60084ZM8.07281 3.89004C8.07281 5.96204 6.51513 7.62002 4.0125 7.62002H4.01237H3.96573C1.55734 7.62002 0 5.96204 0 3.89004C0 1.7714 1.60508 0.159424 4.05998 0.159424C6.51514 0.159424 8.02617 1.7714 8.07281 3.89004ZM18.7484 32.1594H11.5721C11.5721 32.1594 11.6662 12.594 11.5721 10.568H18.7486V13.6249C19.7023 12.1537 21.4093 10.0613 25.2162 10.0613C29.9378 10.0613 33.4784 13.1473 33.4784 19.7792V32.1594H26.3024V20.6085C26.3024 17.7059 25.2636 15.7259 22.6667 15.7259C20.6842 15.7259 19.5033 17.0613 18.9845 18.3506C18.795 18.8119 18.7484 19.4565 18.7484 20.1018V32.1594ZM18.7486 13.6249V13.6993H18.7007C18.7164 13.6747 18.7324 13.6499 18.7486 13.6249Z" fill="url(#paint0_linear)"/>
</g>
<defs>
<filter id="filter0_i" x="0" y="0.159424" width="33.4784" height="33" filterUnits="userSpaceOnUse" color-interpolation-filters="sRGB">
<feFlood flood-opacity="0" result="BackgroundImageFix"/>
<feBlend mode="normal" in="SourceGraphic" in2="BackgroundImageFix" result="shape"/>
<feColorMatrix in="SourceAlpha" type="matrix" values="0 0 0 0 0 0 0 0 0 0 0 0 0 0 0 0 0 0 127 0" result="hardAlpha"/>
<feOffset dy="1"/>
<feGaussianBlur stdDeviation="1"/>
<feComposite in2="hardAlpha" operator="arithmetic" k2="-1" k3="1"/>
<feColorMatrix type="matrix" values="0 0 0 0 0.231373 0 0 0 0 0.25098 0 0 0 0 0.380392 0 0 0 0.53 0"/>
<feBlend mode="normal" in2="shape" result="effect1_innerShadow"/>
</filter>
<linearGradient id="paint0_linear" x1="0" y1="32.1594" x2="32.8572" y2="14.9719" gradientUnits="userSpaceOnUse">
<stop stop-color="#9299C2"/>
<stop offset="1" stop-color="#D2D6EF"/>
</linearGradient>
</defs>
</svg>
