<svg width="40" height="28" viewBox="0 0 40 28" fill="none" xmlns="http://www.w3.org/2000/svg">
<g filter="url(#filter0_i)">
<path fill-rule="evenodd" clip-rule="evenodd" d="M9.25109 26.6472V25.5307C9.25109 24.0874 9.52297 22.6725 10.0382 21.3534C9.89028 21.3884 9.73732 21.4145 9.5796 21.4307L9.5843 21.4388C8.07231 21.598 6.48543 20.7675 5.92305 19.1103L2.35923 21.1726L5.01408 25.7603C5.81222 27.1395 7.5835 27.6122 8.96272 26.8141L9.25109 26.6472ZM16.152 14.9824L15.3753 13.6403L11.8115 15.7026L11.8115 15.7027L11.7919 15.714C12.2161 16.1957 12.4988 16.7834 12.6072 17.4142C12.6225 17.3988 12.6378 17.3835 12.6532 17.3682C13.6722 16.3558 14.8607 15.5516 16.152 14.9824ZM1.44185 13.8177L9.43577 9.19166C10.815 8.39352 12.5863 8.86622 13.3844 10.2454L14.6719 12.4702L10.5839 14.8359C9.61047 14.4118 8.45492 14.4381 7.46708 15.0098C6.4794 15.5813 5.88081 16.5701 5.76348 17.6254L1.67552 19.9911L0.388071 17.7663C-0.410073 16.3871 0.0626283 14.6158 1.44185 13.8177ZM10.141 12.7259C10.3297 13.0519 10.7475 13.1636 11.0735 12.9749C11.3997 12.7862 11.511 12.3683 11.3224 12.0423C11.1337 11.7161 10.7159 11.6046 10.3898 11.7934C10.0638 11.982 9.95228 12.3998 10.141 12.7259ZM8.15088 16.1913C7.15196 16.7693 6.8097 18.0524 7.38776 19.0513C7.96574 20.05 9.24868 20.3925 10.2476 19.8145C11.2465 19.2364 11.5889 17.9533 11.011 16.9546C10.4354 15.9599 9.15364 15.611 8.15088 16.1913Z" fill="black"/>
<path fill-rule="evenodd" clip-rule="evenodd" d="M9.25109 26.6472V25.5307C9.25109 24.0874 9.52297 22.6725 10.0382 21.3534C9.89028 21.3884 9.73732 21.4145 9.5796 21.4307L9.5843 21.4388C8.07231 21.598 6.48543 20.7675 5.92305 19.1103L2.35923 21.1726L5.01408 25.7603C5.81222 27.1395 7.5835 27.6122 8.96272 26.8141L9.25109 26.6472ZM16.152 14.9824L15.3753 13.6403L11.8115 15.7026L11.8115 15.7027L11.7919 15.714C12.2161 16.1957 12.4988 16.7834 12.6072 17.4142C12.6225 17.3988 12.6378 17.3835 12.6532 17.3682C13.6722 16.3558 14.8607 15.5516 16.152 14.9824ZM1.44185 13.8177L9.43577 9.19166C10.815 8.39352 12.5863 8.86622 13.3844 10.2454L14.6719 12.4702L10.5839 14.8359C9.61047 14.4118 8.45492 14.4381 7.46708 15.0098C6.4794 15.5813 5.88081 16.5701 5.76348 17.6254L1.67552 19.9911L0.388071 17.7663C-0.410073 16.3871 0.0626283 14.6158 1.44185 13.8177ZM10.141 12.7259C10.3297 13.0519 10.7475 13.1636 11.0735 12.9749C11.3997 12.7862 11.511 12.3683 11.3224 12.0423C11.1337 11.7161 10.7159 11.6046 10.3898 11.7934C10.0638 11.982 9.95228 12.3998 10.141 12.7259ZM8.15088 16.1913C7.15196 16.7693 6.8097 18.0524 7.38776 19.0513C7.96574 20.05 9.24868 20.3925 10.2476 19.8145C11.2465 19.2364 11.5889 17.9533 11.011 16.9546C10.4354 15.9599 9.15364 15.611 8.15088 16.1913Z" fill="url(#paint0_linear)"/>
<path fill-rule="evenodd" clip-rule="evenodd" d="M28.5016 5.89166C28.5016 7.91361 27.693 9.85047 26.2574 11.2768C25.5217 12.0076 24.6524 12.5738 23.707 12.9521C24.544 13.7846 25.8349 14.7482 27.6682 16.0183C34.1439 20.5046 34.662 19.9988 37.8235 15.4354C40.9849 10.872 41.2764 10.2092 34.8007 5.72294C31.0169 3.10157 29.2671 2.18458 27.8355 2.78555C28.2703 3.75318 28.5016 4.81025 28.5016 5.89166ZM26.4339 3.89969C26.6629 4.5328 26.7832 5.20607 26.7832 5.89166C26.7832 7.45423 26.1584 8.9528 25.0462 10.0577C24.3693 10.7303 23.5455 11.2234 22.6498 11.5064C22.6498 11.5064 22.6498 11.5064 22.6498 11.5064C23.5455 11.2234 24.3693 10.7303 25.0462 10.0577C26.1583 8.9528 26.7831 7.45423 26.7831 5.89166C26.7831 5.20608 26.6628 4.53283 26.4339 3.89973C26.4339 3.89972 26.4339 3.89971 26.4339 3.89969ZM29.2623 11.9086L33.1915 12.5569C33.5357 12.6133 33.6746 12.4128 33.5009 12.1103L31.5132 8.65952C31.3385 8.35845 31.0314 8.34851 30.8309 8.63799L29.0024 11.2773C28.8014 11.5675 28.9191 11.8509 29.2623 11.9086Z" fill="url(#paint1_linear)"/>
<path d="M26.7831 5.89168C26.7831 7.45425 26.1583 8.95282 25.0462 10.0577C23.934 11.1626 22.4257 11.7834 20.8529 11.7834C19.2801 11.7834 17.7717 11.1626 16.6596 10.0577C15.5475 8.95282 14.9227 7.45425 14.9227 5.89168C14.9227 4.32911 15.5475 2.83054 16.6596 1.72563C17.7717 0.620729 19.2801 0 20.8529 0C22.4257 0 23.934 0.620729 25.0462 1.72563C26.1583 2.83054 26.7831 4.32911 26.7831 5.89168Z" fill="url(#paint2_linear)"/>
<path d="M20.8531 15.7113C23.4744 15.7113 25.9883 16.7459 27.8419 18.5874C29.6954 20.4289 30.7367 22.9265 30.7367 25.5308C30.7367 26.6154 29.8574 27.4947 28.7728 27.4947H12.9333C11.8487 27.4947 10.9694 26.6154 10.9694 25.5308C10.9694 22.9265 12.0107 20.4289 13.8643 18.5874C15.7178 16.7459 18.2318 15.7113 20.8531 15.7113Z" fill="url(#paint3_linear)"/>
</g>
<defs>
<filter id="filter0_i" x="0" y="0" width="40" height="28.4947" filterUnits="userSpaceOnUse" color-interpolation-filters="sRGB">
<feFlood flood-opacity="0" result="BackgroundImageFix"/>
<feBlend mode="normal" in="SourceGraphic" in2="BackgroundImageFix" result="shape"/>
<feColorMatrix in="SourceAlpha" type="matrix" values="0 0 0 0 0 0 0 0 0 0 0 0 0 0 0 0 0 0 127 0" result="hardAlpha"/>
<feOffset dy="1"/>
<feGaussianBlur stdDeviation="1"/>
<feComposite in2="hardAlpha" operator="arithmetic" k2="-1" k3="1"/>
<feColorMatrix type="matrix" values="0 0 0 0 0.231373 0 0 0 0 0.25098 0 0 0 0 0.380392 0 0 0 0.53 0"/>
<feBlend mode="normal" in2="shape" result="effect1_innerShadow"/>
</filter>
<linearGradient id="paint0_linear" x1="0" y1="8.80359" x2="9.89027" y2="26.1688" gradientUnits="userSpaceOnUse">
<stop stop-color="#9299C2"/>
<stop offset="1" stop-color="#D2D6EF"/>
</linearGradient>
<linearGradient id="paint1_linear" x1="24.1086" y1="0.859166" x2="32.6024" y2="15.7622" gradientUnits="userSpaceOnUse">
<stop stop-color="#9299C2"/>
<stop offset="1" stop-color="#D2D6EF"/>
</linearGradient>
<linearGradient id="paint2_linear" x1="14.9227" y1="0" x2="20.7913" y2="11.8139" gradientUnits="userSpaceOnUse">
<stop stop-color="#9299C2"/>
<stop offset="1" stop-color="#D2D6EF"/>
</linearGradient>
<linearGradient id="paint3_linear" x1="10.9694" y1="15.7113" x2="15.0013" y2="29.2388" gradientUnits="userSpaceOnUse">
<stop stop-color="#9299C2"/>
<stop offset="1" stop-color="#D2D6EF"/>
</linearGradient>
</defs>
</svg>
