<svg width="32" height="32" viewBox="0 0 32 32" fill="none" xmlns="http://www.w3.org/2000/svg">
<g filter="url(#filter0_i)">
<path fill-rule="evenodd" clip-rule="evenodd" d="M24.2878 3.85594C24.2878 1.72797 26.0158 0 28.1437 0C30.2717 0 31.9997 1.72797 31.9997 3.85594C31.9997 5.98391 30.2717 7.71188 28.1437 7.71188C26.0158 7.71188 24.2878 5.98391 24.2878 3.85594ZM18.1277 20.4145L22.7517 14.4482L22.6877 14.4802C22.9437 14.1282 22.9917 13.6802 22.8157 13.2802C22.6413 12.8802 22.2557 12.6082 21.8413 12.5762C21.4077 12.5282 20.9773 12.7202 20.7197 13.0722L16.8493 18.0802L12.4158 14.5922C12.1438 14.3842 11.8238 14.3026 11.5038 14.3362C11.1854 14.3842 10.8974 14.5586 10.7038 14.8146L5.96951 20.9761L5.87191 21.1201C5.59992 21.6305 5.72792 22.2865 6.20791 22.6401C6.43191 22.7841 6.6719 22.8801 6.9439 22.8801C7.31349 22.8961 7.66389 22.7025 7.88788 22.4001L11.9038 17.2306L16.4638 20.6561L16.6078 20.7505C17.1197 21.0225 17.7597 20.8961 18.1277 20.4145ZM21.5197 2.84839C21.4557 3.24839 21.4237 3.64838 21.4237 4.04838C21.4237 7.64832 24.3356 10.5587 27.9196 10.5587C28.3196 10.5587 28.7036 10.5123 29.1036 10.4483V23.3585C29.1036 28.784 25.9036 32 20.4637 32H8.64147C3.19995 32 0 28.784 0 23.3585V11.5203C0 6.08035 3.19995 2.84839 8.64147 2.84839H21.5197Z" fill="#200E32"/>
<path fill-rule="evenodd" clip-rule="evenodd" d="M24.2878 3.85594C24.2878 1.72797 26.0158 0 28.1437 0C30.2717 0 31.9997 1.72797 31.9997 3.85594C31.9997 5.98391 30.2717 7.71188 28.1437 7.71188C26.0158 7.71188 24.2878 5.98391 24.2878 3.85594ZM18.1277 20.4145L22.7517 14.4482L22.6877 14.4802C22.9437 14.1282 22.9917 13.6802 22.8157 13.2802C22.6413 12.8802 22.2557 12.6082 21.8413 12.5762C21.4077 12.5282 20.9773 12.7202 20.7197 13.0722L16.8493 18.0802L12.4158 14.5922C12.1438 14.3842 11.8238 14.3026 11.5038 14.3362C11.1854 14.3842 10.8974 14.5586 10.7038 14.8146L5.96951 20.9761L5.87191 21.1201C5.59992 21.6305 5.72792 22.2865 6.20791 22.6401C6.43191 22.7841 6.6719 22.8801 6.9439 22.8801C7.31349 22.8961 7.66389 22.7025 7.88788 22.4001L11.9038 17.2306L16.4638 20.6561L16.6078 20.7505C17.1197 21.0225 17.7597 20.8961 18.1277 20.4145ZM21.5197 2.84839C21.4557 3.24839 21.4237 3.64838 21.4237 4.04838C21.4237 7.64832 24.3356 10.5587 27.9196 10.5587C28.3196 10.5587 28.7036 10.5123 29.1036 10.4483V23.3585C29.1036 28.784 25.9036 32 20.4637 32H8.64147C3.19995 32 0 28.784 0 23.3585V11.5203C0 6.08035 3.19995 2.84839 8.64147 2.84839H21.5197Z" fill="url(#paint0_linear)"/>
</g>
<defs>
<filter id="filter0_i" x="0" y="0" width="31.9997" height="33" filterUnits="userSpaceOnUse" color-interpolation-filters="sRGB">
<feFlood flood-opacity="0" result="BackgroundImageFix"/>
<feBlend mode="normal" in="SourceGraphic" in2="BackgroundImageFix" result="shape"/>
<feColorMatrix in="SourceAlpha" type="matrix" values="0 0 0 0 0 0 0 0 0 0 0 0 0 0 0 0 0 0 127 0" result="hardAlpha"/>
<feOffset dy="1"/>
<feGaussianBlur stdDeviation="1"/>
<feComposite in2="hardAlpha" operator="arithmetic" k2="-1" k3="1"/>
<feColorMatrix type="matrix" values="0 0 0 0 0.231373 0 0 0 0 0.25098 0 0 0 0 0.380392 0 0 0 0.53 0"/>
<feBlend mode="normal" in2="shape" result="effect1_innerShadow"/>
</filter>
<linearGradient id="paint0_linear" x1="0" y1="0" x2="16.0001" y2="31.9999" gradientUnits="userSpaceOnUse">
<stop stop-color="#9299C2"/>
<stop offset="1" stop-color="#D2D6EF"/>
</linearGradient>
</defs>
</svg>
