<svg width="40" height="32" viewBox="0 0 40 32" fill="none" xmlns="http://www.w3.org/2000/svg">
<g filter="url(#filter0_i)">
<path fill-rule="evenodd" clip-rule="evenodd" d="M8 0C3.58172 0 0 3.58172 0 8V24C0 28.4183 3.58172 32 8 32H32C36.4183 32 40 28.4183 40 24V8C40 3.58172 36.4183 0 32 0H8ZM26.2543 8.59537L27.7704 8.25939L26.3168 7.59506L26.4166 5.99998L25.4053 7.17845L23.8942 6.48786L24.7591 7.93137L23.7044 9.16044L25.2856 8.81003L26.1506 10.2535L26.2543 8.59537ZM12.1071 15.4653L10.6339 19.885L14.5848 17.1687L18.5357 19.885L17.0625 15.4653L21.1697 12.6416H16.1213L14.5848 8.03215L13.0484 12.6416H7.99998L12.1071 15.4653ZM31.8737 13.4599L30.346 13.1815L29.6073 14.6697L29.3699 13.0037L27.7766 12.7134L29.2254 11.9896L28.988 10.3236L30.1129 11.5462L31.5021 10.8522L30.7916 12.2838L31.8737 13.4599ZM29.9942 19.879L31.2757 20.7562L30.7673 19.241L31.9999 18.2238L30.4484 18.2908L29.9199 16.7157L29.4572 18.3337L27.8392 18.4036L29.1756 19.3185L28.7129 20.9365L29.9942 19.879ZM26.1075 25.5226L25.2643 24.2185L23.6739 24.699L24.7256 23.3854L23.8463 22.0253L25.3658 22.5857L26.4175 21.272L26.2966 22.929L27.7536 23.4664L26.2237 23.9286L26.1075 25.5226Z" fill="#F0F3FF"/>
<path fill-rule="evenodd" clip-rule="evenodd" d="M8 0C3.58172 0 0 3.58172 0 8V24C0 28.4183 3.58172 32 8 32H32C36.4183 32 40 28.4183 40 24V8C40 3.58172 36.4183 0 32 0H8ZM26.2543 8.59537L27.7704 8.25939L26.3168 7.59506L26.4166 5.99998L25.4053 7.17845L23.8942 6.48786L24.7591 7.93137L23.7044 9.16044L25.2856 8.81003L26.1506 10.2535L26.2543 8.59537ZM12.1071 15.4653L10.6339 19.885L14.5848 17.1687L18.5357 19.885L17.0625 15.4653L21.1697 12.6416H16.1213L14.5848 8.03215L13.0484 12.6416H7.99998L12.1071 15.4653ZM31.8737 13.4599L30.346 13.1815L29.6073 14.6697L29.3699 13.0037L27.7766 12.7134L29.2254 11.9896L28.988 10.3236L30.1129 11.5462L31.5021 10.8522L30.7916 12.2838L31.8737 13.4599ZM29.9942 19.879L31.2757 20.7562L30.7673 19.241L31.9999 18.2238L30.4484 18.2908L29.9199 16.7157L29.4572 18.3337L27.8392 18.4036L29.1756 19.3185L28.7129 20.9365L29.9942 19.879ZM26.1075 25.5226L25.2643 24.2185L23.6739 24.699L24.7256 23.3854L23.8463 22.0253L25.3658 22.5857L26.4175 21.272L26.2966 22.929L27.7536 23.4664L26.2237 23.9286L26.1075 25.5226Z" fill="url(#paint0_linear)"/>
</g>
<defs>
<filter id="filter0_i" x="0" y="0" width="40" height="33" filterUnits="userSpaceOnUse" color-interpolation-filters="sRGB">
<feFlood flood-opacity="0" result="BackgroundImageFix"/>
<feBlend mode="normal" in="SourceGraphic" in2="BackgroundImageFix" result="shape"/>
<feColorMatrix in="SourceAlpha" type="matrix" values="0 0 0 0 0 0 0 0 0 0 0 0 0 0 0 0 0 0 127 0" result="hardAlpha"/>
<feOffset dy="1"/>
<feGaussianBlur stdDeviation="1"/>
<feComposite in2="hardAlpha" operator="arithmetic" k2="-1" k3="1"/>
<feColorMatrix type="matrix" values="0 0 0 0 0.231373 0 0 0 0 0.25098 0 0 0 0 0.380392 0 0 0 0.53 0"/>
<feBlend mode="normal" in2="shape" result="effect1_innerShadow"/>
</filter>
<linearGradient id="paint0_linear" x1="0" y1="0" x2="11.3879" y2="36.4413" gradientUnits="userSpaceOnUse">
<stop stop-color="#9299C2"/>
<stop offset="1" stop-color="#D2D6EF"/>
</linearGradient>
</defs>
</svg>
