<svg width="31" height="40" viewBox="0 0 31 40" fill="none" xmlns="http://www.w3.org/2000/svg">
<path d="M13.4598 20.9512L11.5557 28.5791C13.9071 29.1635 21.1529 31.4882 22.2264 27.1862C23.3445 22.6979 15.808 21.5355 13.4598 20.9512ZM16.0572 10.5374L14.332 17.4578C16.2872 17.9443 22.319 19.9342 23.2966 16.0207C24.3126 11.9367 18.0124 11.027 16.0572 10.5374ZM30.1431 16.0807C30.076 17.2924 29.6057 18.4483 28.8055 19.3685C28.0053 20.2887 26.92 20.9217 25.7183 21.1692C26.5083 21.4871 27.2231 21.9633 27.8176 22.5679C28.4122 23.1725 28.8736 23.8923 29.1729 24.6819C29.4721 25.4715 29.6027 26.3139 29.5563 27.1559C29.51 27.9979 29.2877 28.8212 28.9035 29.5741C27.0314 34.9184 22.5874 35.37 16.677 34.2519L15.675 38.2671C15.4362 39.2244 14.4664 39.8067 13.5092 39.5677C12.552 39.3288 11.9698 38.3591 12.2087 37.402L13.1914 33.4654C12.2969 33.2443 11.3768 33.0074 10.4311 32.7484L9.44116 36.716C9.20267 37.6718 8.23466 38.2536 7.27868 38.0155C6.32201 37.7773 5.73978 36.8085 5.97848 35.8519L6.98388 31.823C6.17239 31.6177 5.35132 31.3966 4.51109 31.1881L2.29104 30.6347C1.09178 30.3358 0.44802 29.0315 0.940145 27.8978L1.03685 27.675C1.43076 26.7675 2.42867 26.2871 3.38763 26.5301C3.86481 26.6511 4.25467 26.745 4.23953 26.7251C4.39849 26.7758 4.56608 26.7948 4.73254 26.7809C4.899 26.767 5.061 26.7205 5.20908 26.644C5.35717 26.5676 5.48839 26.4628 5.59508 26.3357C5.70178 26.2086 5.78182 26.0618 5.83055 25.9038L9.71864 10.3037C9.76848 9.82617 9.62771 9.34827 9.32634 8.97185C9.02496 8.59543 8.58682 8.35024 8.10526 8.28855C8.12252 8.27682 7.84076 8.20171 7.45994 8.10737C6.43293 7.85293 5.79549 6.82032 6.05238 5.79392C6.30571 4.78172 7.3315 4.16641 8.34378 4.41946L11.2873 5.15526L11.2841 5.17421C12.0029 5.35109 12.7441 5.52165 13.4981 5.69221L14.4845 1.73418C14.7231 0.776809 15.6929 0.19429 16.6501 0.433291C17.6072 0.672229 18.1893 1.64177 17.9503 2.59878L16.9901 6.44395C17.9197 6.65873 18.8558 6.87036 19.7695 7.09777L20.718 3.28844C20.9564 2.33099 21.9261 1.74833 22.8834 1.98734C23.8403 2.22625 24.4223 3.19572 24.1833 4.15262L23.1944 8.11167C27.5713 9.6183 30.7725 11.8798 30.1431 16.0807Z" fill="url(#paint0_linear)"/>
<defs>
<linearGradient id="paint0_linear" x1="0" y1="0.000488281" x2="33.0596" y2="12.4897" gradientUnits="userSpaceOnUse">
<stop stop-color="#9299C2"/>
<stop offset="1" stop-color="#D2D6EF"/>
</linearGradient>
</defs>
</svg>
