<svg width="32" height="32" viewBox="0 0 32 32" fill="none" xmlns="http://www.w3.org/2000/svg">
<g filter="url(#filter0_i)">
<path fill-rule="evenodd" clip-rule="evenodd" d="M22.499 13.2527L28.905 9.73049C30.414 8.90041 30.4133 6.72658 28.905 5.89675L18.678 0.273222C17.2207 -0.527802 15.437 0.524931 15.437 2.19021V4.75051H16.655C19.8774 4.75051 22.499 7.37234 22.499 10.5947V13.2527ZM16.655 6.62549H3.96923C1.78052 6.62549 0 8.406 0 10.5947V14.1252H6.4873C7.35278 12.9514 8.74462 12.1877 10.312 12.1877C11.8796 12.1877 13.2715 12.9514 14.1369 14.1252H20.6242V10.5947C20.6242 8.406 18.8437 6.62549 16.655 6.62549ZM15.9993 12.2498C15.4819 12.2498 15.062 11.8296 15.062 11.3123C15.062 10.7947 15.4819 10.3748 15.9993 10.3748C16.5168 10.3748 16.9368 10.7947 16.9368 11.3123C16.9368 11.8296 16.5168 12.2498 15.9993 12.2498ZM0 16.0002H5.65551C4.89892 19.7822 8.74242 22.8484 12.2495 21.2744V27.2497H3.96923C1.78052 27.2497 0 25.4692 0 23.2805V16.0002ZM14.6763 18.8125H19.7493V16.0002H14.9688C15.158 16.9458 15.0586 17.9258 14.6763 18.8125ZM7.43726 16.9377C7.43726 15.3525 8.72681 14.0627 10.312 14.0627C11.9033 14.0627 13.187 15.3594 13.187 16.9377C13.187 18.5227 11.8972 19.8125 10.312 19.8125C8.72681 19.8125 7.43726 18.5227 7.43726 16.9377ZM14.1245 31.9995H18.8118C19.3293 31.9995 19.7493 31.5796 19.7493 31.062V20.6875H14.1245V31.9995ZM26.1877 18.875H29.1862C30.7368 18.875 31.9987 20.137 31.9987 21.6875V26.6873C31.9987 29.6165 29.6157 31.9995 26.6865 31.9995H21.6242V16.2752C22.7021 14.6311 24.3159 14.5427 25.4309 15.2864C26.6176 16.0777 26.9509 17.677 26.1877 18.875Z" fill="black"/>
<path fill-rule="evenodd" clip-rule="evenodd" d="M22.499 13.2527L28.905 9.73049C30.414 8.90041 30.4133 6.72658 28.905 5.89675L18.678 0.273222C17.2207 -0.527802 15.437 0.524931 15.437 2.19021V4.75051H16.655C19.8774 4.75051 22.499 7.37234 22.499 10.5947V13.2527ZM16.655 6.62549H3.96923C1.78052 6.62549 0 8.406 0 10.5947V14.1252H6.4873C7.35278 12.9514 8.74462 12.1877 10.312 12.1877C11.8796 12.1877 13.2715 12.9514 14.1369 14.1252H20.6242V10.5947C20.6242 8.406 18.8437 6.62549 16.655 6.62549ZM15.9993 12.2498C15.4819 12.2498 15.062 11.8296 15.062 11.3123C15.062 10.7947 15.4819 10.3748 15.9993 10.3748C16.5168 10.3748 16.9368 10.7947 16.9368 11.3123C16.9368 11.8296 16.5168 12.2498 15.9993 12.2498ZM0 16.0002H5.65551C4.89892 19.7822 8.74242 22.8484 12.2495 21.2744V27.2497H3.96923C1.78052 27.2497 0 25.4692 0 23.2805V16.0002ZM14.6763 18.8125H19.7493V16.0002H14.9688C15.158 16.9458 15.0586 17.9258 14.6763 18.8125ZM7.43726 16.9377C7.43726 15.3525 8.72681 14.0627 10.312 14.0627C11.9033 14.0627 13.187 15.3594 13.187 16.9377C13.187 18.5227 11.8972 19.8125 10.312 19.8125C8.72681 19.8125 7.43726 18.5227 7.43726 16.9377ZM14.1245 31.9995H18.8118C19.3293 31.9995 19.7493 31.5796 19.7493 31.062V20.6875H14.1245V31.9995ZM26.1877 18.875H29.1862C30.7368 18.875 31.9987 20.137 31.9987 21.6875V26.6873C31.9987 29.6165 29.6157 31.9995 26.6865 31.9995H21.6242V16.2752C22.7021 14.6311 24.3159 14.5427 25.4309 15.2864C26.6176 16.0777 26.9509 17.677 26.1877 18.875Z" fill="url(#paint0_linear)"/>
</g>
<defs>
<filter id="filter0_i" x="0" y="-0.000488281" width="31.9987" height="33" filterUnits="userSpaceOnUse" color-interpolation-filters="sRGB">
<feFlood flood-opacity="0" result="BackgroundImageFix"/>
<feBlend mode="normal" in="SourceGraphic" in2="BackgroundImageFix" result="shape"/>
<feColorMatrix in="SourceAlpha" type="matrix" values="0 0 0 0 0 0 0 0 0 0 0 0 0 0 0 0 0 0 127 0" result="hardAlpha"/>
<feOffset dy="1"/>
<feGaussianBlur stdDeviation="1"/>
<feComposite in2="hardAlpha" operator="arithmetic" k2="-1" k3="1"/>
<feColorMatrix type="matrix" values="0 0 0 0 0.231373 0 0 0 0 0.25098 0 0 0 0 0.380392 0 0 0 0.53 0"/>
<feBlend mode="normal" in2="shape" result="effect1_innerShadow"/>
</filter>
<linearGradient id="paint0_linear" x1="0" y1="-0.000488281" x2="31.9992" y2="15.9985" gradientUnits="userSpaceOnUse">
<stop stop-color="#9299C2"/>
<stop offset="1" stop-color="#D2D6EF"/>
</linearGradient>
</defs>
</svg>
