<svg width="32" height="29" viewBox="0 0 32 29" fill="none" xmlns="http://www.w3.org/2000/svg">
<g filter="url(#filter0_i)">
<path d="M20.6667 13.5577C24 13.5577 26.6667 16.2693 26.6667 19.6587C26.6667 20.8518 26.3333 21.9771 25.7467 22.9126L29.8533 27.1155L28 29L23.84 24.8378C22.92 25.4208 21.8267 25.7597 20.6667 25.7597C17.3333 25.7597 14.6667 23.0482 14.6667 19.6587C14.6667 16.2693 17.3333 13.5577 20.6667 13.5577ZM20.6667 16.2693C19.7826 16.2693 18.9348 16.6264 18.3096 17.262C17.6845 17.8977 17.3333 18.7598 17.3333 19.6587C17.3333 20.5577 17.6845 21.4198 18.3096 22.0554C18.9348 22.6911 19.7826 23.0482 20.6667 23.0482C21.5507 23.0482 22.3986 22.6911 23.0237 22.0554C23.6488 21.4198 24 20.5577 24 19.6587C24 18.7598 23.6488 17.8977 23.0237 17.262C22.3986 16.6264 21.5507 16.2693 20.6667 16.2693ZM25.8 8.17532C29.2667 8.43291 32 11.3343 32 14.9135C32 17.137 30.9467 19.1164 29.3333 20.3366V19.6587C29.3333 18.5014 29.1092 17.3555 28.6736 16.2863C28.2381 15.2171 27.5997 14.2456 26.7949 13.4273C25.9902 12.609 25.0347 11.9599 23.9833 11.517C22.9318 11.0741 21.8048 10.8462 20.6667 10.8462C18.3681 10.8462 16.1637 11.7747 14.5384 13.4273C12.9131 15.08 12 17.3215 12 19.6587C12 20.3366 12.08 21.0145 12.2267 21.6924H8C5.87827 21.6924 3.84344 20.8353 2.34315 19.3098C0.842855 17.7843 0 15.7152 0 13.5577C0 9.35484 3.12 5.91118 7.13333 5.46377C7.97973 3.81661 9.25356 2.43658 10.8166 1.4734C12.3797 0.510211 14.1723 0.000651975 16 1.22285e-06C18.3116 -0.00115181 20.552 0.813131 22.3391 2.30398C24.1262 3.79483 25.3494 5.8699 25.8 8.17532Z" fill="url(#paint0_linear)"/>
</g>
<defs>
<filter id="filter0_i" x="0" y="0" width="32" height="30" filterUnits="userSpaceOnUse" color-interpolation-filters="sRGB">
<feFlood flood-opacity="0" result="BackgroundImageFix"/>
<feBlend mode="normal" in="SourceGraphic" in2="BackgroundImageFix" result="shape"/>
<feColorMatrix in="SourceAlpha" type="matrix" values="0 0 0 0 0 0 0 0 0 0 0 0 0 0 0 0 0 0 127 0" result="hardAlpha"/>
<feOffset dy="1"/>
<feGaussianBlur stdDeviation="1"/>
<feComposite in2="hardAlpha" operator="arithmetic" k2="-1" k3="1"/>
<feColorMatrix type="matrix" values="0 0 0 0 0.231373 0 0 0 0 0.25098 0 0 0 0 0.380392 0 0 0 0.53 0"/>
<feBlend mode="normal" in2="shape" result="effect1_innerShadow"/>
</filter>
<linearGradient id="paint0_linear" x1="0" y1="0" x2="30.6655" y2="16.9189" gradientUnits="userSpaceOnUse">
<stop stop-color="#9299C2"/>
<stop offset="1" stop-color="#D2D6EF"/>
</linearGradient>
</defs>
</svg>
