<svg width="32" height="32" viewBox="0 0 32 32" fill="none" xmlns="http://www.w3.org/2000/svg">
<g clip-path="url(#clip0)" filter="url(#filter0_i)">
<path d="M6 8.33331V2.33331C6 1.98665 6.04 1.65331 6.13333 1.33331H2.33333C1.05333 1.33331 0 2.38665 0 3.66665V9.66665C0 10.9466 1.05333 12 2.33333 12H2.82667L4.53333 14.2666C4.72 14.5066 5 14.6533 5.29333 14.6666H5.33333C5.62667 14.6666 5.89333 14.5466 6.08 14.32L8.08 12.04C6.84 11.2666 6 9.89331 6 8.33331Z" fill="black"/>
<path d="M6 8.33331V2.33331C6 1.98665 6.04 1.65331 6.13333 1.33331H2.33333C1.05333 1.33331 0 2.38665 0 3.66665V9.66665C0 10.9466 1.05333 12 2.33333 12H2.82667L4.53333 14.2666C4.72 14.5066 5 14.6533 5.29333 14.6666H5.33333C5.62667 14.6666 5.89333 14.5466 6.08 14.32L8.08 12.04C6.84 11.2666 6 9.89331 6 8.33331Z" fill="url(#paint0_linear)"/>
<path d="M29.6667 1.33331H25.8666C25.96 1.65331 26 1.98665 26 2.33331V8.33331C26 9.89331 25.16 11.2666 23.92 12.04L25.92 14.32C26.1067 14.5466 26.3733 14.6666 26.6666 14.6666H26.7067C27 14.6533 27.28 14.5066 27.4667 14.2666L29.16 12H29.6667C30.9467 12 32 10.9466 32 9.66665V3.66665C32 2.38665 30.9467 1.33331 29.6667 1.33331Z" fill="black"/>
<path d="M29.6667 1.33331H25.8666C25.96 1.65331 26 1.98665 26 2.33331V8.33331C26 9.89331 25.16 11.2666 23.92 12.04L25.92 14.32C26.1067 14.5466 26.3733 14.6666 26.6666 14.6666H26.7067C27 14.6533 27.28 14.5066 27.4667 14.2666L29.16 12H29.6667C30.9467 12 32 10.9466 32 9.66665V3.66665C32 2.38665 30.9467 1.33331 29.6667 1.33331Z" fill="url(#paint1_linear)"/>
<path d="M16 13.3333C15.988 13.3333 15.9747 13.3333 15.9627 13.3333C15.6613 13.3213 15.3813 13.1747 15.2 12.9333L13.5 10.6667H10.3333C9.04667 10.6667 8 9.62 8 8.33333V2.33333C8 1.04667 9.04667 0 10.3333 0H21.6667C22.9533 0 24 1.04667 24 2.33333V8.33333C24 9.62 22.9533 10.6667 21.6667 10.6667H18.7867L16.752 12.992C16.5627 13.2093 16.288 13.3333 16 13.3333Z" fill="black"/>
<path d="M16 13.3333C15.988 13.3333 15.9747 13.3333 15.9627 13.3333C15.6613 13.3213 15.3813 13.1747 15.2 12.9333L13.5 10.6667H10.3333C9.04667 10.6667 8 9.62 8 8.33333V2.33333C8 1.04667 9.04667 0 10.3333 0H21.6667C22.9533 0 24 1.04667 24 2.33333V8.33333C24 9.62 22.9533 10.6667 21.6667 10.6667H18.7867L16.752 12.992C16.5627 13.2093 16.288 13.3333 16 13.3333Z" fill="url(#paint2_linear)"/>
<path d="M19.7777 19.6429C19.7777 20.609 19.3914 21.5356 18.7037 22.2187C18.0161 22.9019 17.0835 23.2857 16.111 23.2857C15.1385 23.2857 14.2059 22.9019 13.5183 22.2187C12.8306 21.5356 12.4443 20.609 12.4443 19.6429C12.4443 18.6767 12.8306 17.7501 13.5183 17.067C14.2059 16.3838 15.1385 16 16.111 16C17.0835 16 18.0161 16.3838 18.7037 17.067C19.3914 17.7501 19.7777 18.6767 19.7777 19.6429Z" fill="url(#paint3_linear)"/>
<path d="M16 26C17.5913 26 19.1174 26.5268 20.2426 27.4645C21.3679 28.4021 22 29.6739 22 31C22 31.5523 21.5523 32 21 32H11C10.4477 32 10 31.5523 10 31C10 29.6739 10.6321 28.4021 11.7574 27.4645C12.8826 26.5268 14.4087 26 16 26Z" fill="url(#paint4_linear)"/>
<path fill-rule="evenodd" clip-rule="evenodd" d="M29.9444 19.9598C29.9444 20.7448 29.6305 21.4977 29.0718 22.0527C28.5131 22.6078 27.7553 22.9196 26.9652 22.9196C26.1751 22.9196 25.4173 22.6078 24.8586 22.0527C24.2999 21.4977 23.986 20.7448 23.986 19.9598C23.986 19.1748 24.2999 18.422 24.8586 17.8669C25.4173 17.3118 26.1751 17 26.9652 17C27.7553 17 28.5131 17.3118 29.0718 17.8669C29.6305 18.422 29.9444 19.1748 29.9444 19.9598ZM26.875 24.5197C28.1679 24.5197 29.4079 24.9477 30.3222 25.7095C31.2364 26.4714 31.75 27.5047 31.75 28.5822C31.75 29.0309 31.3862 29.3947 30.9375 29.3947H23.7887C23.5403 28.4667 23.0817 27.6072 22.459 26.8613C22.6969 26.4374 23.0231 26.0468 23.4279 25.7095C24.3421 24.9477 25.5821 24.5197 26.875 24.5197Z" fill="url(#paint5_linear)"/>
<path fill-rule="evenodd" clip-rule="evenodd" d="M7.94436 19.9598C7.94436 20.7448 7.63048 21.4977 7.07178 22.0527C6.51308 22.6078 5.75531 22.9196 4.96519 22.9196C4.17507 22.9196 3.4173 22.6078 2.8586 22.0527C2.2999 21.4977 1.98602 20.7448 1.98602 19.9598C1.98602 19.1748 2.2999 18.422 2.8586 17.8669C3.4173 17.3118 4.17507 17 4.96519 17C5.75531 17 6.51308 17.3118 7.07178 17.8669C7.63048 18.422 7.94436 19.1748 7.94436 19.9598ZM4.875 24.5197C6.16793 24.5197 7.40791 24.9477 8.32215 25.7095C8.78601 26.0961 9.14675 26.5525 9.38958 27.0491C8.84369 27.7501 8.4391 28.5436 8.21134 29.3947H0.8125C0.363768 29.3947 0 29.0309 0 28.5822C0 27.5047 0.513615 26.4714 1.42785 25.7095C2.34209 24.9477 3.58207 24.5197 4.875 24.5197Z" fill="url(#paint6_linear)"/>
</g>
<defs>
<filter id="filter0_i" x="0" y="0" width="32" height="33" filterUnits="userSpaceOnUse" color-interpolation-filters="sRGB">
<feFlood flood-opacity="0" result="BackgroundImageFix"/>
<feBlend mode="normal" in="SourceGraphic" in2="BackgroundImageFix" result="shape"/>
<feColorMatrix in="SourceAlpha" type="matrix" values="0 0 0 0 0 0 0 0 0 0 0 0 0 0 0 0 0 0 127 0" result="hardAlpha"/>
<feOffset dy="1"/>
<feGaussianBlur stdDeviation="1"/>
<feComposite in2="hardAlpha" operator="arithmetic" k2="-1" k3="1"/>
<feColorMatrix type="matrix" values="0 0 0 0 0.231373 0 0 0 0 0.25098 0 0 0 0 0.380392 0 0 0 0.53 0"/>
<feBlend mode="normal" in2="shape" result="effect1_innerShadow"/>
</filter>
<linearGradient id="paint0_linear" x1="0" y1="1.33331" x2="9.2507" y2="4.13628" gradientUnits="userSpaceOnUse">
<stop stop-color="#9299C2"/>
<stop offset="1" stop-color="#D2D6EF"/>
</linearGradient>
<linearGradient id="paint1_linear" x1="23.92" y1="1.33331" x2="33.1707" y2="4.13628" gradientUnits="userSpaceOnUse">
<stop stop-color="#9299C2"/>
<stop offset="1" stop-color="#D2D6EF"/>
</linearGradient>
<linearGradient id="paint2_linear" x1="8" y1="0" x2="22.7059" y2="8.82353" gradientUnits="userSpaceOnUse">
<stop stop-color="#9299C2"/>
<stop offset="1" stop-color="#D2D6EF"/>
</linearGradient>
<linearGradient id="paint3_linear" x1="12.4443" y1="16" x2="16.0729" y2="23.3046" gradientUnits="userSpaceOnUse">
<stop stop-color="#9299C2"/>
<stop offset="1" stop-color="#D2D6EF"/>
</linearGradient>
<linearGradient id="paint4_linear" x1="10" y1="26" x2="11.7647" y2="33.0588" gradientUnits="userSpaceOnUse">
<stop stop-color="#9299C2"/>
<stop offset="1" stop-color="#D2D6EF"/>
</linearGradient>
<linearGradient id="paint5_linear" x1="22" y1="25.125" x2="23.4338" y2="30.8603" gradientUnits="userSpaceOnUse">
<stop stop-color="#9299C2"/>
<stop offset="1" stop-color="#D2D6EF"/>
</linearGradient>
<linearGradient id="paint6_linear" x1="-4.35859e-07" y1="25.125" x2="1.43382" y2="30.8603" gradientUnits="userSpaceOnUse">
<stop stop-color="#9299C2"/>
<stop offset="1" stop-color="#D2D6EF"/>
</linearGradient>
<clipPath id="clip0">
<rect width="32" height="32" fill="white"/>
</clipPath>
</defs>
</svg>
