<svg width="43" height="28" viewBox="0 0 43 28" fill="none" xmlns="http://www.w3.org/2000/svg">
<g filter="url(#filter0_i)">
<path d="M40.6363 4.70507C39.6135 4.21994 38.3565 4.17702 37.2849 4.58752L33.6675 5.96268C32.3299 6.4702 31.5 7.49644 31.5 8.63836V19.3598C31.5 20.4998 32.3299 21.5261 33.6675 22.0373L37.2825 23.4106C37.7731 23.5991 38.2979 23.6924 38.8227 23.6924C39.4524 23.6924 40.0773 23.558 40.6363 23.2949C41.659 22.8117 42.2692 21.9739 42.2692 21.054V6.946C42.2692 6.02798 41.659 5.18833 40.6363 4.70507Z" fill="url(#paint0_linear)"/>
<path d="M19.7846 0H8.21544C3.37766 0 0 3.11553 0 7.58037V20.4196C0 24.8845 3.37766 28 8.21544 28H19.7846C24.6223 28 28 24.8845 28 20.4196V7.58037C28 3.11553 24.6223 0 19.7846 0Z" fill="url(#paint1_linear)"/>
</g>
<defs>
<filter id="filter0_i" x="0" y="0" width="42.2692" height="29" filterUnits="userSpaceOnUse" color-interpolation-filters="sRGB">
<feFlood flood-opacity="0" result="BackgroundImageFix"/>
<feBlend mode="normal" in="SourceGraphic" in2="BackgroundImageFix" result="shape"/>
<feColorMatrix in="SourceAlpha" type="matrix" values="0 0 0 0 0 0 0 0 0 0 0 0 0 0 0 0 0 0 127 0" result="hardAlpha"/>
<feOffset dy="1"/>
<feGaussianBlur stdDeviation="1"/>
<feComposite in2="hardAlpha" operator="arithmetic" k2="-1" k3="1"/>
<feColorMatrix type="matrix" values="0 0 0 0 0.231373 0 0 0 0 0.25098 0 0 0 0 0.380392 0 0 0 0.53 0"/>
<feBlend mode="normal" in2="shape" result="effect1_innerShadow"/>
</filter>
<linearGradient id="paint0_linear" x1="31.5" y1="4.30774" x2="43.5484" y2="17.6949" gradientUnits="userSpaceOnUse">
<stop stop-color="#9299C2"/>
<stop offset="1" stop-color="#D2D6EF"/>
</linearGradient>
<linearGradient id="paint1_linear" x1="0" y1="0" x2="14" y2="28" gradientUnits="userSpaceOnUse">
<stop stop-color="#9299C2"/>
<stop offset="1" stop-color="#D2D6EF"/>
</linearGradient>
</defs>
</svg>
