<svg width="33" height="33" viewBox="0 0 33 33" fill="none" xmlns="http://www.w3.org/2000/svg">
<g filter="url(#filter0_i)">
<path fill-rule="evenodd" clip-rule="evenodd" d="M20.8721 11.969C21.1362 14.1991 19.3101 16.052 17.0644 16.052H14.9719C12.7262 16.052 10.9002 14.1991 11.1642 11.969C11.4609 9.46315 11.9647 7.16661 12.6128 5.28928C13.1497 3.73388 13.7672 2.52057 14.4062 1.71637C15.0565 0.897947 15.6086 0.644663 16.0182 0.644663C16.4277 0.644663 16.9798 0.897947 17.6302 1.71637C18.2692 2.52057 18.8866 3.73388 19.4235 5.28928C20.0716 7.16661 20.5754 9.46315 20.8721 11.969ZM6.32928 15.8128C7.83942 15.2648 8.94764 13.8353 9.13087 12.1498C9.43432 9.35831 9.98582 6.77007 10.7223 4.63668C11.2988 2.96658 12.0071 1.52074 12.8403 0.472149C13.0009 0.270053 12.8296 -0.0478144 12.5772 0.00605931C6.45197 1.31324 1.59282 6.03882 0.0923904 12.0901C-0.38142 14.001 1.02919 15.6525 2.90541 15.9893L8.63646 19.6736C9.07203 19.1046 9.65694 18.656 10.3326 18.3863L6.32928 15.8128ZM19.4592 0.00605574C19.2067 -0.0478178 19.0354 0.270052 19.196 0.472149C20.0292 1.52074 20.7376 2.96658 21.3141 4.63668C22.0505 6.77007 22.602 9.35831 22.9055 12.1498C23.0887 13.8353 24.1969 15.2648 25.7071 15.8128L21.7037 18.3863C22.3794 18.656 22.9643 19.1046 23.3999 19.6736L29.131 15.9893C31.0072 15.6525 32.4178 14.001 31.944 12.0901C30.4435 6.03881 25.5844 1.31323 19.4592 0.00605574Z" fill="#F0F3FF"/>
<path fill-rule="evenodd" clip-rule="evenodd" d="M20.8721 11.969C21.1362 14.1991 19.3101 16.052 17.0644 16.052H14.9719C12.7262 16.052 10.9002 14.1991 11.1642 11.969C11.4609 9.46315 11.9647 7.16661 12.6128 5.28928C13.1497 3.73388 13.7672 2.52057 14.4062 1.71637C15.0565 0.897947 15.6086 0.644663 16.0182 0.644663C16.4277 0.644663 16.9798 0.897947 17.6302 1.71637C18.2692 2.52057 18.8866 3.73388 19.4235 5.28928C20.0716 7.16661 20.5754 9.46315 20.8721 11.969ZM6.32928 15.8128C7.83942 15.2648 8.94764 13.8353 9.13087 12.1498C9.43432 9.35831 9.98582 6.77007 10.7223 4.63668C11.2988 2.96658 12.0071 1.52074 12.8403 0.472149C13.0009 0.270053 12.8296 -0.0478144 12.5772 0.00605931C6.45197 1.31324 1.59282 6.03882 0.0923904 12.0901C-0.38142 14.001 1.02919 15.6525 2.90541 15.9893L8.63646 19.6736C9.07203 19.1046 9.65694 18.656 10.3326 18.3863L6.32928 15.8128ZM19.4592 0.00605574C19.2067 -0.0478178 19.0354 0.270052 19.196 0.472149C20.0292 1.52074 20.7376 2.96658 21.3141 4.63668C22.0505 6.77007 22.602 9.35831 22.9055 12.1498C23.0887 13.8353 24.1969 15.2648 25.7071 15.8128L21.7037 18.3863C22.3794 18.656 22.9643 19.1046 23.3999 19.6736L29.131 15.9893C31.0072 15.6525 32.4178 14.001 31.944 12.0901C30.4435 6.03881 25.5844 1.31323 19.4592 0.00605574Z" fill="url(#paint0_linear)"/>
<path fill-rule="evenodd" clip-rule="evenodd" d="M13.8654 20.1538C11.6563 20.1538 9.86543 21.9447 9.86543 24.1538V28.4593C9.86543 30.6684 11.6563 32.4593 13.8654 32.4593H18.1709C20.3801 32.4593 22.1709 30.6684 22.1709 28.4593V24.1538C22.1709 21.9447 20.3801 20.1538 18.1709 20.1538H13.8654ZM18.5696 24.4097C18.5531 24.2434 18.536 24.0709 18.4938 23.8988C18.3789 23.4871 18.0606 23.2302 17.7193 23.2302C17.5289 23.2295 17.2881 23.352 17.1516 23.4761L16.02 24.4665H13.842C13.406 24.4665 13.0555 24.8177 12.9893 25.3245C12.933 25.8111 12.9193 26.7297 12.9893 27.2651C13.05 27.8005 13.3848 28.1466 13.842 28.1466H13.9122L13.9121 28.1524V28.9728C13.9121 29.4259 14.2794 29.7931 14.7325 29.7931C15.1856 29.7931 15.5529 29.4259 15.5529 28.9728V28.1524L15.5528 28.1466H16.02L17.1736 29.1517C17.2919 29.2593 17.5008 29.3826 17.6929 29.3826C17.7052 29.3829 17.7162 29.3829 17.7272 29.3829C18.075 29.3829 18.3813 29.1165 18.4962 28.7059C18.5395 28.5323 18.5547 28.3695 18.5693 28.2123L18.5696 28.2093L18.585 28.0526C18.644 27.5444 18.644 25.0654 18.585 24.5609L18.5696 24.4097Z" fill="#F0F3FF"/>
<path fill-rule="evenodd" clip-rule="evenodd" d="M13.8654 20.1538C11.6563 20.1538 9.86543 21.9447 9.86543 24.1538V28.4593C9.86543 30.6684 11.6563 32.4593 13.8654 32.4593H18.1709C20.3801 32.4593 22.1709 30.6684 22.1709 28.4593V24.1538C22.1709 21.9447 20.3801 20.1538 18.1709 20.1538H13.8654ZM18.5696 24.4097C18.5531 24.2434 18.536 24.0709 18.4938 23.8988C18.3789 23.4871 18.0606 23.2302 17.7193 23.2302C17.5289 23.2295 17.2881 23.352 17.1516 23.4761L16.02 24.4665H13.842C13.406 24.4665 13.0555 24.8177 12.9893 25.3245C12.933 25.8111 12.9193 26.7297 12.9893 27.2651C13.05 27.8005 13.3848 28.1466 13.842 28.1466H13.9122L13.9121 28.1524V28.9728C13.9121 29.4259 14.2794 29.7931 14.7325 29.7931C15.1856 29.7931 15.5529 29.4259 15.5529 28.9728V28.1524L15.5528 28.1466H16.02L17.1736 29.1517C17.2919 29.2593 17.5008 29.3826 17.6929 29.3826C17.7052 29.3829 17.7162 29.3829 17.7272 29.3829C18.075 29.3829 18.3813 29.1165 18.4962 28.7059C18.5395 28.5323 18.5547 28.3695 18.5693 28.2123L18.5696 28.2093L18.585 28.0526C18.644 27.5444 18.644 25.0654 18.585 24.5609L18.5696 24.4097Z" fill="url(#paint1_linear)"/>
</g>
<defs>
<filter id="filter0_i" x="0" y="0" width="32.0364" height="33.4593" filterUnits="userSpaceOnUse" color-interpolation-filters="sRGB">
<feFlood flood-opacity="0" result="BackgroundImageFix"/>
<feBlend mode="normal" in="SourceGraphic" in2="BackgroundImageFix" result="shape"/>
<feColorMatrix in="SourceAlpha" type="matrix" values="0 0 0 0 0 0 0 0 0 0 0 0 0 0 0 0 0 0 127 0" result="hardAlpha"/>
<feOffset dy="1"/>
<feGaussianBlur stdDeviation="1"/>
<feComposite in2="hardAlpha" operator="arithmetic" k2="-1" k3="1"/>
<feColorMatrix type="matrix" values="0 0 0 0 0.231373 0 0 0 0 0.25098 0 0 0 0 0.380392 0 0 0 0.53 0"/>
<feBlend mode="normal" in2="shape" result="effect1_innerShadow"/>
</filter>
<linearGradient id="paint0_linear" x1="0" y1="0" x2="24.0814" y2="19.607" gradientUnits="userSpaceOnUse">
<stop stop-color="#9299C2"/>
<stop offset="1" stop-color="#D2D6EF"/>
</linearGradient>
<linearGradient id="paint1_linear" x1="9.86543" y1="20.1538" x2="22.1709" y2="26.3066" gradientUnits="userSpaceOnUse">
<stop stop-color="#9299C2"/>
<stop offset="1" stop-color="#D2D6EF"/>
</linearGradient>
</defs>
</svg>
