<svg width="36" height="32" viewBox="0 0 36 32" fill="none" xmlns="http://www.w3.org/2000/svg">
<path fill-rule="evenodd" clip-rule="evenodd" d="M26.5582 0C28.9422 0 31.2356 0.942222 32.9227 2.63289C34.6116 4.32 35.5556 6.59556 35.5556 8.97778V23.0222C35.5556 27.9822 31.52 32 26.5582 32H8.99556C4.03378 32 0 27.9822 0 23.0222V8.97778C0 4.01778 4.016 0 8.99556 0H26.5582ZM29.3867 11.6266L29.5289 11.4844C29.9538 10.9688 29.9538 10.2222 29.5093 9.7066C29.2622 9.44171 28.9227 9.27993 28.5689 9.24438C28.1955 9.22482 27.84 9.35105 27.5715 9.59993L19.5555 15.9999C18.5244 16.855 17.0471 16.855 16 15.9999L7.99998 9.59993C7.44709 9.19105 6.68265 9.24438 6.22221 9.72438C5.74221 10.2044 5.68887 10.9688 6.09598 11.5022L6.32887 11.7333L14.4178 18.0444C15.4133 18.8266 16.6204 19.2533 17.8844 19.2533C19.1449 19.2533 20.3733 18.8266 21.3671 18.0444L29.3867 11.6266Z" fill="#200E32"/>
<path fill-rule="evenodd" clip-rule="evenodd" d="M26.5582 0C28.9422 0 31.2356 0.942222 32.9227 2.63289C34.6116 4.32 35.5556 6.59556 35.5556 8.97778V23.0222C35.5556 27.9822 31.52 32 26.5582 32H8.99556C4.03378 32 0 27.9822 0 23.0222V8.97778C0 4.01778 4.016 0 8.99556 0H26.5582ZM29.3867 11.6266L29.5289 11.4844C29.9538 10.9688 29.9538 10.2222 29.5093 9.7066C29.2622 9.44171 28.9227 9.27993 28.5689 9.24438C28.1955 9.22482 27.84 9.35105 27.5715 9.59993L19.5555 15.9999C18.5244 16.855 17.0471 16.855 16 15.9999L7.99998 9.59993C7.44709 9.19105 6.68265 9.24438 6.22221 9.72438C5.74221 10.2044 5.68887 10.9688 6.09598 11.5022L6.32887 11.7333L14.4178 18.0444C15.4133 18.8266 16.6204 19.2533 17.8844 19.2533C19.1449 19.2533 20.3733 18.8266 21.3671 18.0444L29.3867 11.6266Z" fill="url(#paint0_linear)"/>
<defs>
<linearGradient id="paint0_linear" x1="0" y1="0" x2="33.9623" y2="18.8679" gradientUnits="userSpaceOnUse">
<stop stop-color="#9299C2"/>
<stop offset="1" stop-color="#D2D6EF"/>
</linearGradient>
</defs>
</svg>
