<svg width="31" height="32" viewBox="0 0 31 32" fill="none" xmlns="http://www.w3.org/2000/svg">
<g filter="url(#filter0_i)">
<path fill-rule="evenodd" clip-rule="evenodd" d="M11.5367 0.10839C6.1121 1.11992 1.78205 5.16145 0.329532 10.569C-0.109844 12.2053 -0.109844 15.7562 0.329532 17.4098C1.57509 22.096 5.04128 25.8118 9.59827 27.3457C10.9072 27.7863 11.4393 27.8564 13.5606 27.8685C14.9083 27.8762 16.3557 27.8128 16.777 27.7277C17.474 27.5866 17.5615 27.6141 17.7489 28.0336C18.1622 28.9585 20.0253 30.7796 21.1142 31.3232C22.5277 32.0288 24.6021 32.2044 26.1392 31.749C28.2164 31.1333 29.7534 29.3656 30.2388 27.0342C30.5631 25.4755 30.4648 25.2884 29.3206 25.2884C28.4419 25.2884 28.38 25.3214 28.266 25.8508C27.9908 27.1285 26.5583 27.8541 25.1562 27.426C24.4494 27.21 23.1009 26.0474 22.7236 25.3287C22.5586 25.0144 22.645 24.861 23.2807 24.3403C24.0664 23.6965 25.8343 21.404 26.3532 20.356C27.5957 17.8462 28.1041 14.0074 27.5452 11.3567C26.1539 4.75983 20.9431 0.261542 14.4088 0.0161524C13.3202 -0.0245857 12.0279 0.016921 11.5367 0.10839ZM16.8286 3.23062C19.4871 4.24465 20.94 6.87553 21.3985 11.5051C21.7099 14.649 21.3293 18.8151 20.5608 20.6786L20.3163 21.2711L19.6457 20.3935C18.1349 18.4165 16.4728 17.6019 13.9504 17.6019C12.2379 17.6019 10.333 18.091 9.51119 18.7418L9.04316 19.1123L9.4601 19.9872C9.85858 20.8237 9.90005 20.8533 10.3994 20.6581C11.5296 20.2161 13.3725 20.9194 14.4512 22.2042C15.1841 23.077 16.1951 24.8766 16.0409 25.0336C15.985 25.0906 15.2233 25.1829 14.3483 25.2384C10.0365 25.5128 7.41704 23.1339 6.57353 18.1784C6.1334 15.5929 6.28269 10.4138 6.85514 8.40666C7.07681 7.62956 7.4176 6.67837 7.61269 6.29289C8.53385 4.4714 10.2738 3.16817 12.2694 2.80498C13.5506 2.57189 15.604 2.76348 16.8286 3.23062Z" fill="url(#paint0_linear)"/>
</g>
<defs>
<filter id="filter0_i" x="0" y="0.000488281" width="30.4" height="33" filterUnits="userSpaceOnUse" color-interpolation-filters="sRGB">
<feFlood flood-opacity="0" result="BackgroundImageFix"/>
<feBlend mode="normal" in="SourceGraphic" in2="BackgroundImageFix" result="shape"/>
<feColorMatrix in="SourceAlpha" type="matrix" values="0 0 0 0 0 0 0 0 0 0 0 0 0 0 0 0 0 0 127 0" result="hardAlpha"/>
<feOffset dy="1"/>
<feGaussianBlur stdDeviation="1"/>
<feComposite in2="hardAlpha" operator="arithmetic" k2="-1" k3="1"/>
<feColorMatrix type="matrix" values="0 0 0 0 0.231373 0 0 0 0 0.25098 0 0 0 0 0.380392 0 0 0 0.53 0"/>
<feBlend mode="normal" in2="shape" result="effect1_innerShadow"/>
</filter>
<linearGradient id="paint0_linear" x1="0" y1="0.000488281" x2="31.0046" y2="14.7277" gradientUnits="userSpaceOnUse">
<stop stop-color="#9299C2"/>
<stop offset="1" stop-color="#D2D6EF"/>
</linearGradient>
</defs>
</svg>
