<svg width="33" height="33" viewBox="0 0 33 33" fill="none" xmlns="http://www.w3.org/2000/svg">
<g filter="url(#filter0_i)">
<path d="M8 0L8.89826 5.45338C9.0376 6.29935 9.70065 6.9624 10.5466 7.10174L16 8L10.5466 8.89826C9.70065 9.0376 9.0376 9.70065 8.89826 10.5466L8 16L7.10174 10.5466C6.9624 9.70065 6.29935 9.0376 5.45338 8.89826L0 8L5.45338 7.10174C6.29935 6.9624 6.9624 6.29935 7.10174 5.45338L8 0Z" fill="#B4C0FF"/>
<path d="M8 0L8.89826 5.45338C9.0376 6.29935 9.70065 6.9624 10.5466 7.10174L16 8L10.5466 8.89826C9.70065 9.0376 9.0376 9.70065 8.89826 10.5466L8 16L7.10174 10.5466C6.9624 9.70065 6.29935 9.0376 5.45338 8.89826L0 8L5.45338 7.10174C6.29935 6.9624 6.9624 6.29935 7.10174 5.45338L8 0Z" fill="url(#paint0_linear)"/>
<path fill-rule="evenodd" clip-rule="evenodd" d="M8 26.2121V17.6943C8.89474 17.6943 9.78948 17.1359 9.97341 16.0193L10.5953 12.2437C10.7347 11.3977 11.3977 10.7347 12.2437 10.5953L16.0193 9.97342C18.2526 9.60557 18.2526 6.39446 16.0193 6.0266L12.2437 5.4047C11.8965 5.34751 11.5801 5.20213 11.3181 4.99209C12.2417 4.47284 13.3046 4.17651 14.4354 4.17651H22.055C22.426 4.17651 22.7114 4.47916 22.7114 4.83945V9.48004C22.7114 12.1174 24.866 14.2792 27.4773 14.2936C28.087 14.2936 28.6246 14.2981 29.0951 14.3021H29.0952L29.0955 14.3021H29.0956H29.0958C29.4617 14.3052 29.7871 14.308 30.0743 14.308C30.2774 14.308 30.5406 14.3049 30.8254 14.3017H30.8254H30.8255H30.8255H30.8256C31.161 14.2978 31.5261 14.2936 31.8579 14.2936C32.2146 14.2936 32.5 14.5818 32.5 14.9421V26.5292C32.5 30.1033 29.6319 33 26.0789 33H14.735C11.025 33 8 29.9592 8 26.2121ZM31.2176 12.1984C30.0446 12.2027 28.662 12.1984 27.6674 12.1883C26.0892 12.1883 24.7893 10.8754 24.7893 9.28144V5.4825C24.7893 4.86135 25.5356 4.55294 25.9622 5.00114C26.7202 5.79714 27.7566 6.88581 28.7935 7.97507L28.8167 7.99938L28.8502 8.03466L28.8514 8.0359C29.9053 9.14295 30.9544 10.245 31.707 11.0353C32.1236 11.472 31.8183 12.1969 31.2176 12.1984ZM23.6154 20.7362L23 17L22.3846 20.7362C22.2452 21.5822 21.5822 22.2452 20.7362 22.3846L17 23L20.7362 23.6154C21.5822 23.7548 22.2452 24.4178 22.3846 25.2638L23 29L23.6154 25.2638C23.7548 24.4178 24.4178 23.7548 25.2638 23.6154L29 23L25.2638 22.3846C24.4178 22.2452 23.7548 21.5822 23.6154 20.7362Z" fill="#200E32"/>
<path fill-rule="evenodd" clip-rule="evenodd" d="M8 26.2121V17.6943C8.89474 17.6943 9.78948 17.1359 9.97341 16.0193L10.5953 12.2437C10.7347 11.3977 11.3977 10.7347 12.2437 10.5953L16.0193 9.97342C18.2526 9.60557 18.2526 6.39446 16.0193 6.0266L12.2437 5.4047C11.8965 5.34751 11.5801 5.20213 11.3181 4.99209C12.2417 4.47284 13.3046 4.17651 14.4354 4.17651H22.055C22.426 4.17651 22.7114 4.47916 22.7114 4.83945V9.48004C22.7114 12.1174 24.866 14.2792 27.4773 14.2936C28.087 14.2936 28.6246 14.2981 29.0951 14.3021H29.0952L29.0955 14.3021H29.0956H29.0958C29.4617 14.3052 29.7871 14.308 30.0743 14.308C30.2774 14.308 30.5406 14.3049 30.8254 14.3017H30.8254H30.8255H30.8255H30.8256C31.161 14.2978 31.5261 14.2936 31.8579 14.2936C32.2146 14.2936 32.5 14.5818 32.5 14.9421V26.5292C32.5 30.1033 29.6319 33 26.0789 33H14.735C11.025 33 8 29.9592 8 26.2121ZM31.2176 12.1984C30.0446 12.2027 28.662 12.1984 27.6674 12.1883C26.0892 12.1883 24.7893 10.8754 24.7893 9.28144V5.4825C24.7893 4.86135 25.5356 4.55294 25.9622 5.00114C26.7202 5.79714 27.7566 6.88581 28.7935 7.97507L28.8167 7.99938L28.8502 8.03466L28.8514 8.0359C29.9053 9.14295 30.9544 10.245 31.707 11.0353C32.1236 11.472 31.8183 12.1969 31.2176 12.1984ZM23.6154 20.7362L23 17L22.3846 20.7362C22.2452 21.5822 21.5822 22.2452 20.7362 22.3846L17 23L20.7362 23.6154C21.5822 23.7548 22.2452 24.4178 22.3846 25.2638L23 29L23.6154 25.2638C23.7548 24.4178 24.4178 23.7548 25.2638 23.6154L29 23L25.2638 22.3846C24.4178 22.2452 23.7548 21.5822 23.6154 20.7362Z" fill="url(#paint1_linear)"/>
</g>
<defs>
<filter id="filter0_i" x="0" y="0" width="32.5" height="34" filterUnits="userSpaceOnUse" color-interpolation-filters="sRGB">
<feFlood flood-opacity="0" result="BackgroundImageFix"/>
<feBlend mode="normal" in="SourceGraphic" in2="BackgroundImageFix" result="shape"/>
<feColorMatrix in="SourceAlpha" type="matrix" values="0 0 0 0 0 0 0 0 0 0 0 0 0 0 0 0 0 0 127 0" result="hardAlpha"/>
<feOffset dy="1"/>
<feGaussianBlur stdDeviation="1"/>
<feComposite in2="hardAlpha" operator="arithmetic" k2="-1" k3="1"/>
<feColorMatrix type="matrix" values="0 0 0 0 0.231373 0 0 0 0 0.25098 0 0 0 0 0.380392 0 0 0 0.53 0"/>
<feBlend mode="normal" in2="shape" result="effect1_innerShadow"/>
</filter>
<linearGradient id="paint0_linear" x1="0" y1="0" x2="8" y2="16" gradientUnits="userSpaceOnUse">
<stop stop-color="#9299C2"/>
<stop offset="1" stop-color="#D2D6EF"/>
</linearGradient>
<linearGradient id="paint1_linear" x1="7" y1="3.00003" x2="23.3882" y2="30.8599" gradientUnits="userSpaceOnUse">
<stop stop-color="#9299C2"/>
<stop offset="1" stop-color="#D2D6EF"/>
</linearGradient>
</defs>
</svg>
