<svg width="28" height="32" viewBox="0 0 28 32" fill="none" xmlns="http://www.w3.org/2000/svg">
<g filter="url(#filter0_i)">
<path fill-rule="evenodd" clip-rule="evenodd" d="M8.18812 26.024H18.8059C19.4554 26.024 19.9941 25.48 19.9941 24.824C19.9941 24.168 19.4554 23.64 18.8059 23.64H8.18812C7.53861 23.64 7 24.168 7 24.824C7 25.48 7.53861 26.024 8.18812 26.024ZM15.5426 18.64H8.18812C7.53861 18.64 7 19.184 7 19.84C7 20.496 7.53861 21.024 8.18812 21.024H15.5426C16.1921 21.024 16.7307 20.496 16.7307 19.84C16.7307 19.184 16.1921 18.64 15.5426 18.64ZM25.3409 11.241C25.7133 11.2367 26.1187 11.232 26.4871 11.232C26.8832 11.232 27.2 11.552 27.2 11.952V24.816C27.2 28.784 24.0158 32 20.0871 32H7.47723C3.35842 32 0 28.624 0 24.464V7.216C0 3.248 3.2 0 7.14455 0H15.604C16.0158 0 16.3327 0.336 16.3327 0.736V5.888C16.3327 8.816 18.7248 11.216 21.6238 11.232C22.3009 11.232 22.8979 11.2371 23.4203 11.2415C23.8267 11.2449 24.1881 11.248 24.5069 11.248C24.7324 11.248 25.0247 11.2446 25.3409 11.241ZM11.8 7.68232C11.8 8.15971 11.6104 8.61755 11.2728 8.95512C10.9352 9.29268 10.4774 9.48232 10 9.48232C9.52261 9.48232 9.06477 9.29268 8.72721 8.95512C8.38964 8.61755 8.2 8.15971 8.2 7.68232C8.2 7.20493 8.38964 6.7471 8.72721 6.40953C9.06477 6.07197 9.52261 5.88232 10 5.88232C10.4774 5.88232 10.9352 6.07197 11.2728 6.40953C11.6104 6.7471 11.8 7.20493 11.8 7.68232ZM10 10.6823C10.7956 10.6823 11.5587 10.9984 12.1213 11.561C12.6839 12.1236 13 12.8867 13 13.6823C13 14.0137 12.7314 14.2823 12.4 14.2823H7.6C7.26863 14.2823 7 14.0137 7 13.6823C7 12.8867 7.31607 12.1236 7.87868 11.561C8.44129 10.9984 9.20435 10.6823 10 10.6823ZM25.7778 8.90563C24.4756 8.91043 22.9405 8.90563 21.8364 8.89443C20.0843 8.89443 18.6411 7.43683 18.6411 5.66723V1.44963C18.6411 0.760028 19.4696 0.417628 19.9433 0.915228C20.8018 1.81679 21.982 3.05652 23.1563 4.29012C24.3245 5.51726 25.4869 6.73833 26.3211 7.61443C26.7837 8.09923 26.4447 8.90403 25.7778 8.90563Z" fill="url(#paint0_linear)"/>
</g>
<defs>
<filter id="filter0_i" x="0" y="0" width="27.2" height="33" filterUnits="userSpaceOnUse" color-interpolation-filters="sRGB">
<feFlood flood-opacity="0" result="BackgroundImageFix"/>
<feBlend mode="normal" in="SourceGraphic" in2="BackgroundImageFix" result="shape"/>
<feColorMatrix in="SourceAlpha" type="matrix" values="0 0 0 0 0 0 0 0 0 0 0 0 0 0 0 0 0 0 127 0" result="hardAlpha"/>
<feOffset dy="1"/>
<feGaussianBlur stdDeviation="1"/>
<feComposite in2="hardAlpha" operator="arithmetic" k2="-1" k3="1"/>
<feColorMatrix type="matrix" values="0 0 0 0 0.231373 0 0 0 0 0.25098 0 0 0 0 0.380392 0 0 0 0.53 0"/>
<feBlend mode="normal" in2="shape" result="effect1_innerShadow"/>
</filter>
<linearGradient id="paint0_linear" x1="0" y1="0" x2="28.7983" y2="12.2393" gradientUnits="userSpaceOnUse">
<stop stop-color="#9299C2"/>
<stop offset="1" stop-color="#D2D6EF"/>
</linearGradient>
</defs>
</svg>
