<svg width="36" height="32" viewBox="0 0 36 32" fill="none" xmlns="http://www.w3.org/2000/svg">
<g filter="url(#filter0_i)">
<path d="M24.018 21.9348C22.4468 21.9348 21.2496 20.6578 21.2496 19.1554C21.2496 17.578 22.5216 16.301 24.018 16.301C25.5145 16.301 26.7865 17.578 26.7865 19.1554C26.8613 20.6578 25.5893 21.9348 24.018 21.9348ZM24.5418 26.5921C22.5964 28.5451 18.9301 28.6953 17.8826 28.6953C16.8351 28.6953 13.1688 28.5451 11.2234 26.5921C10.9241 26.2916 10.9241 25.8409 11.2234 25.5404C11.5227 25.2399 11.9716 25.2399 12.2709 25.5404C13.4681 26.7423 16.0868 27.193 17.8826 27.193C19.7532 27.193 22.2971 26.7423 23.4943 25.5404C23.7936 25.2399 24.2425 25.2399 24.5418 25.5404C24.8411 25.8409 24.8411 26.2916 24.5418 26.5921ZM8.90388 19.1554C8.90388 17.578 10.1759 16.301 11.7471 16.301C13.3184 16.301 14.5156 17.578 14.5156 19.1554C14.5156 20.7329 13.2436 21.9348 11.7471 21.9348C10.1759 21.9348 8.90388 20.6578 8.90388 19.1554ZM35.84 16.301C35.84 14.1226 34.0443 12.3198 31.8744 12.3198C30.8269 12.3198 29.8542 12.7705 29.1808 13.4465C26.4872 11.4935 22.8209 10.2165 18.7056 10.0662L20.5014 1.57796L26.3375 2.85496C26.4124 4.35731 27.6095 5.55919 29.106 5.55919C30.6772 5.55919 31.8744 4.28219 31.8744 2.77984C31.8744 1.20238 30.6024 0.000488281 29.106 0.000488281C27.9836 0.000488281 27.0858 0.676549 26.6368 1.57796L20.1273 0.150732C19.9776 0.0756148 19.7532 0.150737 19.6035 0.225854C19.4539 0.300971 19.3042 0.451211 19.3042 0.676563L17.3588 9.91599C17.3588 9.99111 17.3588 9.99112 17.3588 10.0662C13.1688 10.1414 9.42764 11.4183 6.6592 13.3714C5.9858 12.6953 5.0131 12.2446 3.96559 12.2446C1.79573 12.2446 0 14.0474 0 16.2258C0 17.8033 0.972686 19.2306 2.31949 19.8315C2.24467 20.2071 2.24468 20.6578 2.24468 21.0333C2.24468 27.1179 9.278 32.0005 17.9574 32.0005C26.6368 32.0005 33.6702 27.1179 33.6702 21.0333C33.6702 20.6578 33.6701 20.2071 33.5953 19.8315C34.8673 19.3057 35.84 17.8784 35.84 16.301Z" fill="url(#paint0_linear)"/>
</g>
<defs>
<filter id="filter0_i" x="0" y="0.000488281" width="35.84" height="33" filterUnits="userSpaceOnUse" color-interpolation-filters="sRGB">
<feFlood flood-opacity="0" result="BackgroundImageFix"/>
<feBlend mode="normal" in="SourceGraphic" in2="BackgroundImageFix" result="shape"/>
<feColorMatrix in="SourceAlpha" type="matrix" values="0 0 0 0 0 0 0 0 0 0 0 0 0 0 0 0 0 0 127 0" result="hardAlpha"/>
<feOffset dy="1"/>
<feGaussianBlur stdDeviation="1"/>
<feComposite in2="hardAlpha" operator="arithmetic" k2="-1" k3="1"/>
<feColorMatrix type="matrix" values="0 0 0 0 0.231373 0 0 0 0 0.25098 0 0 0 0 0.380392 0 0 0 0.53 0"/>
<feBlend mode="normal" in2="shape" result="effect1_innerShadow"/>
</filter>
<linearGradient id="paint0_linear" x1="0" y1="0.000488281" x2="34.1047" y2="19.0991" gradientUnits="userSpaceOnUse">
<stop stop-color="#9299C2"/>
<stop offset="1" stop-color="#D2D6EF"/>
</linearGradient>
</defs>
</svg>
