<svg width="31" height="32" viewBox="0 0 31 32" fill="none" xmlns="http://www.w3.org/2000/svg">
<g filter="url(#filter0_i)">
<path d="M21.0435 0C19.6946 0 18.087 1.19912 18.087 6.90625C18.087 10.116 18.9475 13.1119 18.9837 13.2378L19.1685 13.8696L19.8098 13.7201C19.8849 13.7027 21.6767 13.281 23.6168 12.394C25.301 11.6253 29.2174 9.47061 29.2174 6.08696C29.2174 4.24209 28.375 2.08696 26 2.08696C25.3071 2.08696 24.7432 2.33484 24.3397 2.59918C23.5598 1.41797 22.3513 0 21.0435 0ZM6.15761 1.3913C3.68456 1.3913 2.08696 2.75226 2.08696 4.8587C2.08696 5.53696 2.33398 6.07693 2.60598 6.47554C1.42198 7.22685 0 8.43757 0 9.91304C0 10.9064 0.674337 13.2174 6.91712 13.2174C10.4677 13.2174 13.1482 12.3494 13.2609 12.3125L13.8438 12.1209L13.7255 11.519C13.6963 11.3695 12.9923 7.83255 11.1168 4.62908C10.4615 3.50908 8.58057 1.3913 6.15761 1.3913ZM11.8764 18.1264L11.2948 18.2853C11.1049 18.3375 9.3874 18.8237 7.58288 19.9103C5.36792 21.2432 2.78261 23.6918 2.78261 26.2038C2.78261 29.2083 4.69926 30.6087 5.99457 30.6087C6.84257 30.6087 7.49927 30.2992 7.93614 29.9986C8.6144 30.791 9.83959 32 11.3505 32C13.8834 32 13.913 27.1492 13.913 27.1005C13.913 22.8842 12.1899 18.8498 12.1168 18.6807L11.8764 18.1264ZM23.4728 18.7826C19.8262 18.7826 17.4649 19.4789 17.3668 19.5082L16.7894 19.6807L16.8777 20.2758C16.8916 20.3718 17.238 22.6521 18.1861 24.8859C19.7521 28.5763 21.901 30.6087 24.2391 30.6087C27.62 30.6087 28.5217 28.634 28.5217 27.4674C28.5217 26.7043 28.257 26.0835 27.9878 25.6508C28.9853 24.9635 30.6087 23.6323 30.6087 22.25C30.6087 19.4201 25.324 18.7826 23.4728 18.7826Z" fill="url(#paint0_linear)"/>
</g>
<defs>
<filter id="filter0_i" x="0" y="0" width="30.6087" height="33" filterUnits="userSpaceOnUse" color-interpolation-filters="sRGB">
<feFlood flood-opacity="0" result="BackgroundImageFix"/>
<feBlend mode="normal" in="SourceGraphic" in2="BackgroundImageFix" result="shape"/>
<feColorMatrix in="SourceAlpha" type="matrix" values="0 0 0 0 0 0 0 0 0 0 0 0 0 0 0 0 0 0 127 0" result="hardAlpha"/>
<feOffset dy="1"/>
<feGaussianBlur stdDeviation="1"/>
<feComposite in2="hardAlpha" operator="arithmetic" k2="-1" k3="1"/>
<feColorMatrix type="matrix" values="0 0 0 0 0.231373 0 0 0 0 0.25098 0 0 0 0 0.380392 0 0 0 0.53 0"/>
<feBlend mode="normal" in2="shape" result="effect1_innerShadow"/>
</filter>
<linearGradient id="paint0_linear" x1="0" y1="0" x2="31.1385" y2="14.8923" gradientUnits="userSpaceOnUse">
<stop stop-color="#9299C2"/>
<stop offset="1" stop-color="#D2D6EF"/>
</linearGradient>
</defs>
</svg>
