<svg width="101" height="32" viewBox="0 0 101 32" fill="none" xmlns="http://www.w3.org/2000/svg">
<g filter="url(#filter0_i)">
<path fill-rule="evenodd" clip-rule="evenodd" d="M31.8359 8.70862C31.769 8.78429 31.7508 10.3269 31.7508 15.9323C31.7508 22.019 31.765 23.0739 31.8481 23.1566C31.9304 23.2386 32.6138 23.2535 36.2769 23.2535C39.1191 23.2535 40.6083 23.2302 40.6083 23.1857C40.6083 23.1484 40.6696 23.1179 40.7445 23.1179C40.8195 23.1179 40.8808 23.0874 40.8808 23.0501C40.8808 23.0128 40.9728 22.9823 41.0852 22.9823C41.2256 22.9823 41.2896 22.9489 41.2896 22.8758C41.2896 22.7387 41.4537 22.5754 41.5914 22.5754C41.663 22.5754 41.6984 22.5131 41.6984 22.387C41.6984 22.2764 41.7547 22.1582 41.8347 22.1008C41.9296 22.0327 41.971 21.9252 41.971 21.7468C41.971 21.6059 42.0016 21.4905 42.0391 21.4905C42.0839 21.4905 42.1072 19.6145 42.1072 15.9982C42.1072 12.3818 42.0839 10.5058 42.0391 10.5058C42.0016 10.5058 41.971 10.3904 41.971 10.2495C41.971 10.0711 41.9296 9.96359 41.8347 9.89551C41.7598 9.84174 41.6984 9.75807 41.6984 9.70959C41.6984 9.58611 40.9745 8.87841 40.8482 8.87841C40.7912 8.87841 40.7445 8.84789 40.7445 8.8106C40.7445 8.77331 40.6832 8.74279 40.6083 8.74279C40.5333 8.74279 40.472 8.71228 40.472 8.67498C40.472 8.6305 39.0032 8.60806 36.1966 8.60975C32.5913 8.61192 31.9077 8.62745 31.8359 8.70862ZM44.5601 15.9303V23.2535H46.1953H47.8306V20.609V17.9646H48.4827C49.1544 17.9646 49.3295 18.0267 49.3295 18.2649C49.3295 18.3235 49.3602 18.3714 49.3977 18.3714C49.4351 18.3714 49.4658 18.4629 49.4658 18.5748C49.4658 18.6867 49.4964 18.7782 49.5339 18.7782C49.5714 18.7782 49.6021 18.8393 49.6021 18.9139C49.6021 18.9885 49.6327 19.0495 49.6702 19.0495C49.7077 19.0495 49.7383 19.1105 49.7383 19.1851C49.7383 19.2597 49.769 19.3207 49.8065 19.3207C49.8439 19.3207 49.8746 19.3817 49.8746 19.4563C49.8746 19.5309 49.9053 19.5919 49.9427 19.5919C49.9802 19.5919 50.0109 19.653 50.0109 19.7275C50.0109 19.8021 50.0415 19.8632 50.079 19.8632C50.1165 19.8632 50.1471 19.9242 50.1471 19.9988C50.1471 20.0734 50.1778 20.1344 50.2153 20.1344C50.2527 20.1344 50.2834 20.1954 50.2834 20.27C50.2834 20.3446 50.3141 20.4056 50.3515 20.4056C50.389 20.4056 50.4197 20.4666 50.4197 20.5412C50.4197 20.6158 50.4503 20.6768 50.4878 20.6768C50.5253 20.6768 50.5559 20.7379 50.5559 20.8125C50.5559 20.887 50.5866 20.9481 50.6241 20.9481C50.6616 20.9481 50.6922 21.0091 50.6922 21.0837C50.6922 21.1583 50.7229 21.2193 50.7603 21.2193C50.7978 21.2193 50.8285 21.2803 50.8285 21.3549C50.8285 21.4295 50.8591 21.4905 50.8966 21.4905C50.9341 21.4905 50.9648 21.5516 50.9648 21.6261C50.9648 21.7007 50.9954 21.7618 51.0329 21.7618C51.0704 21.7618 51.101 21.8161 51.101 21.8824C51.101 21.9488 51.1623 22.047 51.2373 22.1008C51.3173 22.1582 51.3736 22.2764 51.3736 22.387C51.3736 22.4906 51.4042 22.5754 51.4417 22.5754C51.4792 22.5754 51.5098 22.6531 51.5098 22.748C51.5098 22.8429 51.5851 22.9955 51.6771 23.0871L51.8443 23.2535H53.4194C54.6936 23.2535 55.013 23.235 55.0917 23.1566C55.2238 23.0253 55.2142 22.9823 55.0528 22.9823C54.9468 22.9823 54.9166 22.9371 54.9166 22.7789C54.9166 22.667 54.8859 22.5754 54.8484 22.5754C54.811 22.5754 54.7803 22.5211 54.7803 22.4548C54.7803 22.3884 54.719 22.2902 54.644 22.2364C54.564 22.179 54.5078 22.0609 54.5078 21.9502C54.5078 21.8466 54.4771 21.7618 54.4396 21.7618C54.4021 21.7618 54.3715 21.7007 54.3715 21.6261C54.3715 21.5516 54.3408 21.4905 54.3034 21.4905C54.2659 21.4905 54.2352 21.4362 54.2352 21.3699C54.2352 21.3035 54.1739 21.2053 54.0989 21.1515C54.019 21.0941 53.9627 20.9759 53.9627 20.8653C53.9627 20.7617 53.932 20.6768 53.8945 20.6768C53.8571 20.6768 53.8264 20.6158 53.8264 20.5412C53.8264 20.4666 53.7957 20.4056 53.7583 20.4056C53.7208 20.4056 53.6901 20.3446 53.6901 20.27C53.6901 20.1954 53.6595 20.1344 53.622 20.1344C53.5845 20.1344 53.5539 20.0801 53.5539 20.0138C53.5539 19.9474 53.4925 19.8491 53.4176 19.7954C53.3424 19.7414 53.2813 19.6198 53.2813 19.5241C53.2813 19.4285 53.2202 19.3068 53.1451 19.2529C53.0701 19.1991 53.0088 19.1009 53.0088 19.0345C53.0088 18.9682 52.9781 18.9139 52.9407 18.9139C52.9032 18.9139 52.8725 18.8223 52.8725 18.7104C52.8725 18.5986 52.8419 18.507 52.8044 18.507C52.7669 18.507 52.7363 18.446 52.7363 18.3714C52.7363 18.2968 52.7056 18.2358 52.6681 18.2358C52.6306 18.2358 52.6 18.1815 52.6 18.1152C52.6 18.0488 52.5387 17.9505 52.4637 17.8968C52.25 17.7435 52.2874 17.5577 52.5318 17.5577C52.6443 17.5577 52.7363 17.5272 52.7363 17.4899C52.7363 17.4526 52.8282 17.4221 52.9407 17.4221C53.0531 17.4221 53.1451 17.3916 53.1451 17.3543C53.1451 17.317 53.2303 17.2865 53.3344 17.2865C53.4456 17.2865 53.5643 17.2305 53.622 17.1509C53.676 17.0763 53.7609 17.0153 53.8105 17.0153C53.9348 17.0153 54.2352 16.7057 54.2352 16.5776C54.2352 16.5199 54.2659 16.4728 54.3034 16.4728C54.3408 16.4728 54.3715 16.4118 54.3715 16.3372C54.3715 16.2626 54.4021 16.2016 54.4396 16.2016C54.4771 16.2016 54.5078 16.1406 54.5078 16.066C54.5078 15.9914 54.5384 15.9303 54.5759 15.9303C54.6134 15.9303 54.644 15.8693 54.644 15.7947C54.644 15.7201 54.6747 15.6591 54.7122 15.6591C54.7564 15.6591 54.7803 14.755 54.7803 13.0824C54.7803 11.4099 54.7564 10.5058 54.7122 10.5058C54.6747 10.5058 54.644 10.4448 54.644 10.3702C54.644 10.2956 54.6134 10.2345 54.5759 10.2345C54.5384 10.2345 54.5078 10.1735 54.5078 10.0989C54.5078 10.0243 54.4771 9.96332 54.4396 9.96332C54.4021 9.96332 54.3715 9.88636 54.3715 9.79231C54.3715 9.60055 53.6997 8.87841 53.5213 8.87841C53.4643 8.87841 53.4176 8.84789 53.4176 8.8106C53.4176 8.77331 53.295 8.74279 53.1451 8.74279C52.9952 8.74279 52.8725 8.71228 52.8725 8.67498C52.8725 8.6305 51.4417 8.60718 48.7163 8.60718H44.5601V15.9303ZM78.7126 8.70862C78.6456 8.78429 78.6274 10.3269 78.6274 15.9323C78.6274 22.019 78.6417 23.0739 78.7248 23.1566C78.8031 23.2346 79.1089 23.2535 80.2919 23.2535H81.7616V20.8125V18.3714H84.2145C85.8043 18.3714 86.6673 18.3475 86.6673 18.3036C86.6673 18.2663 86.7593 18.2358 86.8717 18.2358C86.9842 18.2358 87.0761 18.2053 87.0761 18.168C87.0761 18.1307 87.1558 18.1002 87.2532 18.1002C87.3621 18.1002 87.5038 18.0219 87.6212 17.8968C87.7262 17.7849 87.848 17.6933 87.8919 17.6933C88.0002 17.6933 88.1663 17.5206 88.1663 17.408C88.1663 17.3576 88.2276 17.2725 88.3026 17.2187C88.3775 17.1649 88.4388 17.0667 88.4388 17.0003C88.4388 16.934 88.4695 16.8796 88.507 16.8796C88.5444 16.8796 88.5751 16.7881 88.5751 16.6762C88.5751 16.5643 88.6058 16.4728 88.6432 16.4728C88.6877 16.4728 88.7114 15.4155 88.7114 13.4365C88.7114 10.4779 88.7079 10.3976 88.5751 10.3024C88.4951 10.2449 88.4388 10.1268 88.4388 10.0161C88.4388 9.91253 88.4082 9.82771 88.3707 9.82771C88.3332 9.82771 88.3026 9.78092 88.3026 9.72376C88.3026 9.59682 87.8649 9.14963 87.7407 9.14963C87.6915 9.14963 87.6071 9.08861 87.5531 9.01402C87.4991 8.93943 87.4003 8.87841 87.3336 8.87841C87.267 8.87841 87.2124 8.84789 87.2124 8.8106C87.2124 8.77331 87.0898 8.74279 86.9399 8.74279C86.79 8.74279 86.6673 8.71228 86.6673 8.67498C86.6673 8.6305 85.3121 8.60806 82.7326 8.60975C79.4215 8.61192 78.7843 8.62759 78.7126 8.70862ZM92.6632 8.67498C92.6632 8.71228 92.5529 8.74279 92.418 8.74279C92.2334 8.74279 92.1256 8.7931 91.9818 8.94621C91.8768 9.0581 91.7419 9.14963 91.682 9.14963C91.622 9.14963 91.573 9.19839 91.573 9.25806C91.573 9.31766 91.481 9.45199 91.3686 9.55648C91.2562 9.66097 91.1642 9.79529 91.1642 9.8549C91.1642 9.91457 91.1336 9.96332 91.0961 9.96332C91.0586 9.96332 91.028 10.0549 91.028 10.1667C91.028 10.2786 90.9973 10.3702 90.9598 10.3702C90.9157 10.3702 90.8917 11.2291 90.8917 12.8112C90.8917 14.3934 90.9157 15.2523 90.9598 15.2523C90.9973 15.2523 91.028 15.3296 91.028 15.424C91.028 15.5992 91.4276 16.066 91.5775 16.066C91.6199 16.066 91.7406 16.1575 91.8456 16.2694C91.963 16.3945 92.1047 16.4728 92.2136 16.4728C92.311 16.4728 92.3906 16.5033 92.3906 16.5406C92.3906 16.5779 92.452 16.6084 92.5269 16.6084C92.6019 16.6084 92.6632 16.6389 92.6632 16.6762C92.6632 16.7135 92.7245 16.744 92.7995 16.744C92.8744 16.744 92.9357 16.7745 92.9357 16.8118C92.9357 16.8491 93.089 16.8796 93.2764 16.8796C93.4638 16.8796 93.6171 16.9102 93.6171 16.9475C93.6171 16.9847 93.7091 17.0153 93.8215 17.0153C93.9339 17.0153 94.0259 17.0458 94.0259 17.0831C94.0259 17.1204 94.1179 17.1509 94.2303 17.1509C94.3427 17.1509 94.4347 17.1814 94.4347 17.2187C94.4347 17.256 94.588 17.2865 94.7754 17.2865C94.9627 17.2865 95.116 17.317 95.116 17.3543C95.116 17.3916 95.2387 17.4221 95.3886 17.4221C95.5385 17.4221 95.6611 17.4526 95.6611 17.4899C95.6611 17.5272 95.7531 17.5577 95.8655 17.5577C95.9779 17.5577 96.0699 17.5882 96.0699 17.6255C96.0699 17.6628 96.1926 17.6933 96.3425 17.6933C96.4924 17.6933 96.615 17.7238 96.615 17.7611C96.615 17.7984 96.7376 17.8289 96.8875 17.8289C97.0374 17.8289 97.1601 17.8595 97.1601 17.8968C97.1601 17.934 97.2214 17.9646 97.2963 17.9646C97.3713 17.9646 97.4326 17.9951 97.4326 18.0324C97.4326 18.0697 97.4808 18.1002 97.5397 18.1002C97.8041 18.1002 97.8414 18.2548 97.8414 19.3498V20.4056H95.9337H94.0259V19.5532C94.0259 18.9048 94.0026 18.6776 93.9285 18.6039C93.8502 18.5259 93.5444 18.507 92.3614 18.507H90.8917V19.9988C90.8917 20.9481 90.9165 21.4905 90.9598 21.4905C90.9973 21.4905 91.028 21.5821 91.028 21.694C91.028 21.8058 91.0586 21.8974 91.0961 21.8974C91.1336 21.8974 91.1642 21.9517 91.1642 22.018C91.1642 22.0844 91.2255 22.1826 91.3005 22.2364C91.3754 22.2902 91.4368 22.3753 91.4368 22.4257C91.4368 22.5438 91.6049 22.7111 91.7235 22.7111C91.7741 22.7111 91.8597 22.7721 91.9137 22.8467C91.9677 22.9213 92.0665 22.9823 92.1332 22.9823C92.1998 22.9823 92.2544 23.0128 92.2544 23.0501C92.2544 23.0874 92.3464 23.1179 92.4588 23.1179C92.5712 23.1179 92.6632 23.1484 92.6632 23.1857C92.6632 23.23 93.8215 23.2535 96.0018 23.2535C98.1821 23.2535 99.3404 23.23 99.3404 23.1857C99.3404 23.1484 99.4017 23.1179 99.4767 23.1179C99.5516 23.1179 99.6129 23.0874 99.6129 23.0501C99.6129 23.0128 99.6675 22.9823 99.7341 22.9823C99.8008 22.9823 99.8996 22.9213 99.9536 22.8467C100.008 22.7721 100.093 22.7111 100.144 22.7111C100.262 22.7111 100.431 22.5438 100.431 22.4257C100.431 22.3753 100.492 22.2902 100.567 22.2364C100.642 22.1826 100.703 22.0844 100.703 22.018C100.703 21.9517 100.734 21.8974 100.771 21.8974C100.809 21.8974 100.839 21.8058 100.839 21.694C100.839 21.5821 100.87 21.4905 100.907 21.4905C100.952 21.4905 100.976 20.6543 100.976 19.1173C100.976 17.5803 100.952 16.744 100.907 16.744C100.87 16.744 100.839 16.683 100.839 16.6084C100.839 16.5338 100.809 16.4728 100.771 16.4728C100.734 16.4728 100.703 16.4249 100.703 16.3663C100.703 16.2355 100.541 16.066 100.416 16.066C100.366 16.066 100.28 16.0049 100.226 15.9303C100.168 15.8507 100.05 15.7947 99.9385 15.7947C99.8344 15.7947 99.7492 15.7642 99.7492 15.7269C99.7492 15.6896 99.6879 15.6591 99.6129 15.6591C99.538 15.6591 99.4767 15.6286 99.4767 15.5913C99.4767 15.554 99.3847 15.5235 99.2722 15.5235C99.1598 15.5235 99.0678 15.493 99.0678 15.4557C99.0678 15.4184 98.9452 15.3879 98.7953 15.3879C98.6454 15.3879 98.5228 15.3574 98.5228 15.3201C98.5228 15.2828 98.4614 15.2523 98.3865 15.2523C98.3115 15.2523 98.2502 15.2218 98.2502 15.1845C98.2502 15.1472 98.1276 15.1167 97.9777 15.1167C97.8278 15.1167 97.7052 15.0861 97.7052 15.0489C97.7052 15.0116 97.5825 14.981 97.4326 14.981C97.2827 14.981 97.1601 14.9505 97.1601 14.9132C97.1601 14.8759 97.0068 14.8454 96.8194 14.8454C96.632 14.8454 96.4787 14.8149 96.4787 14.7776C96.4787 14.7403 96.4174 14.7098 96.3425 14.7098C96.2675 14.7098 96.2062 14.6793 96.2062 14.642C96.2062 14.6047 96.1142 14.5742 96.0018 14.5742C95.8894 14.5742 95.7974 14.5437 95.7974 14.5064C95.7974 14.4691 95.6747 14.4386 95.5248 14.4386C95.3749 14.4386 95.2523 14.4081 95.2523 14.3708C95.2523 14.3335 95.191 14.303 95.116 14.303C95.0411 14.303 94.9798 14.2725 94.9798 14.2352C94.9798 14.1979 94.8878 14.1674 94.7754 14.1674C94.6629 14.1674 94.571 14.1368 94.571 14.0996C94.571 14.0623 94.4921 14.0317 94.3958 14.0317C94.0509 14.0317 94.0259 13.9382 94.0259 12.6465V11.4551H95.6611C96.7058 11.4551 97.2963 11.4796 97.2963 11.5229C97.2963 11.5602 97.3883 11.5907 97.5007 11.5907C97.6825 11.5907 97.7052 11.6133 97.7052 11.7941C97.7052 11.906 97.7358 11.9975 97.7733 11.9975C97.814 11.9975 97.8414 12.2591 97.8414 12.6465C97.8414 13.1186 97.8679 13.3219 97.9388 13.3924C98.0165 13.4698 98.3047 13.4893 99.3696 13.4893C100.213 13.4893 100.703 13.4644 100.703 13.4215C100.703 13.3842 100.764 13.3537 100.839 13.3537C100.971 13.3537 100.976 13.3084 100.976 11.8619C100.976 10.9126 100.951 10.3702 100.907 10.3702C100.87 10.3702 100.839 10.2853 100.839 10.1817C100.839 10.0711 100.783 9.95295 100.703 9.89551C100.628 9.84174 100.567 9.75807 100.567 9.70959C100.567 9.58611 99.8429 8.87841 99.7166 8.87841C99.6596 8.87841 99.6129 8.84789 99.6129 8.8106C99.6129 8.77331 99.4903 8.74279 99.3404 8.74279C99.1905 8.74279 99.0678 8.71228 99.0678 8.67498C99.0678 8.63077 97.955 8.60718 95.8655 8.60718C93.776 8.60718 92.6632 8.63077 92.6632 8.67498ZM0 15.9303V23.1179H1.49896H2.99793V15.9303V8.74279H1.49896H0V15.9303ZM7.49482 8.94621C7.38423 9.07566 7.25873 9.14631 7.13711 9.1476C7.01304 9.14896 6.94974 9.18564 6.94974 9.25616C6.94974 9.31481 6.90593 9.40635 6.85237 9.45958C6.79889 9.51288 6.70691 9.55648 6.64797 9.55648C6.58638 9.55648 6.54093 9.61398 6.54093 9.69209C6.54093 9.76668 6.51027 9.82771 6.4728 9.82771C6.43532 9.82771 6.40466 9.88873 6.40466 9.96332C6.40466 10.0379 6.374 10.0989 6.33653 10.0989C6.29905 10.0989 6.26839 10.16 6.26839 10.2345C6.26839 10.3091 6.23773 10.3702 6.20026 10.3702C6.15536 10.3702 6.13212 12.2688 6.13212 15.9303C6.13212 19.5919 6.15536 21.4905 6.20026 21.4905C6.23773 21.4905 6.26839 21.5516 6.26839 21.6261C6.26839 21.7007 6.29905 21.7618 6.33653 21.7618C6.374 21.7618 6.40466 21.8228 6.40466 21.8974C6.40466 21.972 6.43532 22.033 6.4728 22.033C6.51027 22.033 6.54093 22.0801 6.54093 22.1378C6.54093 22.2595 6.83868 22.5754 6.95335 22.5754C6.99627 22.5754 7.11728 22.667 7.22228 22.7789C7.33967 22.904 7.48139 22.9823 7.59027 22.9823C7.68771 22.9823 7.76736 23.0128 7.76736 23.0501C7.76736 23.0944 8.90296 23.1179 11.0378 23.1179C13.1727 23.1179 14.3083 23.0944 14.3083 23.0501C14.3083 23.0128 14.4186 22.9823 14.5535 22.9823C14.7381 22.9823 14.8459 22.932 14.9896 22.7789C15.107 22.6538 15.2487 22.5754 15.3576 22.5754C15.509 22.5754 15.5347 22.5459 15.5347 22.372C15.5347 22.2601 15.5654 22.1686 15.6028 22.1686C15.6403 22.1686 15.671 22.0771 15.671 21.9652C15.671 21.807 15.7012 21.7618 15.8072 21.7618C15.9208 21.7618 15.9435 21.7165 15.9435 21.4905C15.9435 21.3414 15.9742 21.2193 16.0117 21.2193C16.0551 21.2193 16.0798 20.6543 16.0798 19.6597V18.1002H14.5808H13.0819V19.3207V20.5412H11.2033C9.66606 20.5412 9.30706 20.5236 9.22741 20.4443C9.08154 20.2992 9.08154 11.5615 9.22741 11.4164C9.30645 11.3376 9.63881 11.3195 10.9989 11.3195C12.0696 11.3195 12.6731 11.3439 12.6731 11.3873C12.6731 11.4246 12.7212 11.4551 12.7801 11.4551C13.0445 11.4551 13.0819 11.6097 13.0819 12.7047V13.7605H14.5808H16.0798V12.201C16.0798 11.2064 16.0551 10.6414 16.0117 10.6414C15.9742 10.6414 15.9435 10.5499 15.9435 10.438C15.9435 10.3261 15.9129 10.2345 15.8754 10.2345C15.8379 10.2345 15.8072 10.1735 15.8072 10.0989C15.8072 10.0243 15.7766 9.96332 15.7391 9.96332C15.7016 9.96332 15.671 9.91674 15.671 9.85985C15.671 9.74078 15.0997 9.14963 14.9847 9.14963C14.9426 9.14963 14.8221 9.0581 14.7171 8.94621L14.5262 8.74279L11.0957 8.74483L7.66515 8.74686L7.49482 8.94621ZM19.8953 8.8106C19.8953 8.84789 19.8408 8.87841 19.7741 8.87841C19.7074 8.87841 19.6087 8.93943 19.5547 9.01402C19.5006 9.08861 19.4151 9.14963 19.3644 9.14963C19.2397 9.14963 19.0777 9.31922 19.0777 9.44995C19.0777 9.51125 19.0199 9.55648 18.9414 9.55648C18.8506 9.55648 18.8052 9.60171 18.8052 9.69209C18.8052 9.76668 18.7745 9.82771 18.737 9.82771C18.6996 9.82771 18.6689 9.91925 18.6689 10.0311C18.6689 10.143 18.6382 10.2345 18.6008 10.2345C18.5633 10.2345 18.5326 10.2956 18.5326 10.3702C18.5326 10.4448 18.502 10.5058 18.4645 10.5058C18.4197 10.5058 18.3964 12.3768 18.3964 15.9832C18.3964 21.3828 18.3983 21.462 18.5326 21.5583C18.6076 21.6121 18.6689 21.7287 18.6689 21.8174C18.6689 21.909 18.757 22.0605 18.8733 22.1686C18.9857 22.2731 19.0777 22.3935 19.0777 22.4362C19.0777 22.5504 19.3952 22.8467 19.5175 22.8467C19.5754 22.8467 19.6228 22.8772 19.6228 22.9145C19.6228 22.9518 19.7148 22.9823 19.8272 22.9823C19.9396 22.9823 20.0316 23.0128 20.0316 23.0501C20.0316 23.0944 21.2126 23.1179 23.4383 23.1179C25.6641 23.1179 26.8451 23.0944 26.8451 23.0501C26.8451 23.0128 26.9677 22.9823 27.1176 22.9823C27.32 22.9823 27.3901 22.9548 27.3901 22.8758C27.3901 22.7387 27.5542 22.5754 27.6919 22.5754C27.7535 22.5754 27.799 22.5179 27.799 22.4398C27.799 22.3652 27.8296 22.3042 27.8671 22.3042C27.9046 22.3042 27.9352 22.2499 27.9352 22.1836C27.9352 22.1172 27.9965 22.019 28.0715 21.9652C28.1515 21.9078 28.2078 21.7896 28.2078 21.679C28.2078 21.5754 28.2384 21.4905 28.2759 21.4905C28.3207 21.4905 28.344 19.6145 28.344 15.9982C28.344 12.3818 28.3207 10.5058 28.2759 10.5058C28.2384 10.5058 28.2078 10.3904 28.2078 10.2495C28.2078 10.0711 28.1664 9.96359 28.0715 9.89551C27.9965 9.84174 27.9352 9.75793 27.9352 9.70925C27.9352 9.58577 27.3484 9.01402 27.2216 9.01402C27.1644 9.01402 27.1176 8.98351 27.1176 8.94621C27.1176 8.90892 27.0563 8.87841 26.9813 8.87841C26.9064 8.87841 26.8451 8.84789 26.8451 8.8106C26.8451 8.76625 25.6413 8.74279 23.3702 8.74279C21.0991 8.74279 19.8953 8.76625 19.8953 8.8106ZM25.3461 15.9303V20.5412H23.4676C21.9303 20.5412 21.5713 20.5236 21.4917 20.4443C21.4093 20.3624 21.3943 19.6643 21.3943 15.9013C21.3943 11.5003 21.3957 11.4551 21.5306 11.4551C21.6055 11.4551 21.6668 11.4246 21.6668 11.3873C21.6668 11.3437 22.3255 11.3195 23.5065 11.3195H25.3461V15.9303ZM38.8368 15.9303V20.4056H36.9971H35.1575V15.9303V11.4551H36.9971H38.8368V15.9303ZM51.3426 11.6215C51.5098 11.7879 51.5098 11.7881 51.5098 13.2489C51.5098 14.1777 51.485 14.7098 51.4417 14.7098C51.4042 14.7098 51.3736 14.7566 51.3736 14.8138C51.3736 14.9488 50.9323 15.3879 50.7967 15.3879C50.7392 15.3879 50.6922 15.4184 50.6922 15.4557C50.6922 15.4988 50.1698 15.5235 49.2614 15.5235H47.8306V13.4893V11.4551H49.5029H51.1754L51.3426 11.6215ZM85.4099 11.6215L85.5772 11.7879V13.4523C85.5772 14.5167 85.5527 15.1167 85.509 15.1167C85.4716 15.1167 85.4409 15.1646 85.4409 15.2232C85.4409 15.5056 85.3255 15.5235 83.5039 15.5235H81.7616V13.4893V11.4551H83.5021H85.2427L85.4099 11.6215Z" fill="url(#paint0_linear)"/>
</g>
<g filter="url(#filter1_i)">
<path d="M71.143 26.775C69.617 27.7509 67.8207 28.1715 66.0403 27.936C64.2599 27.7004 62.6226 26.8423 61.3509 25.5131C60.0951 24.167 59.2844 22.4171 59.0619 20.5326C58.8394 18.6481 59.2209 16.7299 60.1428 15.1146L63.8466 8.56937L65.0389 6.46613C65.3568 7.03821 65.7542 7.77856 66.1993 8.5862C67.7253 11.3625 69.6964 14.9632 70.1733 15.8718C71.445 18.2274 72.4306 21.2898 68.9493 24.066C69.8554 22.0469 69.6805 20.2465 69.156 18.6817C68.997 18.1433 68.7427 17.5712 68.4089 16.9318L68.1704 16.4775C67.5505 15.3334 66.2152 12.8936 65.0071 10.6894L61.8755 16.2252C61.3192 17.2179 61.0171 18.3452 61.0171 19.5062C61.0171 20.6672 61.3192 21.7945 61.8755 22.7873C63.5764 25.7823 67.2484 26.7582 70.078 24.9578C72.9075 23.1406 73.8136 19.237 72.1127 16.2252L68.1386 9.19193L68.075 9.09098L65.8337 5.05276L66.9941 3L73.8454 15.1146C76.1344 19.1192 74.9104 24.3521 71.143 26.775Z" fill="url(#paint1_linear)"/>
</g>
<defs>
<filter id="filter0_i" x="0" y="8.60718" width="100.976" height="15.6463" filterUnits="userSpaceOnUse" color-interpolation-filters="sRGB">
<feFlood flood-opacity="0" result="BackgroundImageFix"/>
<feBlend mode="normal" in="SourceGraphic" in2="BackgroundImageFix" result="shape"/>
<feColorMatrix in="SourceAlpha" type="matrix" values="0 0 0 0 0 0 0 0 0 0 0 0 0 0 0 0 0 0 127 0" result="hardAlpha"/>
<feOffset dy="1"/>
<feGaussianBlur stdDeviation="1"/>
<feComposite in2="hardAlpha" operator="arithmetic" k2="-1" k3="1"/>
<feColorMatrix type="matrix" values="0 0 0 0 0.231373 0 0 0 0 0.25098 0 0 0 0 0.380392 0 0 0 0.53 0"/>
<feBlend mode="normal" in2="shape" result="effect1_innerShadow"/>
</filter>
<filter id="filter1_i" x="59" y="3" width="16" height="26" filterUnits="userSpaceOnUse" color-interpolation-filters="sRGB">
<feFlood flood-opacity="0" result="BackgroundImageFix"/>
<feBlend mode="normal" in="SourceGraphic" in2="BackgroundImageFix" result="shape"/>
<feColorMatrix in="SourceAlpha" type="matrix" values="0 0 0 0 0 0 0 0 0 0 0 0 0 0 0 0 0 0 127 0" result="hardAlpha"/>
<feOffset dy="1"/>
<feGaussianBlur stdDeviation="1"/>
<feComposite in2="hardAlpha" operator="arithmetic" k2="-1" k3="1"/>
<feColorMatrix type="matrix" values="0 0 0 0 0.231373 0 0 0 0 0.25098 0 0 0 0 0.380392 0 0 0 0.53 0"/>
<feBlend mode="normal" in2="shape" result="effect1_innerShadow"/>
</filter>
<linearGradient id="paint0_linear" x1="0" y1="8.60718" x2="9.79761" y2="42.3808" gradientUnits="userSpaceOnUse">
<stop stop-color="#9299C2"/>
<stop offset="1" stop-color="#D2D6EF"/>
</linearGradient>
<linearGradient id="paint1_linear" x1="59" y1="3" x2="77.1422" y2="8.80552" gradientUnits="userSpaceOnUse">
<stop stop-color="#9299C2"/>
<stop offset="1" stop-color="#D2D6EF"/>
</linearGradient>
</defs>
</svg>
