<svg width="40" height="32" viewBox="0 0 40 32" fill="none" xmlns="http://www.w3.org/2000/svg">
<g filter="url(#filter0_i)">
<path fill-rule="evenodd" clip-rule="evenodd" d="M8 0C3.58172 0 0 3.58172 0 8V24C0 28.4183 3.58172 32 8 32H32C36.4183 32 40 28.4183 40 24V8C40 3.58172 36.4183 0 32 0H8ZM11.4688 6.73835L11.4688 6.73833L10.6145 6.00427L7.02575 10.1554L7.02576 10.1554L7.02575 10.1554L7.87572 10.8938L11.4688 6.73836L11.4688 6.73835ZM28.8673 6L30.2879 7.66707L29.4356 8.40415L28.0088 6.72977L28.8673 6ZM30.0774 9.15723L30.9162 8.40429L32.4303 10.1812L31.5718 10.9109L30.0774 9.15723ZM26.4763 8.03906L27.911 9.72266L27.073 10.4474H27.0644L27.0774 10.4817L25.6177 8.76884L26.4763 8.03906ZM28.5769 10.5041L27.7381 11.257L29.1807 12.95L30.0393 12.2202L28.5769 10.5041ZM11.7907 7.02166L8.20197 11.1728L9.05194 11.9111L12.645 7.75143L11.7907 7.02166ZM19.7796 22.304C20.9796 22.304 22.0999 21.9617 23.0507 21.3687C23.8329 20.9131 24.5275 20.2233 25.0453 19.3808C25.434 18.7639 25.7193 18.0741 25.8768 17.3365L25.8772 17.313C25.8847 16.8551 25.8841 16.3292 25.8563 15.9917C25.8018 15.3305 25.5765 14.5525 24.8248 14.065L24.8054 14.0524L24.7872 14.0381C24.0984 13.495 23.2614 13.3727 22.5119 13.6274C21.768 13.8802 21.0739 14.519 20.7135 15.5716C20.3787 16.9232 19.7096 17.73 18.9476 18.1769C18.1978 18.6167 17.4146 18.675 16.8972 18.6434L16.8909 18.643C15.5278 18.5424 14.6898 17.9804 14.1943 17.1628C13.845 16.5865 13.6858 15.9101 13.5871 15.2793C13.5603 15.5165 13.5465 15.7578 13.5465 16.0022C13.5465 16.4927 13.6019 16.9702 13.7068 17.4286C14.0721 19.0829 15.024 20.193 15.7701 20.8916C16.0986 21.1357 16.4335 21.3458 16.7719 21.5236C17.6632 22.0209 18.6883 22.304 19.7796 22.304ZM22.1902 12.6805C23.2527 12.3195 24.4353 12.4972 25.3874 13.238C24.3755 11.1425 22.2487 9.69614 19.7839 9.69614C17.4984 9.69614 15.5017 10.9396 14.4155 12.7911C14.4046 13.3034 14.4185 13.9209 14.4962 14.5454C14.5968 15.3545 14.7114 16.0866 15.0495 16.6446C15.3576 17.1529 15.8839 17.5652 16.9613 17.6454C17.358 17.6692 17.9212 17.6196 18.4417 17.3143C18.9474 17.0177 19.4707 16.4464 19.7473 15.3128L19.7524 15.2919L19.7593 15.2716C20.2078 13.9404 21.1196 13.0444 22.1902 12.6805ZM12.9927 8.05622L9.40394 12.2159L10.2539 12.95L13.847 8.79457L12.9927 8.05622ZM31.2198 20.6984L29.8418 22.3403L29.0075 21.6228L30.3741 19.9944L31.2198 20.6984ZM28.3497 22.4066L29.1988 23.1065L27.7684 24.8109L26.9227 24.1068L28.3497 22.4066ZM26.575 23.8192L28.0015 22.1195L27.1524 21.4196L25.7293 23.1152L26.575 23.8192ZM27.8586 20.6383L27.7638 20.6911L29.1807 19.0027L30.0264 19.7068L28.6653 21.3285L27.8629 20.6383H27.8586ZM30.3734 24.0748L29.5218 23.3727L28.0861 25.0813L28.936 25.7853L30.3734 24.0748ZM30.1596 22.6137L30.9964 23.3333L32.3917 21.6728L31.5417 20.9688L30.1596 22.6137ZM27.6825 7.00876L31.2455 11.1899L30.3913 11.9197L26.8326 7.73424L27.6825 7.00876ZM10.4931 21.7374L9.06484 20.0631L8.20628 20.7929L9.64038 22.4741L10.4931 21.7374ZM11.1418 22.4979L10.3035 23.2514L11.7693 24.9697L12.6278 24.24L11.1418 22.4979ZM13.8126 23.2312L10.2496 19.0544L9.39107 19.7841L12.9541 23.961L13.8126 23.2312ZM11.4215 25.2703L7.85855 21.0934L7 21.8232L10.563 26.0001L11.4215 25.2703Z" fill="#F0F3FF"/>
<path fill-rule="evenodd" clip-rule="evenodd" d="M8 0C3.58172 0 0 3.58172 0 8V24C0 28.4183 3.58172 32 8 32H32C36.4183 32 40 28.4183 40 24V8C40 3.58172 36.4183 0 32 0H8ZM11.4688 6.73835L11.4688 6.73833L10.6145 6.00427L7.02575 10.1554L7.02576 10.1554L7.02575 10.1554L7.87572 10.8938L11.4688 6.73836L11.4688 6.73835ZM28.8673 6L30.2879 7.66707L29.4356 8.40415L28.0088 6.72977L28.8673 6ZM30.0774 9.15723L30.9162 8.40429L32.4303 10.1812L31.5718 10.9109L30.0774 9.15723ZM26.4763 8.03906L27.911 9.72266L27.073 10.4474H27.0644L27.0774 10.4817L25.6177 8.76884L26.4763 8.03906ZM28.5769 10.5041L27.7381 11.257L29.1807 12.95L30.0393 12.2202L28.5769 10.5041ZM11.7907 7.02166L8.20197 11.1728L9.05194 11.9111L12.645 7.75143L11.7907 7.02166ZM19.7796 22.304C20.9796 22.304 22.0999 21.9617 23.0507 21.3687C23.8329 20.9131 24.5275 20.2233 25.0453 19.3808C25.434 18.7639 25.7193 18.0741 25.8768 17.3365L25.8772 17.313C25.8847 16.8551 25.8841 16.3292 25.8563 15.9917C25.8018 15.3305 25.5765 14.5525 24.8248 14.065L24.8054 14.0524L24.7872 14.0381C24.0984 13.495 23.2614 13.3727 22.5119 13.6274C21.768 13.8802 21.0739 14.519 20.7135 15.5716C20.3787 16.9232 19.7096 17.73 18.9476 18.1769C18.1978 18.6167 17.4146 18.675 16.8972 18.6434L16.8909 18.643C15.5278 18.5424 14.6898 17.9804 14.1943 17.1628C13.845 16.5865 13.6858 15.9101 13.5871 15.2793C13.5603 15.5165 13.5465 15.7578 13.5465 16.0022C13.5465 16.4927 13.6019 16.9702 13.7068 17.4286C14.0721 19.0829 15.024 20.193 15.7701 20.8916C16.0986 21.1357 16.4335 21.3458 16.7719 21.5236C17.6632 22.0209 18.6883 22.304 19.7796 22.304ZM22.1902 12.6805C23.2527 12.3195 24.4353 12.4972 25.3874 13.238C24.3755 11.1425 22.2487 9.69614 19.7839 9.69614C17.4984 9.69614 15.5017 10.9396 14.4155 12.7911C14.4046 13.3034 14.4185 13.9209 14.4962 14.5454C14.5968 15.3545 14.7114 16.0866 15.0495 16.6446C15.3576 17.1529 15.8839 17.5652 16.9613 17.6454C17.358 17.6692 17.9212 17.6196 18.4417 17.3143C18.9474 17.0177 19.4707 16.4464 19.7473 15.3128L19.7524 15.2919L19.7593 15.2716C20.2078 13.9404 21.1196 13.0444 22.1902 12.6805ZM12.9927 8.05622L9.40394 12.2159L10.2539 12.95L13.847 8.79457L12.9927 8.05622ZM31.2198 20.6984L29.8418 22.3403L29.0075 21.6228L30.3741 19.9944L31.2198 20.6984ZM28.3497 22.4066L29.1988 23.1065L27.7684 24.8109L26.9227 24.1068L28.3497 22.4066ZM26.575 23.8192L28.0015 22.1195L27.1524 21.4196L25.7293 23.1152L26.575 23.8192ZM27.8586 20.6383L27.7638 20.6911L29.1807 19.0027L30.0264 19.7068L28.6653 21.3285L27.8629 20.6383H27.8586ZM30.3734 24.0748L29.5218 23.3727L28.0861 25.0813L28.936 25.7853L30.3734 24.0748ZM30.1596 22.6137L30.9964 23.3333L32.3917 21.6728L31.5417 20.9688L30.1596 22.6137ZM27.6825 7.00876L31.2455 11.1899L30.3913 11.9197L26.8326 7.73424L27.6825 7.00876ZM10.4931 21.7374L9.06484 20.0631L8.20628 20.7929L9.64038 22.4741L10.4931 21.7374ZM11.1418 22.4979L10.3035 23.2514L11.7693 24.9697L12.6278 24.24L11.1418 22.4979ZM13.8126 23.2312L10.2496 19.0544L9.39107 19.7841L12.9541 23.961L13.8126 23.2312ZM11.4215 25.2703L7.85855 21.0934L7 21.8232L10.563 26.0001L11.4215 25.2703Z" fill="url(#paint0_linear)"/>
</g>
<defs>
<filter id="filter0_i" x="0" y="0" width="40" height="33" filterUnits="userSpaceOnUse" color-interpolation-filters="sRGB">
<feFlood flood-opacity="0" result="BackgroundImageFix"/>
<feBlend mode="normal" in="SourceGraphic" in2="BackgroundImageFix" result="shape"/>
<feColorMatrix in="SourceAlpha" type="matrix" values="0 0 0 0 0 0 0 0 0 0 0 0 0 0 0 0 0 0 127 0" result="hardAlpha"/>
<feOffset dy="1"/>
<feGaussianBlur stdDeviation="1"/>
<feComposite in2="hardAlpha" operator="arithmetic" k2="-1" k3="1"/>
<feColorMatrix type="matrix" values="0 0 0 0 0.231373 0 0 0 0 0.25098 0 0 0 0 0.380392 0 0 0 0.53 0"/>
<feBlend mode="normal" in2="shape" result="effect1_innerShadow"/>
</filter>
<linearGradient id="paint0_linear" x1="0" y1="0" x2="11.3879" y2="36.4413" gradientUnits="userSpaceOnUse">
<stop stop-color="#9299C2"/>
<stop offset="1" stop-color="#D2D6EF"/>
</linearGradient>
</defs>
</svg>
