<?xml version="1.0" standalone="no"?>
<!DOCTYPE svg PUBLIC "-//W3C//DTD SVG 20010904//EN"
 "http://www.w3.org/TR/2001/REC-SVG-20010904/DTD/svg10.dtd">
<svg version="1.0" xmlns="http://www.w3.org/2000/svg"
 width="768.000000pt" height="768.000000pt" viewBox="0 0 768.000000 768.000000"
 preserveAspectRatio="xMidYMid meet">
<metadata>
Created by potrace 1.11, written by Peter Selinger 2001-2013
</metadata>
<g transform="translate(0.000000,768.000000) scale(0.100000,-0.100000)"
fill="#000000" stroke="none">
<path d="M3695 7665 c-95 -20 -148 -45 -396 -184 -25 -14 -90 -50 -145 -80
-54 -30 -101 -57 -104 -60 -3 -4 -16 -12 -30 -18 -39 -19 -173 -93 -185 -103
-5 -4 -37 -22 -70 -40 -33 -17 -78 -41 -100 -54 -193 -109 -369 -206 -376
-206 -5 0 -9 -4 -9 -10 0 -5 -4 -10 -9 -10 -5 0 -40 -17 -78 -39 -37 -21 -88
-49 -113 -63 -25 -14 -61 -34 -80 -45 -19 -11 -61 -34 -94 -52 -32 -18 -81
-46 -108 -62 -27 -16 -50 -29 -52 -29 -2 0 -63 -34 -135 -75 -73 -41 -136 -75
-140 -75 -5 0 -14 -7 -21 -15 -7 -8 -16 -12 -21 -9 -5 3 -9 1 -9 -4 0 -5 -8
-12 -17 -15 -10 -3 -40 -20 -68 -36 -27 -17 -63 -37 -80 -45 -16 -8 -41 -22
-55 -30 -46 -28 -222 -126 -225 -126 -2 0 -38 -20 -79 -45 -42 -25 -78 -45
-80 -45 -7 0 -183 -104 -220 -130 -42 -30 -88 -73 -132 -125 -25 -31 -92 -142
-95 -160 -1 -5 -6 -21 -11 -35 -37 -92 -37 -95 -35 -1825 1 -924 6 -1691 10
-1705 19 -68 78 -200 88 -200 5 0 9 -6 9 -13 0 -22 108 -134 175 -182 34 -25
65 -45 69 -45 4 0 23 -11 44 -23 20 -13 66 -40 102 -59 36 -19 83 -46 105 -58
22 -13 60 -34 85 -48 72 -40 601 -336 650 -364 25 -14 99 -56 165 -93 66 -37
149 -83 185 -103 36 -20 87 -48 113 -64 26 -15 50 -28 52 -28 2 0 41 -22 87
-48 46 -26 90 -51 98 -55 8 -4 24 -13 35 -20 12 -7 77 -43 145 -81 69 -38 128
-74 132 -80 4 -6 8 -8 8 -4 0 4 29 -10 65 -32 36 -22 67 -40 70 -40 2 0 50
-26 105 -57 56 -32 122 -70 148 -84 26 -14 72 -39 102 -56 30 -17 71 -39 90
-49 19 -11 37 -22 38 -26 2 -5 8 -8 12 -8 5 0 33 -14 62 -31 101 -60 225 -119
284 -135 94 -25 244 -27 341 -4 72 17 209 72 223 90 3 3 28 18 55 32 101 52
120 63 123 71 2 4 8 7 12 7 5 0 32 14 60 30 28 17 79 45 113 64 89 48 209 115
227 126 21 13 157 89 205 115 22 12 58 32 80 45 22 13 58 33 80 44 22 12 42
23 45 26 3 3 19 12 35 21 102 55 151 83 160 89 6 4 35 21 65 37 59 32 285 158
310 173 27 17 315 176 330 183 8 4 29 15 45 25 17 10 57 34 90 52 33 18 78 44
100 56 22 13 60 34 85 46 25 13 47 26 50 29 3 3 25 16 50 30 25 13 103 56 173
96 71 40 130 73 132 73 7 0 205 115 235 137 56 42 109 94 151 150 22 29 38 54
37 55 -2 2 7 19 19 38 21 35 46 102 60 162 10 41 11 3378 1 3433 -19 110 -101
258 -192 343 -53 50 -176 138 -176 126 0 -4 -8 -1 -17 7 -18 14 -31 22 -110
65 -24 13 -64 36 -90 50 -89 49 -368 206 -435 245 -36 22 -69 39 -72 39 -2 0
-31 15 -63 34 -152 89 -208 121 -213 121 -3 0 -16 8 -30 16 -14 9 -52 31 -85
49 -70 39 -444 248 -495 277 -19 11 -62 35 -95 53 -49 27 -212 118 -415 233
-19 11 -71 39 -115 64 -44 24 -87 48 -95 54 -50 32 -504 279 -549 298 -113 48
-279 63 -406 36z m260 -766 c39 -10 108 -43 190 -89 22 -12 90 -50 150 -85 61
-34 142 -79 180 -100 39 -21 81 -46 95 -55 14 -9 40 -23 58 -31 17 -8 32 -17
32 -21 0 -5 9 -8 19 -8 11 0 21 -4 23 -8 2 -7 163 -99 193 -111 6 -2 12 -7 15
-10 3 -3 21 -14 40 -23 19 -10 53 -28 75 -41 22 -13 65 -37 95 -54 30 -16 73
-40 95 -53 22 -13 60 -34 85 -48 25 -14 152 -85 283 -158 131 -74 242 -134
247 -134 6 0 10 -3 10 -8 0 -4 15 -13 33 -21 17 -8 34 -17 37 -20 3 -3 24 -16
48 -28 23 -13 61 -33 85 -45 23 -13 44 -25 47 -28 7 -7 45 -29 110 -62 30 -16
62 -33 70 -38 8 -6 60 -35 115 -67 177 -100 239 -193 259 -388 1 -11 -1 -30
-6 -42 -4 -13 -4 -23 0 -23 4 0 6 -96 4 -212 -1 -117 -2 -229 -1 -248 5 -147
3 -459 -3 -477 -4 -13 -4 -23 0 -23 4 0 6 -96 4 -212 -1 -117 -2 -229 -1 -248
5 -147 3 -459 -3 -477 -4 -13 -4 -23 0 -23 4 0 6 -96 4 -212 -1 -117 -2 -229
-1 -248 4 -131 3 -233 -3 -236 -4 -3 -5 -11 -2 -18 8 -21 -24 -118 -55 -167
-55 -87 -93 -117 -286 -224 -27 -15 -72 -41 -100 -57 -27 -15 -74 -40 -102
-55 -29 -14 -53 -30 -53 -35 0 -5 -4 -7 -9 -4 -4 3 -23 -6 -41 -19 -19 -14
-37 -25 -41 -25 -4 0 -62 -32 -128 -70 -67 -39 -126 -70 -131 -70 -6 0 -10 -4
-10 -8 0 -4 -12 -13 -27 -19 -16 -6 -55 -27 -88 -46 -247 -140 -297 -168 -375
-210 -30 -16 -64 -35 -75 -42 -42 -25 -346 -195 -350 -195 -3 0 -33 -17 -67
-38 -35 -20 -81 -46 -103 -57 -22 -11 -42 -23 -45 -26 -3 -3 -41 -25 -85 -49
-44 -23 -84 -46 -90 -50 -5 -4 -37 -22 -70 -40 -33 -18 -93 -51 -133 -74 -125
-70 -155 -85 -208 -101 -136 -42 -241 -21 -429 85 -22 12 -89 50 -150 85 -60
34 -141 79 -180 100 -38 21 -81 46 -95 55 -14 9 -40 23 -57 31 -18 8 -33 17
-33 21 0 5 -9 8 -20 8 -11 0 -20 4 -20 9 0 5 -15 14 -32 22 -18 7 -35 16 -38
19 -3 4 -34 22 -70 41 -36 18 -67 36 -70 39 -3 4 -20 12 -37 19 -18 8 -33 16
-33 20 0 3 -14 12 -31 20 -17 7 -74 38 -127 68 -54 30 -122 69 -152 86 -30 16
-109 60 -175 97 -66 37 -147 82 -180 100 -33 18 -64 36 -70 40 -5 4 -46 27
-90 50 -44 24 -82 46 -85 49 -3 3 -30 19 -60 35 -111 58 -135 71 -140 76 -7 7
-45 29 -110 62 -30 16 -62 33 -70 38 -8 6 -60 35 -114 66 -161 92 -234 184
-252 322 -9 62 -9 2746 0 2792 10 51 39 130 48 130 4 0 8 6 8 13 0 33 105 123
210 180 30 17 289 162 405 227 22 13 60 34 85 48 25 14 76 42 113 63 38 22 73
39 77 39 5 0 10 3 12 8 2 4 26 18 53 32 28 14 52 28 55 31 3 3 39 24 80 46 91
49 123 67 358 200 101 56 188 103 192 103 5 0 10 4 12 8 2 4 32 23 68 41 36
18 70 37 76 42 11 9 40 25 154 85 30 16 57 31 60 34 5 5 252 144 380 213 30
17 66 38 80 47 113 76 260 102 385 69z"/>
<path d="M3745 6379 c-22 -4 -55 -10 -72 -13 -65 -12 -160 -57 -333 -156 -36
-20 -85 -48 -110 -62 -25 -14 -137 -77 -250 -140 -113 -63 -223 -125 -245
-138 -22 -12 -45 -26 -51 -31 -6 -5 -14 -6 -17 -2 -4 3 -7 1 -7 -5 0 -7 -4
-12 -9 -12 -4 0 -84 -43 -176 -95 -92 -52 -168 -95 -170 -95 -1 0 -62 -34
-134 -75 -73 -41 -137 -75 -142 -75 -5 0 -9 -3 -9 -8 0 -4 -17 -15 -37 -25
-21 -9 -51 -26 -68 -36 -16 -10 -52 -30 -80 -45 -73 -41 -135 -88 -181 -139
-46 -50 -114 -150 -114 -167 0 -6 -6 -21 -14 -33 -8 -12 -22 -53 -32 -92 -16
-65 -18 -144 -18 -1095 0 -956 2 -1030 19 -1095 22 -88 70 -183 129 -257 74
-93 105 -114 451 -310 40 -22 103 -50 110 -49 4 1 7 188 7 416 0 442 3 482 49
565 32 60 101 133 147 156 20 10 39 22 42 25 6 7 152 87 198 108 17 8 32 19
32 23 0 4 4 8 9 8 7 0 91 45 276 150 105 59 464 261 584 327 74 41 140 81 147
88 8 7 17 15 22 17 22 9 102 122 116 165 24 73 26 95 25 256 0 76 0 116 1 142
1 17 2 37 1 45 0 8 0 42 0 75 0 33 0 67 0 75 -1 8 -1 36 -1 63 1 26 -1 47 -4
47 -2 0 -55 -29 -118 -64 -62 -35 -131 -73 -153 -86 -22 -12 -53 -30 -70 -40
-16 -9 -55 -31 -85 -47 -46 -25 -378 -211 -500 -280 -19 -11 -62 -35 -95 -53
-33 -18 -91 -50 -128 -71 -38 -22 -73 -39 -78 -39 -5 0 -9 -4 -9 -10 0 -5 -4
-10 -10 -10 -5 0 -83 -41 -172 -92 -191 -107 -211 -118 -220 -118 -4 0 -6 140
-6 310 2 281 3 316 21 368 23 66 52 115 93 156 52 52 72 65 244 159 30 17 58
34 61 40 3 5 8 7 10 5 2 -1 50 23 106 55 55 31 106 57 111 57 6 0 12 4 14 8 2
5 53 36 113 69 198 110 300 166 330 184 17 10 46 26 64 36 19 9 89 48 155 86
109 62 151 84 181 93 117 36 223 31 326 -15 46 -21 141 -73 219 -120 25 -14
56 -32 70 -39 14 -7 57 -30 95 -53 39 -22 82 -45 98 -52 15 -6 27 -15 27 -19
0 -4 4 -8 8 -8 5 0 58 -28 118 -61 60 -34 127 -71 149 -83 63 -35 306 -171
345 -194 19 -11 55 -32 80 -45 25 -14 65 -37 90 -51 25 -14 56 -31 70 -38 14
-7 42 -22 62 -35 l36 -22 -2 322 c-2 177 -6 333 -9 347 -14 51 -61 134 -101
175 -42 43 -75 66 -181 125 -33 19 -78 44 -100 57 -22 12 -51 28 -65 35 -14 7
-53 29 -88 50 -34 21 -64 38 -67 38 -2 0 -26 13 -52 28 -62 37 -182 103 -210
116 -13 6 -23 14 -23 19 0 4 -5 7 -10 7 -6 0 -45 20 -88 44 -93 53 -144 81
-197 109 -22 12 -42 24 -45 27 -9 10 -173 86 -211 99 -69 22 -222 32 -294 20z"/>
<path d="M5640 4057 c0 -4 -4 -6 -9 -3 -14 9 -52 -10 -90 -43 -18 -17 -31 -31
-27 -31 3 0 -1 -11 -10 -25 -26 -39 -25 -437 1 -515 39 -119 97 -181 250 -269
59 -33 109 -61 112 -61 3 0 17 -9 32 -19 96 -69 231 -39 283 62 19 38 21 59
22 232 2 276 -20 358 -122 458 -44 43 -294 194 -352 212 -35 11 -90 13 -90 2z"/>
<path d="M5395 2845 c-33 -7 -87 -27 -120 -45 -109 -60 -193 -106 -260 -144
-22 -12 -76 -42 -120 -66 -44 -24 -81 -47 -83 -52 -2 -4 -8 -8 -13 -8 -5 0
-66 -32 -137 -72 -70 -39 -140 -78 -157 -86 -16 -8 -37 -21 -45 -28 -8 -7 -22
-14 -30 -16 -8 -2 -17 -6 -20 -9 -8 -10 -351 -199 -360 -199 -5 0 -13 -6 -17
-13 -4 -6 -19 -18 -33 -25 -64 -34 -145 -171 -157 -267 -8 -60 -7 -250 1 -263
3 -6 2 -13 -3 -16 -5 -4 -4 -29 4 -62 21 -93 93 -148 189 -145 40 1 68 12 145
55 53 30 116 65 141 79 25 14 130 73 233 131 103 58 192 106 197 106 4 0 10 3
12 8 2 4 26 18 53 32 28 14 52 28 55 31 3 3 41 25 85 49 44 23 114 62 156 86
42 24 81 44 87 44 7 0 12 4 12 9 0 5 8 11 18 15 9 3 35 16 57 29 61 37 187
106 215 120 14 6 27 14 30 18 3 4 34 22 69 40 78 42 88 47 240 134 152 87 175
114 173 213 -1 57 -34 112 -85 144 -89 54 -265 148 -307 163 -60 21 -152 25
-225 10z"/>
</g>
</svg>
